<?xml version="1.0" encoding="UTF-8" standalone="no"?>
<svg
   xmlns:dc="http://purl.org/dc/elements/1.1/"
   xmlns:cc="http://creativecommons.org/ns#"
   xmlns:rdf="http://www.w3.org/1999/02/22-rdf-syntax-ns#"
   xmlns:svg="http://www.w3.org/2000/svg"
   xmlns="http://www.w3.org/2000/svg"
   xmlns:sodipodi="http://sodipodi.sourceforge.net/DTD/sodipodi-0.dtd"
   xmlns:inkscape="http://www.inkscape.org/namespaces/inkscape"
   width="20"
   height="20"
   version="1.1"
   id="svg1673"
   sodipodi:docname="repeat.svg"
   inkscape:version="0.92.5 (2060ec1f9f, 2020-04-08)">
  <metadata
     id="metadata1679">
    <rdf:RDF>
      <cc:Work
         rdf:about="">
        <dc:format>image/svg+xml</dc:format>
        <dc:type
           rdf:resource="http://purl.org/dc/dcmitype/StillImage" />
        <dc:title />
      </cc:Work>
    </rdf:RDF>
  </metadata>
  <defs
     id="defs1677">
    <linearGradient
       y2="123.9133"
       y1="4.25"
       x2="64"
       x1="64"
       gradientUnits="userSpaceOnUse"
       id="SVGID_1_">
      <stop
         id="stop1646"
         style="stop-color:#FFAB40"
         offset="0" />
      <stop
         id="stop1648"
         style="stop-color:#FF6D00"
         offset="1" />
    </linearGradient>
  </defs>
  <sodipodi:namedview
     pagecolor="#ffffff"
     bordercolor="#666666"
     borderopacity="1"
     objecttolerance="10"
     gridtolerance="10"
     guidetolerance="10"
     inkscape:pageopacity="0"
     inkscape:pageshadow="2"
     inkscape:window-width="1024"
     inkscape:window-height="480"
     id="namedview1675"
     showgrid="false"
     inkscape:zoom="14.777778"
     inkscape:cx="10"
     inkscape:cy="10"
     inkscape:window-x="158"
     inkscape:window-y="341"
     inkscape:window-maximized="0"
     inkscape:current-layer="svg1673"
     fit-margin-top="0"
     fit-margin-left="0"
     fit-margin-right="0"
     fit-margin-bottom="0"
     showborder="true"
     inkscape:pagecheckerboard="true"
     inkscape:showpageshadow="false" />
  <path
     inkscape:connector-curvature="0"
     id="path1663"
     style="fill:#e09000;fill-opacity:1;stroke-width:0.17507397"
     d="m 14.007396,10.519262 c -0.456875,0.392908 -1.174063,0.07443 -1.174063,-0.5209929 V 7.5767763 c 0,-0.1903961 -0.159375,-0.3461748 -0.354167,-0.3461748 H 6.4583332 c -0.8535416,0 -2.0453124,0.261362 -2.1249999,2.0770486 L 1.7160416,11.613174 c -0.00177,-0.0017 -0.00354,-0.0035 -0.00354,-0.0052 C 1.574375,11.099105 1.5,10.559072 1.5,10 1.5,6.9415455 3.7206249,4.4612031 6.4583332,4.4612031 h 6.0208328 c 0.194792,0 0.354167,-0.1557787 0.354167,-0.3461748 V 1.6935356 c 0,-0.5954207 0.717188,-0.91217055 1.174063,-0.5209931 l 4.249999,4.1523667 c 0.322292,0.275209 0.322292,0.7667772 0,1.0419862 z" />
  <path
     inkscape:connector-curvature="0"
     id="path1665"
     style="fill:#e09000;fill-opacity:1;stroke-width:0.17507397"
     d="m 5.9926041,9.4807382 c 0.4586458,-0.391178 1.1740624,-0.07443 1.1740624,0.5209928 v 2.421492 c 0,0.190397 0.159375,0.346175 0.3541667,0.346175 h 6.0208328 c 0.853542,0 2.045313,-0.261362 2.125,-2.077049 l 2.617292,-2.3055236 c 0.0018,0.00173 0.0035,0.00346 0.0035,0.00519 C 18.425625,8.900895 18.5,9.4409282 18.5,10 c 0,3.058454 -2.220625,5.538797 -4.958334,5.538797 H 7.5208332 c -0.1947917,0 -0.3541667,0.155778 -0.3541667,0.346174 v 2.421493 c 0,0.595421 -0.7171874,0.912171 -1.1740624,0.520993 l -4.25,-4.152367 c -0.3222916,-0.275208 -0.3222916,-0.766777 0,-1.041986 z" />
</svg>
