<?xml version="1.0" encoding="UTF-8" standalone="no"?>
<svg
   xmlns:dc="http://purl.org/dc/elements/1.1/"
   xmlns:cc="http://creativecommons.org/ns#"
   xmlns:rdf="http://www.w3.org/1999/02/22-rdf-syntax-ns#"
   xmlns:svg="http://www.w3.org/2000/svg"
   xmlns="http://www.w3.org/2000/svg"
   xmlns:sodipodi="http://sodipodi.sourceforge.net/DTD/sodipodi-0.dtd"
   xmlns:inkscape="http://www.inkscape.org/namespaces/inkscape"
   width="20"
   height="20"
   version="1.1"
   id="svg1673"
   sodipodi:docname="repeat.svg"
   inkscape:version="0.92.5 (2060ec1f9f, 2020-04-08)">
  <metadata
     id="metadata1679">
    <rdf:RDF>
      <cc:Work
         rdf:about="">
        <dc:format>image/svg+xml</dc:format>
        <dc:type
           rdf:resource="http://purl.org/dc/dcmitype/StillImage" />
        <dc:title></dc:title>
      </cc:Work>
    </rdf:RDF>
  </metadata>
  <defs
     id="defs1677">
    <linearGradient
       y2="123.9133"
       y1="4.25"
       x2="64"
       x1="64"
       gradientUnits="userSpaceOnUse"
       id="SVGID_1_">
      <stop
         id="stop1646"
         style="stop-color:#FFAB40"
         offset="0" />
      <stop
         id="stop1648"
         style="stop-color:#FF6D00"
         offset="1" />
    </linearGradient>
  </defs>
  <sodipodi:namedview
     pagecolor="#ffffff"
     bordercolor="#666666"
     borderopacity="1"
     objecttolerance="10"
     gridtolerance="10"
     guidetolerance="10"
     inkscape:pageopacity="0"
     inkscape:pageshadow="2"
     inkscape:window-width="1024"
     inkscape:window-height="480"
     id="namedview1675"
     showgrid="false"
     inkscape:zoom="13.3"
     inkscape:cx="10"
     inkscape:cy="10"
     inkscape:window-x="158"
     inkscape:window-y="341"
     inkscape:window-maximized="0"
     inkscape:current-layer="svg1673"
     fit-margin-top="0"
     fit-margin-left="0"
     fit-margin-right="0"
     fit-margin-bottom="0"
     showborder="true"
     inkscape:pagecheckerboard="true"
     inkscape:showpageshadow="false" />
  <g
     id="g821"
     transform="translate(1.5,-0.99999985)">
    <path
       d="m 12.507396,11.519262 c -0.456875,0.392908 -1.174063,0.07443 -1.174063,-0.520993 V 8.5767762 c 0,-0.1903961 -0.159375,-0.3461748 -0.354167,-0.3461748 H 4.9583332 c -0.8535416,0 -2.0453124,0.261362 -2.1249999,2.0770486 l -2.61729166,2.305524 c -0.001771,-0.0017 -0.003542,-0.0035 -0.003542,-0.0052 C 0.07437498,12.099105 -2e-8,11.559072 -2e-8,11 -2e-8,7.9415454 2.2206249,5.461203 4.9583332,5.461203 h 6.0208328 c 0.194792,0 0.354167,-0.1557787 0.354167,-0.3461748 V 2.6935355 c 0,-0.5954207 0.717188,-0.9121706 1.174063,-0.5209931 l 4.249999,4.1523667 c 0.322292,0.275209 0.322292,0.7667772 0,1.0419862 z"
       style="fill:#653c74;fill-opacity:1;stroke-width:0.17507397"
       id="path1663"
       inkscape:connector-curvature="0" />
    <path
       d="m 4.4926041,10.480738 c 0.4586458,-0.391178 1.1740624,-0.07443 1.1740624,0.520993 v 2.421492 c 0,0.190397 0.159375,0.346175 0.3541667,0.346175 h 6.0208328 c 0.853542,0 2.045313,-0.261362 2.125,-2.077049 l 2.617292,-2.3055238 c 0.0018,0.00173 0.0035,0.00346 0.0035,0.00519 C 16.925625,9.9008948 17,10.440928 17,11 c 0,3.058454 -2.220625,5.538797 -4.958334,5.538797 H 6.0208332 c -0.1947917,0 -0.3541667,0.155778 -0.3541667,0.346174 v 2.421493 c 0,0.595421 -0.7171874,0.912171 -1.1740624,0.520993 L 0.24260414,15.67509 c -0.32229166,-0.275208 -0.32229166,-0.766777 0,-1.041986 z"
       style="fill:#653c74;fill-opacity:1;stroke-width:0.17507397"
       id="path1665"
       inkscape:connector-curvature="0" />
  </g>
</svg>
