<?xml version="1.0" encoding="UTF-8" standalone="no"?>
<!-- Created with Inkscape (http://www.inkscape.org/) -->

<svg
   version="1.1"
   id="svg2"
   width="413.67639"
   height="134.11635"
   viewBox="0 0 413.67642 134.11636"
   sodipodi:docname="ballroomdj4.svg"
   inkscape:version="1.1.1 (3bf5ae0d25, 2021-09-20)"
   xmlns:inkscape="http://www.inkscape.org/namespaces/inkscape"
   xmlns:sodipodi="http://sodipodi.sourceforge.net/DTD/sodipodi-0.dtd"
   xmlns="http://www.w3.org/2000/svg"
   xmlns:svg="http://www.w3.org/2000/svg"
   xmlns:rdf="http://www.w3.org/1999/02/22-rdf-syntax-ns#"
   xmlns:cc="http://creativecommons.org/ns#"
   xmlns:dc="http://purl.org/dc/elements/1.1/">
  <metadata
     id="metadata8">
    <rdf:RDF>
      <cc:Work
         rdf:about="">
        <dc:format>image/svg+xml</dc:format>
        <dc:type
           rdf:resource="http://purl.org/dc/dcmitype/StillImage" />
      </cc:Work>
    </rdf:RDF>
  </metadata>
  <defs
     id="defs6" />
  <sodipodi:namedview
     pagecolor="#ffffff"
     bordercolor="#666666"
     borderopacity="1"
     objecttolerance="10"
     gridtolerance="10"
     guidetolerance="10"
     inkscape:pageopacity="0"
     inkscape:pageshadow="2"
     inkscape:window-width="1845"
     inkscape:window-height="956"
     id="namedview4"
     showgrid="false"
     fit-margin-top="10"
     fit-margin-left="10"
     fit-margin-right="10"
     fit-margin-bottom="10"
     inkscape:pagecheckerboard="true"
     inkscape:zoom="1.8420195"
     inkscape:cx="206.8382"
     inkscape:cy="67.045977"
     inkscape:window-x="65"
     inkscape:window-y="0"
     inkscape:window-maximized="0"
     inkscape:current-layer="g893"
     inkscape:showpageshadow="false" />
  <g
     id="g871"
     transform="translate(19.488025,157.98969)">
    <g
       id="g893"
       transform="translate(-4,-2)">
      <g
         aria-label="BallroomDJ"
         id="text819-6"
         style="font-size:40px;line-height:1.25;letter-spacing:0px;word-spacing:0px;fill:#9e0d1e"
         inkscape:transform-center-x="-4.435567"
         inkscape:transform-center-y="1.2037587">
        <path
           d="m 43.01333,-106.17901 c 0,-5.824 -2.613335,-8.66134 -10.229338,-11.12534 5.674669,-1.41867 7.989337,-2.464 10.602671,-4.62933 2.240001,-1.86667 3.509335,-4.85334 3.509335,-7.91467 0,-7.16801 -6.048003,-10.90134 -17.621341,-10.90134 H 8.9653135 v 1.86667 c 2.7626685,0.14933 3.4346685,0.29866 4.3306685,0.82133 0.597334,0.37333 1.120001,1.344 1.120001,2.24 0,0.74667 -0.298667,2.38933 -0.821334,4.256 l -9.1093376,33.525351 c -1.1946673,3.808002 -2.3893345,4.928003 -5.9733362,5.376003 v 1.866668 H 20.986653 c 13.664006,0 22.026677,-5.824003 22.026677,-15.381342 z m -11.424006,-1.71733 c 0,4.40533 -1.717334,9.034668 -4.405335,11.722669 -2.016001,2.016001 -4.554669,2.986668 -7.840004,2.986668 -2.912001,0 -4.256002,-0.746667 -4.256002,-2.464001 0,-0.597334 0.07467,-1.120001 0.373334,-2.165334 l 4.928002,-18.218672 c 4.853336,0.14933 7.01867,0.59733 8.586671,1.792 1.717334,1.344 2.613334,3.584 2.613334,6.34667 z m 4.330669,-22.92268 c 0,4.77867 -1.568001,8.36267 -4.554669,10.304 -2.314668,1.49334 -4.853335,2.01601 -10.378671,2.24001 l 4.554668,-16.80001 c 0.746667,-2.688 1.493334,-3.28534 3.882669,-3.28534 4.330669,0 6.496003,2.53867 6.496003,7.54134 z"
           style="font-style:italic;font-weight:bold;font-size:74.6667px;font-family:'TeX Gyre Termes';-inkscape-font-specification:'TeX Gyre Termes Bold Italic'"
           id="path1011" />
        <path
           d="m 84.080003,-99.160339 -1.568001,-1.120001 c -3.061335,4.106669 -4.181335,5.22667 -5.376003,5.22667 -0.597333,0 -0.896,-0.448001 -0.896,-1.120001 0,-1.866668 0.672,-4.927999 2.538668,-11.050669 l 5.301336,-17.62134 -8.288004,0.52266 -1.344001,4.40534 c -0.672,-3.808 -2.314668,-5.376 -5.525336,-5.376 -9.184004,0 -20.38401,14.336 -20.38401,25.984007 0,5.67467 3.210669,9.482672 8.064004,9.482672 4.554669,0 7.989337,-2.688002 12.245339,-9.856005 -0.896,3.061335 -1.045333,3.957335 -1.045333,5.002669 0,2.762668 2.240001,4.928002 5.002669,4.928002 3.509335,0 6.944003,-2.912001 11.274672,-9.408004 z M 72.730664,-118.64835 c 0,4.48 -2.464001,12.76801 -5.376003,17.92001 -2.016001,3.658669 -4.256002,5.600003 -6.272003,5.600003 -1.941334,0 -3.360001,-1.717334 -3.360001,-4.032002 0,-3.882671 2.464001,-11.349341 5.525336,-16.874671 2.240001,-3.95734 4.704002,-6.27201 6.720003,-6.12267 1.642667,0.14933 2.762668,1.49333 2.762668,3.50933 z"
           style="font-style:italic;font-weight:bold;font-size:74.6667px;font-family:'TeX Gyre Termes';-inkscape-font-specification:'TeX Gyre Termes Bold Italic'"
           id="path1013" />
        <path
           d="m 105.21054,-100.28034 -1.64267,-1.04533 c -2.98667,4.405332 -4.480001,5.973333 -5.824002,5.973333 -0.597333,0 -1.12,-0.522667 -1.12,-1.120001 0,-1.045334 0.522667,-3.434668 1.642667,-7.466672 l 10.826675,-39.05068 c -6.42134,1.19466 -10.005341,1.71733 -15.605344,2.24 v 2.016 c 0.821334,-0.0747 1.194667,-0.0747 1.568001,-0.0747 2.016001,0 3.136001,0.74667 3.136001,2.09067 0,1.12 -0.970667,5.152 -2.464001,10.60267 l -5.600003,19.71201 c -1.568,5.6 -2.538667,10.080006 -2.538667,11.79734 0,2.688001 2.016001,4.480002 5.077335,4.480002 4.554669,0 7.392008,-2.314668 12.544008,-10.154672 z"
           style="font-style:italic;font-weight:bold;font-size:74.6667px;font-family:'TeX Gyre Termes';-inkscape-font-specification:'TeX Gyre Termes Bold Italic'"
           id="path1015" />
        <path
           d="m 125.96787,-100.28034 -1.64267,-1.04533 c -2.98667,4.405332 -4.48,5.973333 -5.824,5.973333 -0.59733,0 -1.12,-0.522667 -1.12,-1.120001 0,-1.045334 0.52267,-3.434668 1.64267,-7.466672 l 10.82667,-39.05068 c -6.42134,1.19466 -10.00534,1.71733 -15.60534,2.24 v 2.016 c 0.82133,-0.0747 1.19467,-0.0747 1.568,-0.0747 2.016,0 3.136,0.74667 3.136,2.09067 0,1.12 -0.97067,5.152 -2.464,10.60267 l -5.6,19.71201 c -1.568,5.6 -2.53867,10.080006 -2.53867,11.79734 0,2.688001 2.016,4.480002 5.07733,4.480002 4.55467,0 7.39201,-2.314668 12.54401,-10.154672 z"
           style="font-style:italic;font-weight:bold;font-size:74.6667px;font-family:'TeX Gyre Termes';-inkscape-font-specification:'TeX Gyre Termes Bold Italic'"
           id="path1017" />
        <path
           d="m 157.99988,-120.36568 c 0,-2.98667 -1.71733,-4.928 -4.256,-4.928 -3.808,0 -6.86934,3.73333 -12.76801,15.60534 l 4.92801,-15.60534 c -4.48001,1.12 -5.89867,1.344 -14.93334,2.09066 v 2.016 c 3.36,0.14934 4.032,0.448 4.032,1.86667 0,1.86667 -2.31467,10.60267 -7.61601,28.522682 h 9.03467 l 2.46401,-7.765337 c 2.24,-7.242675 3.36,-10.080005 5.376,-13.514675 2.016,-3.584 3.808,-5.67467 4.85333,-5.67467 0.29867,0 0.74667,0.29867 1.19467,0.97067 1.12,1.26933 2.09067,1.86667 3.36,1.86667 2.464,0 4.33067,-2.31467 4.33067,-5.45067 z"
           style="font-style:italic;font-weight:bold;font-size:74.6667px;font-family:'TeX Gyre Termes';-inkscape-font-specification:'TeX Gyre Termes Bold Italic'"
           id="path1019" />
        <path
           d="m 189.8078,-114.01901 c 0,-6.57067 -4.85334,-11.27467 -11.72267,-11.27467 -11.05068,0 -21.42935,11.872 -21.42935,24.41601 0,6.346666 5.00267,11.050669 11.87201,11.050669 11.12534,0 21.28001,-11.573339 21.28001,-24.192009 z m -13.51468,15.008004 c -2.16533,4.778669 -4.40533,7.01867 -7.09333,7.01867 -2.24,0 -3.65867,-1.717334 -3.65867,-4.629335 0,-5.674669 2.61333,-16.202679 5.152,-20.906679 2.016,-3.73333 4.256,-5.6 6.72,-5.6 2.16534,0 3.50934,1.64267 3.50934,4.33067 0,5.00267 -2.16533,14.41067 -4.62934,19.786674 z"
           style="font-style:italic;font-weight:bold;font-size:74.6667px;font-family:'TeX Gyre Termes';-inkscape-font-specification:'TeX Gyre Termes Bold Italic'"
           id="path1021" />
        <path
           d="m 227.141,-114.01901 c 0,-6.57067 -4.85333,-11.27467 -11.72267,-11.27467 -11.05067,0 -21.42934,11.872 -21.42934,24.41601 0,6.346666 5.00267,11.050669 11.872,11.050669 11.12534,0 21.28001,-11.573339 21.28001,-24.192009 z m -13.51467,15.008004 c -2.16533,4.778669 -4.40533,7.01867 -7.09334,7.01867 -2.24,0 -3.65866,-1.717334 -3.65866,-4.629335 0,-5.674669 2.61333,-16.202679 5.152,-20.906679 2.016,-3.73333 4.256,-5.6 6.72,-5.6 2.16534,0 3.50934,1.64267 3.50934,4.33067 0,5.00267 -2.16534,14.41067 -4.62934,19.786674 z"
           style="font-style:italic;font-weight:bold;font-size:74.6667px;font-family:'TeX Gyre Termes';-inkscape-font-specification:'TeX Gyre Termes Bold Italic'"
           id="path1023" />
        <path
           d="m 285.45555,-99.907006 -1.64266,-0.970664 c -0.29867,0.37333 -0.59734,0.82133 -0.896,1.343997 -1.71734,2.762668 -3.28534,4.330669 -4.25601,4.330669 -0.672,0 -1.19466,-0.448 -1.19466,-1.045334 0,-0.821333 0,-0.821333 1.568,-5.824002 l 3.36,-9.93067 c 1.12,-3.21067 1.71733,-6.048 1.71733,-7.98934 0,-3.06133 -2.464,-5.30133 -5.74933,-5.30133 -5.07734,0 -8.58667,2.98666 -14.78401,12.84267 1.49333,-3.88267 1.94133,-5.67467 1.94133,-7.76534 0,-3.136 -1.86666,-5.07733 -5.00267,-5.07733 -2.09066,0 -4.33066,0.82133 -6.42133,2.53866 -2.76267,2.09067 -5.00267,4.85334 -9.85601,12.39468 l 4.77867,-14.85868 c -4.704,1.12 -6.496,1.344 -14.93334,2.016 v 2.016 c 1.94134,0 4.032,0.14934 4.032,1.86667 0,1.12 -0.59733,3.50934 -2.61333,10.75201 l -5.00267,17.770672 h 9.03467 c 3.95734,-14.112012 6.72,-20.458672 10.97601,-25.536012 1.64266,-1.94133 3.73333,-3.50934 4.85333,-3.50934 0.74667,0 1.344,0.74667 1.344,1.64267 0,1.26934 -0.896,4.40534 -3.36,11.94667 l -4.85333,15.456012 h 8.96 c 4.33067,-14.336012 4.85334,-15.680012 7.54134,-20.384012 3.136,-5.6 6.12267,-8.66134 8.36267,-8.66134 0.896,0 1.71733,0.74667 1.71733,1.56801 0,0.448 -0.224,1.26933 -0.52267,2.24 l -3.36,9.78133 c -1.64266,4.77867 -2.688,9.258675 -2.688,11.42401 0,3.061334 1.792,4.704002 5.00267,4.704002 4.62934,0 7.616,-2.464001 11.94667,-9.781338 z"
           style="font-style:italic;font-weight:bold;font-size:74.6667px;font-family:'TeX Gyre Termes';-inkscape-font-specification:'TeX Gyre Termes Bold Italic'"
           id="path1025" />
        <path
           d="m 340.78358,-120.36568 c 0,-12.76801 -8.36267,-20.38401 -22.47467,-20.38401 h -21.65335 v 1.86667 l 2.31467,0.37333 c 2.38933,0.29867 3.136,0.97067 3.136,2.76267 0,0.74666 -0.224,1.94133 -0.896,4.40533 l -9.03467,33.301351 c -1.12,3.808002 -2.38933,4.928003 -5.97334,5.376003 v 1.866668 h 21.35468 c 19.11468,0 33.22668,-12.544002 33.22668,-29.568012 z m -10.976,-4.55467 c 0,8.288 -2.38934,17.02401 -6.272,22.77334 -4.10667,5.973339 -9.40801,8.810674 -16.65068,8.810674 -2.83733,0 -4.032,-0.746667 -4.032,-2.538668 0,-0.896001 0.224,-2.016001 0.896,-4.032002 l 0.0747,-0.298664 9.55733,-35.39202 c 0.52267,-2.09067 1.64267,-2.83733 4.10667,-2.83733 8.28801,0 12.32001,4.40533 12.32001,13.51467 z"
           style="font-style:italic;font-weight:bold;font-size:74.6667px;font-family:'TeX Gyre Termes';-inkscape-font-specification:'TeX Gyre Termes Bold Italic'"
           id="path1027" />
        <path
           d="m 377.81809,-138.88302 v -1.86667 h -22.17601 v 1.86667 l 2.31467,0.37333 c 2.24,0.29867 3.136,1.04533 3.136,2.38933 0,0.82134 -0.29867,2.53867 -0.82133,4.55467 l -8.51201,32.256017 c -2.912,11.200006 -3.95733,13.216007 -6.72,13.216007 -1.41867,0 -2.016,-0.448 -2.016,-1.344001 0,-0.522667 0.14933,-0.896 0.74667,-1.568001 0.82133,-0.970667 0.97066,-1.418667 0.97066,-2.464001 0,-2.688001 -2.09067,-4.704002 -4.704,-4.704002 -2.688,0 -4.77867,2.240001 -4.77867,5.226669 0,4.405336 4.77867,7.541337 11.34934,7.541337 8.064,0 12.99201,-4.554669 15.60534,-14.336007 l 9.55734,-35.765348 c 1.26933,-3.95734 2.38933,-4.928 6.048,-5.376 z"
           style="font-style:italic;font-weight:bold;font-size:74.6667px;font-family:'TeX Gyre Termes';-inkscape-font-specification:'TeX Gyre Termes Bold Italic'"
           id="path1029" />
      </g>
      <g
         aria-label="BallroomDJ"
         id="text819-0"
         style="font-size:40px;line-height:1.25;letter-spacing:0px;word-spacing:0px;fill:#eab016;fill-opacity:0.980392"
         inkscape:transform-center-x="-2.0783034"
         inkscape:transform-center-y="-0.47999532">
        <path
           d="m 39.01333,-109.17901 c 0,-5.824 -2.613335,-8.66134 -10.229338,-11.12534 5.674669,-1.41867 7.989337,-2.464 10.602671,-4.62933 2.240001,-1.86667 3.509335,-4.85334 3.509335,-7.91467 0,-7.16801 -6.048003,-10.90134 -17.621341,-10.90134 H 4.9653135 v 1.86667 c 2.762668,0.14933 3.4346683,0.29866 4.3306688,0.82133 0.5973336,0.37333 1.1200007,1.344 1.1200007,2.24 0,0.74667 -0.298667,2.38933 -0.8213339,4.256 l -9.10933771,33.52535 c -1.19466724,3.808003 -2.38933449,4.928004 -5.97333619,5.376004 v 1.866668 H 16.986653 c 13.664006,0 22.026677,-5.824003 22.026677,-15.381342 z m -11.424006,-1.71733 c 0,4.40533 -1.717334,9.03467 -4.405335,11.722669 -2.016001,2.016001 -4.554669,2.986668 -7.840004,2.986668 -2.912001,0 -4.256002,-0.746667 -4.256002,-2.464001 0,-0.597334 0.07467,-1.120001 0.373334,-2.165336 l 4.928002,-18.21867 c 4.853336,0.14933 7.01867,0.59733 8.586671,1.792 1.717334,1.344 2.613334,3.584 2.613334,6.34667 z m 4.330669,-22.92268 c 0,4.77867 -1.568001,8.36267 -4.554669,10.304 -2.314668,1.49334 -4.853335,2.01601 -10.378671,2.24001 l 4.554668,-16.80001 c 0.746667,-2.688 1.493334,-3.28534 3.882669,-3.28534 4.330669,0 6.496003,2.53867 6.496003,7.54134 z"
           style="font-style:italic;font-weight:bold;font-size:74.6667px;font-family:'TeX Gyre Termes';-inkscape-font-specification:'TeX Gyre Termes Bold Italic'"
           id="path972" />
        <path
           d="m 80.080003,-102.16034 -1.568001,-1.12 c -3.061335,4.106669 -4.181335,5.22667 -5.376003,5.22667 -0.597333,0 -0.896,-0.448001 -0.896,-1.120001 0,-1.866669 0.672,-4.927999 2.538668,-11.050669 l 5.301336,-17.62134 -8.288004,0.52266 -1.344001,4.40534 c -0.672,-3.808 -2.314668,-5.376 -5.525336,-5.376 -9.184004,0 -20.38401,14.336 -20.38401,25.98401 0,5.674667 3.210669,9.482669 8.064004,9.482669 4.554669,0 7.989337,-2.688002 12.245339,-9.856009 -0.896,3.061339 -1.045333,3.957339 -1.045333,5.002673 0,2.762668 2.240001,4.928002 5.002669,4.928002 3.509335,0 6.944003,-2.912001 11.274672,-9.408005 z m -11.349339,-19.48801 c 0,4.48 -2.464001,12.76801 -5.376003,17.92001 -2.016001,3.65867 -4.256002,5.600003 -6.272003,5.600003 -1.941334,0 -3.360001,-1.717334 -3.360001,-4.032003 0,-3.88267 2.464001,-11.34934 5.525336,-16.87467 2.240001,-3.95734 4.704002,-6.27201 6.720003,-6.12267 1.642667,0.14933 2.762668,1.49333 2.762668,3.50933 z"
           style="font-style:italic;font-weight:bold;font-size:74.6667px;font-family:'TeX Gyre Termes';-inkscape-font-specification:'TeX Gyre Termes Bold Italic'"
           id="path974" />
        <path
           d="m 101.21054,-103.28034 -1.642669,-1.04533 c -2.986668,4.405332 -4.480002,5.973333 -5.824003,5.973333 -0.597333,0 -1.12,-0.522667 -1.12,-1.120001 0,-1.045332 0.522667,-3.434672 1.642667,-7.466672 l 10.826675,-39.05068 c -6.42134,1.19466 -10.005341,1.71733 -15.605344,2.24 v 2.016 c 0.821334,-0.0747 1.194667,-0.0747 1.568001,-0.0747 2.016001,0 3.136001,0.74667 3.136001,2.09067 0,1.12 -0.970667,5.152 -2.464001,10.60267 l -5.600003,19.71201 c -1.568,5.6 -2.538667,10.080006 -2.538667,11.79734 0,2.688001 2.016001,4.480002 5.077335,4.480002 4.554669,0 7.392004,-2.314668 12.544008,-10.154672 z"
           style="font-style:italic;font-weight:bold;font-size:74.6667px;font-family:'TeX Gyre Termes';-inkscape-font-specification:'TeX Gyre Termes Bold Italic'"
           id="path976" />
        <path
           d="m 121.96787,-103.28034 -1.64267,-1.04533 c -2.98667,4.405332 -4.48,5.973333 -5.824,5.973333 -0.59733,0 -1.12,-0.522667 -1.12,-1.120001 0,-1.045332 0.52267,-3.434672 1.64267,-7.466672 l 10.82667,-39.05068 c -6.42134,1.19466 -10.00534,1.71733 -15.60534,2.24 v 2.016 c 0.82133,-0.0747 1.19467,-0.0747 1.568,-0.0747 2.016,0 3.136,0.74667 3.136,2.09067 0,1.12 -0.97067,5.152 -2.464,10.60267 l -5.6,19.71201 c -1.568,5.6 -2.53867,10.080006 -2.53867,11.79734 0,2.688001 2.016,4.480002 5.07733,4.480002 4.55467,0 7.39201,-2.314668 12.54401,-10.154672 z"
           style="font-style:italic;font-weight:bold;font-size:74.6667px;font-family:'TeX Gyre Termes';-inkscape-font-specification:'TeX Gyre Termes Bold Italic'"
           id="path978" />
        <path
           d="m 153.99988,-123.36568 c 0,-2.98667 -1.71733,-4.928 -4.256,-4.928 -3.808,0 -6.86934,3.73333 -12.76801,15.60534 l 4.92801,-15.60534 c -4.48001,1.12 -5.89867,1.344 -14.93334,2.09066 v 2.016 c 3.36,0.14934 4.032,0.448 4.032,1.86667 0,1.86667 -2.31467,10.60267 -7.61601,28.522682 h 9.03467 l 2.46401,-7.765342 c 2.24,-7.24267 3.36,-10.08 5.376,-13.51467 2.016,-3.584 3.808,-5.67467 4.85333,-5.67467 0.29867,0 0.74667,0.29867 1.19467,0.97067 1.12,1.26933 2.09067,1.86667 3.36,1.86667 2.464,0 4.33067,-2.31467 4.33067,-5.45067 z"
           style="font-style:italic;font-weight:bold;font-size:74.6667px;font-family:'TeX Gyre Termes';-inkscape-font-specification:'TeX Gyre Termes Bold Italic'"
           id="path980" />
        <path
           d="m 185.8078,-117.01901 c 0,-6.57067 -4.85334,-11.27467 -11.72267,-11.27467 -11.05068,0 -21.42935,11.872 -21.42935,24.41601 0,6.346666 5.00267,11.050669 11.87201,11.050669 11.12534,0 21.28001,-11.573339 21.28001,-24.192009 z m -13.51468,15.008 c -2.16533,4.778673 -4.40533,7.018674 -7.09333,7.018674 -2.24,0 -3.65867,-1.717334 -3.65867,-4.629335 0,-5.674669 2.61333,-16.202679 5.152,-20.906679 2.016,-3.73333 4.256,-5.6 6.72,-5.6 2.16534,0 3.50934,1.64267 3.50934,4.33067 0,5.00267 -2.16533,14.41067 -4.62934,19.78667 z"
           style="font-style:italic;font-weight:bold;font-size:74.6667px;font-family:'TeX Gyre Termes';-inkscape-font-specification:'TeX Gyre Termes Bold Italic'"
           id="path982" />
        <path
           d="m 223.141,-117.01901 c 0,-6.57067 -4.85333,-11.27467 -11.72267,-11.27467 -11.05067,0 -21.42934,11.872 -21.42934,24.41601 0,6.346666 5.00267,11.050669 11.872,11.050669 11.12534,0 21.28001,-11.573339 21.28001,-24.192009 z m -13.51467,15.008 c -2.16533,4.778673 -4.40533,7.018674 -7.09334,7.018674 -2.24,0 -3.65866,-1.717334 -3.65866,-4.629335 0,-5.674669 2.61333,-16.202679 5.152,-20.906679 2.016,-3.73333 4.256,-5.6 6.72,-5.6 2.16534,0 3.50934,1.64267 3.50934,4.33067 0,5.00267 -2.16534,14.41067 -4.62934,19.78667 z"
           style="font-style:italic;font-weight:bold;font-size:74.6667px;font-family:'TeX Gyre Termes';-inkscape-font-specification:'TeX Gyre Termes Bold Italic'"
           id="path984" />
        <path
           d="m 281.45555,-102.90701 -1.64266,-0.97066 c -0.29867,0.37333 -0.59734,0.82133 -0.896,1.344 -1.71734,2.762665 -3.28534,4.330666 -4.25601,4.330666 -0.672,0 -1.19466,-0.448 -1.19466,-1.045334 0,-0.821332 0,-0.821332 1.568,-5.824002 l 3.36,-9.93067 c 1.12,-3.21067 1.71733,-6.048 1.71733,-7.98934 0,-3.06133 -2.464,-5.30133 -5.74933,-5.30133 -5.07734,0 -8.58667,2.98666 -14.78401,12.84267 1.49333,-3.88267 1.94133,-5.67467 1.94133,-7.76534 0,-3.136 -1.86666,-5.07733 -5.00267,-5.07733 -2.09066,0 -4.33066,0.82133 -6.42133,2.53866 -2.76267,2.09067 -5.00267,4.85334 -9.85601,12.39468 l 4.77867,-14.85868 c -4.704,1.12 -6.496,1.344 -14.93334,2.016 v 2.016 c 1.94134,0 4.032,0.14934 4.032,1.86667 0,1.12 -0.59733,3.50934 -2.61333,10.75201 l -5.00267,17.770672 h 9.03467 c 3.95734,-14.112012 6.72,-20.458672 10.97601,-25.536012 1.64266,-1.94133 3.73333,-3.50934 4.85333,-3.50934 0.74667,0 1.344,0.74667 1.344,1.64267 0,1.26934 -0.896,4.40534 -3.36,11.94667 l -4.85333,15.456012 h 8.96 c 4.33067,-14.336012 4.85334,-15.680012 7.54134,-20.384012 3.136,-5.6 6.12267,-8.66134 8.36267,-8.66134 0.896,0 1.71733,0.74667 1.71733,1.56801 0,0.448 -0.224,1.26933 -0.52267,2.24 l -3.36,9.78133 c -1.64266,4.77867 -2.688,9.258675 -2.688,11.42401 0,3.061334 1.792,4.704002 5.00267,4.704002 4.62934,0 7.616,-2.464001 11.94667,-9.781342 z"
           style="font-style:italic;font-weight:bold;font-size:74.6667px;font-family:'TeX Gyre Termes';-inkscape-font-specification:'TeX Gyre Termes Bold Italic'"
           id="path986" />
        <path
           d="m 336.78358,-123.36568 c 0,-12.76801 -8.36267,-20.38401 -22.47467,-20.38401 h -21.65335 v 1.86667 l 2.31467,0.37333 c 2.38933,0.29867 3.136,0.97067 3.136,2.76267 0,0.74666 -0.224,1.94133 -0.896,4.40533 l -9.03467,33.30135 c -1.12,3.808003 -2.38933,4.928004 -5.97334,5.376004 v 1.866668 h 21.35468 c 19.11468,0 33.22668,-12.544002 33.22668,-29.568012 z m -10.976,-4.55467 c 0,8.288 -2.38934,17.02401 -6.272,22.77334 -4.10667,5.973339 -9.40801,8.810674 -16.65068,8.810674 -2.83733,0 -4.032,-0.746667 -4.032,-2.538668 0,-0.896001 0.224,-2.016006 0.896,-4.032006 l 0.0747,-0.29866 9.55733,-35.39202 c 0.52267,-2.09067 1.64267,-2.83733 4.10667,-2.83733 8.28801,0 12.32001,4.40533 12.32001,13.51467 z"
           style="font-style:italic;font-weight:bold;font-size:74.6667px;font-family:'TeX Gyre Termes';-inkscape-font-specification:'TeX Gyre Termes Bold Italic'"
           id="path988" />
        <path
           d="m 373.81809,-141.88302 v -1.86667 h -22.17601 v 1.86667 l 2.31467,0.37333 c 2.24,0.29867 3.136,1.04533 3.136,2.38933 0,0.82134 -0.29867,2.53867 -0.82133,4.55467 l -8.51201,32.25602 c -2.912,11.200003 -3.95733,13.216004 -6.72,13.216004 -1.41867,0 -2.016,-0.448 -2.016,-1.344001 0,-0.522667 0.14933,-0.896 0.74667,-1.568001 0.82133,-0.970667 0.97066,-1.418667 0.97066,-2.464001 0,-2.688001 -2.09067,-4.704002 -4.704,-4.704002 -2.688,0 -4.77867,2.240001 -4.77867,5.226669 0,4.405336 4.77867,7.541337 11.34934,7.541337 8.064,0 12.99201,-4.554669 15.60534,-14.336005 l 9.55734,-35.76535 c 1.26933,-3.95734 2.38933,-4.928 6.048,-5.376 z"
           style="font-style:italic;font-weight:bold;font-size:74.6667px;font-family:'TeX Gyre Termes';-inkscape-font-specification:'TeX Gyre Termes Bold Italic'"
           id="path990" />
      </g>
      <g
         aria-label="BallroomDJ"
         id="text819"
         style="font-size:40px;line-height:1.25;letter-spacing:0px;word-spacing:0px"
         inkscape:transform-center-x="-3.2772341"
         inkscape:transform-center-y="0.54679914">
        <path
           d="m 42.01333,-108.17901 c 0,-5.824 -2.613335,-8.66134 -10.229338,-11.12534 5.674669,-1.41867 7.989337,-2.464 10.602671,-4.62933 2.240001,-1.86667 3.509335,-4.85334 3.509335,-7.91467 0,-7.16801 -6.048003,-10.90134 -17.621341,-10.90134 H 7.9653135 v 1.86667 c 2.7626685,0.14933 3.4346685,0.29866 4.3306685,0.82133 0.597334,0.37333 1.120001,1.344 1.120001,2.24 0,0.74667 -0.298667,2.38933 -0.821334,4.256 l -9.1093376,33.52535 c -1.1946673,3.808003 -2.3893345,4.928004 -5.9733362,5.376004 v 1.866668 H 19.986653 c 13.664006,0 22.026677,-5.824003 22.026677,-15.381342 z m -11.424006,-1.71733 c 0,4.40533 -1.717334,9.03467 -4.405335,11.722669 -2.016001,2.016001 -4.554669,2.986668 -7.840004,2.986668 -2.912001,0 -4.256002,-0.746667 -4.256002,-2.464001 0,-0.597334 0.07467,-1.120001 0.373334,-2.165334 l 4.928002,-18.218672 c 4.853336,0.14933 7.01867,0.59733 8.586671,1.792 1.717334,1.344 2.613334,3.584 2.613334,6.34667 z m 4.330669,-22.92268 c 0,4.77867 -1.568001,8.36267 -4.554669,10.304 -2.314668,1.49334 -4.853335,2.01601 -10.378671,2.24001 l 4.554668,-16.80001 c 0.746667,-2.688 1.493334,-3.28534 3.882669,-3.28534 4.330669,0 6.496003,2.53867 6.496003,7.54134 z"
           style="font-style:italic;font-weight:bold;font-size:74.6667px;font-family:'TeX Gyre Termes';-inkscape-font-specification:'TeX Gyre Termes Bold Italic'"
           id="path933" />
        <path
           d="m 83.080003,-101.16034 -1.568001,-1.12 c -3.061335,4.106669 -4.181335,5.22667 -5.376003,5.22667 -0.597333,0 -0.896,-0.448001 -0.896,-1.120001 0,-1.866669 0.672,-4.927999 2.538668,-11.050669 l 5.301336,-17.62134 -8.288004,0.52266 -1.344001,4.40534 c -0.672,-3.808 -2.314668,-5.376 -5.525336,-5.376 -9.184004,0 -20.38401,14.336 -20.38401,25.98401 0,5.674667 3.210669,9.482669 8.064004,9.482669 4.554669,0 7.989337,-2.688002 12.245339,-9.856009 -0.896,3.061339 -1.045333,3.957339 -1.045333,5.002673 0,2.762668 2.240001,4.928002 5.002669,4.928002 3.509335,0 6.944003,-2.912001 11.274672,-9.408005 z m -11.349339,-19.48801 c 0,4.48 -2.464001,12.76801 -5.376003,17.92001 -2.016001,3.658669 -4.256002,5.600003 -6.272003,5.600003 -1.941334,0 -3.360001,-1.717334 -3.360001,-4.032003 0,-3.88267 2.464001,-11.34934 5.525336,-16.87467 2.240001,-3.95734 4.704002,-6.27201 6.720003,-6.12267 1.642667,0.14933 2.762668,1.49333 2.762668,3.50933 z"
           style="font-style:italic;font-weight:bold;font-size:74.6667px;font-family:'TeX Gyre Termes';-inkscape-font-specification:'TeX Gyre Termes Bold Italic'"
           id="path935" />
        <path
           d="m 104.21054,-102.28034 -1.64267,-1.04533 c -2.986667,4.405332 -4.480001,5.973333 -5.824002,5.973333 -0.597333,0 -1.12,-0.522667 -1.12,-1.120001 0,-1.045334 0.522667,-3.434672 1.642667,-7.466672 l 10.826675,-39.05068 c -6.42134,1.19466 -10.005341,1.71733 -15.605344,2.24 v 2.016 c 0.821334,-0.0747 1.194667,-0.0747 1.568001,-0.0747 2.016001,0 3.136001,0.74667 3.136001,2.09067 0,1.12 -0.970667,5.152 -2.464001,10.60267 l -5.600003,19.71201 c -1.568,5.6 -2.538667,10.080006 -2.538667,11.79734 0,2.688001 2.016001,4.480002 5.077335,4.480002 4.554669,0 7.392004,-2.314668 12.544008,-10.154672 z"
           style="font-style:italic;font-weight:bold;font-size:74.6667px;font-family:'TeX Gyre Termes';-inkscape-font-specification:'TeX Gyre Termes Bold Italic'"
           id="path937" />
        <path
           d="m 124.96787,-102.28034 -1.64267,-1.04533 c -2.98667,4.405332 -4.48,5.973333 -5.824,5.973333 -0.59733,0 -1.12,-0.522667 -1.12,-1.120001 0,-1.045334 0.52267,-3.434672 1.64267,-7.466672 l 10.82667,-39.05068 c -6.42134,1.19466 -10.00534,1.71733 -15.60534,2.24 v 2.016 c 0.82133,-0.0747 1.19467,-0.0747 1.568,-0.0747 2.016,0 3.136,0.74667 3.136,2.09067 0,1.12 -0.97067,5.152 -2.464,10.60267 l -5.6,19.71201 c -1.568,5.6 -2.53867,10.080006 -2.53867,11.79734 0,2.688001 2.016,4.480002 5.07733,4.480002 4.55467,0 7.39201,-2.314668 12.54401,-10.154672 z"
           style="font-style:italic;font-weight:bold;font-size:74.6667px;font-family:'TeX Gyre Termes';-inkscape-font-specification:'TeX Gyre Termes Bold Italic'"
           id="path939" />
        <path
           d="m 156.99988,-122.36568 c 0,-2.98667 -1.71733,-4.928 -4.256,-4.928 -3.808,0 -6.86934,3.73333 -12.76801,15.60534 l 4.92801,-15.60534 c -4.48001,1.12 -5.89867,1.344 -14.93334,2.09066 v 2.016 c 3.36,0.14934 4.032,0.448 4.032,1.86667 0,1.86667 -2.31467,10.60267 -7.61601,28.522682 h 9.03467 l 2.46401,-7.765342 c 2.24,-7.24267 3.36,-10.08 5.376,-13.51467 2.016,-3.584 3.808,-5.67467 4.85333,-5.67467 0.29867,0 0.74667,0.29867 1.19467,0.97067 1.12,1.26933 2.09067,1.86667 3.36,1.86667 2.464,0 4.33067,-2.31467 4.33067,-5.45067 z"
           style="font-style:italic;font-weight:bold;font-size:74.6667px;font-family:'TeX Gyre Termes';-inkscape-font-specification:'TeX Gyre Termes Bold Italic'"
           id="path941" />
        <path
           d="m 188.8078,-116.01901 c 0,-6.57067 -4.85334,-11.27467 -11.72267,-11.27467 -11.05068,0 -21.42935,11.872 -21.42935,24.41601 0,6.346666 5.00267,11.050669 11.87201,11.050669 11.12534,0 21.28001,-11.573339 21.28001,-24.192009 z m -13.51468,15.008 c -2.16533,4.778673 -4.40533,7.018674 -7.09333,7.018674 -2.24,0 -3.65867,-1.717334 -3.65867,-4.629335 0,-5.674669 2.61333,-16.202679 5.152,-20.906679 2.016,-3.73333 4.256,-5.6 6.72,-5.6 2.16534,0 3.50934,1.64267 3.50934,4.33067 0,5.00267 -2.16533,14.41067 -4.62934,19.78667 z"
           style="font-style:italic;font-weight:bold;font-size:74.6667px;font-family:'TeX Gyre Termes';-inkscape-font-specification:'TeX Gyre Termes Bold Italic'"
           id="path943" />
        <path
           d="m 226.141,-116.01901 c 0,-6.57067 -4.85333,-11.27467 -11.72267,-11.27467 -11.05067,0 -21.42934,11.872 -21.42934,24.41601 0,6.346666 5.00267,11.050669 11.872,11.050669 11.12534,0 21.28001,-11.573339 21.28001,-24.192009 z m -13.51467,15.008 c -2.16533,4.778673 -4.40533,7.018674 -7.09334,7.018674 -2.24,0 -3.65866,-1.717334 -3.65866,-4.629335 0,-5.674669 2.61333,-16.202679 5.152,-20.906679 2.016,-3.73333 4.256,-5.6 6.72,-5.6 2.16534,0 3.50934,1.64267 3.50934,4.33067 0,5.00267 -2.16534,14.41067 -4.62934,19.78667 z"
           style="font-style:italic;font-weight:bold;font-size:74.6667px;font-family:'TeX Gyre Termes';-inkscape-font-specification:'TeX Gyre Termes Bold Italic'"
           id="path945" />
        <path
           d="m 284.45555,-101.90701 -1.64266,-0.97066 c -0.29867,0.37333 -0.59734,0.82133 -0.896,1.344 -1.71734,2.762665 -3.28534,4.330666 -4.25601,4.330666 -0.672,0 -1.19466,-0.448 -1.19466,-1.045334 0,-0.821333 0,-0.821333 1.568,-5.824002 l 3.36,-9.93067 c 1.12,-3.21067 1.71733,-6.048 1.71733,-7.98934 0,-3.06133 -2.464,-5.30133 -5.74933,-5.30133 -5.07734,0 -8.58667,2.98666 -14.78401,12.84267 1.49333,-3.88267 1.94133,-5.67467 1.94133,-7.76534 0,-3.136 -1.86666,-5.07733 -5.00267,-5.07733 -2.09066,0 -4.33066,0.82133 -6.42133,2.53866 -2.76267,2.09067 -5.00267,4.85334 -9.85601,12.39468 l 4.77867,-14.85868 c -4.704,1.12 -6.496,1.344 -14.93334,2.016 v 2.016 c 1.94134,0 4.032,0.14934 4.032,1.86667 0,1.12 -0.59733,3.50934 -2.61333,10.75201 l -5.00267,17.770672 h 9.03467 c 3.95734,-14.112012 6.72,-20.458672 10.97601,-25.536012 1.64266,-1.94133 3.73333,-3.50934 4.85333,-3.50934 0.74667,0 1.344,0.74667 1.344,1.64267 0,1.26934 -0.896,4.40534 -3.36,11.94667 l -4.85333,15.456012 h 8.96 c 4.33067,-14.336012 4.85334,-15.680012 7.54134,-20.384012 3.136,-5.6 6.12267,-8.66134 8.36267,-8.66134 0.896,0 1.71733,0.74667 1.71733,1.56801 0,0.448 -0.224,1.26933 -0.52267,2.24 l -3.36,9.78133 c -1.64266,4.77867 -2.688,9.258675 -2.688,11.42401 0,3.061334 1.792,4.704002 5.00267,4.704002 4.62934,0 7.616,-2.464001 11.94667,-9.781342 z"
           style="font-style:italic;font-weight:bold;font-size:74.6667px;font-family:'TeX Gyre Termes';-inkscape-font-specification:'TeX Gyre Termes Bold Italic'"
           id="path947" />
        <path
           d="m 339.78358,-122.36568 c 0,-12.76801 -8.36267,-20.38401 -22.47467,-20.38401 h -21.65335 v 1.86667 l 2.31467,0.37333 c 2.38933,0.29867 3.136,0.97067 3.136,2.76267 0,0.74666 -0.224,1.94133 -0.896,4.40533 l -9.03467,33.30135 c -1.12,3.808003 -2.38933,4.928004 -5.97334,5.376004 v 1.866668 h 21.35468 c 19.11468,0 33.22668,-12.544002 33.22668,-29.568012 z m -10.976,-4.55467 c 0,8.288 -2.38934,17.02401 -6.272,22.77334 -4.10667,5.973339 -9.40801,8.810674 -16.65068,8.810674 -2.83733,0 -4.032,-0.746667 -4.032,-2.538668 0,-0.896001 0.224,-2.016001 0.896,-4.032006 l 0.0747,-0.29866 9.55733,-35.39202 c 0.52267,-2.09067 1.64267,-2.83733 4.10667,-2.83733 8.28801,0 12.32001,4.40533 12.32001,13.51467 z"
           style="font-style:italic;font-weight:bold;font-size:74.6667px;font-family:'TeX Gyre Termes';-inkscape-font-specification:'TeX Gyre Termes Bold Italic'"
           id="path949" />
        <path
           d="m 376.81809,-140.88302 v -1.86667 h -22.17601 v 1.86667 l 2.31467,0.37333 c 2.24,0.29867 3.136,1.04533 3.136,2.38933 0,0.82134 -0.29867,2.53867 -0.82133,4.55467 l -8.51201,32.25602 c -2.912,11.200003 -3.95733,13.216004 -6.72,13.216004 -1.41867,0 -2.016,-0.448 -2.016,-1.344001 0,-0.522667 0.14933,-0.896 0.74667,-1.568001 0.82133,-0.970667 0.97066,-1.418667 0.97066,-2.464001 0,-2.688001 -2.09067,-4.704002 -4.704,-4.704002 -2.688,0 -4.77867,2.240001 -4.77867,5.226669 0,4.405336 4.77867,7.541337 11.34934,7.541337 8.064,0 12.99201,-4.554669 15.60534,-14.336007 l 9.55734,-35.765348 c 1.26933,-3.95734 2.38933,-4.928 6.048,-5.376 z"
           style="font-style:italic;font-weight:bold;font-size:74.6667px;font-family:'TeX Gyre Termes';-inkscape-font-specification:'TeX Gyre Termes Bold Italic'"
           id="path951" />
      </g>
    </g>
  </g>
  <g
     aria-label="The Ballroom Music Player"
     id="text849"
     style="font-size:40px;line-height:1.25;letter-spacing:0px;word-spacing:0px;fill:#303030">
    <path
       d="M 25.040019,86.58091 26.00002,81.460904 H 11.306668 l -1.013334,4.560005 0.666667,0.186667 c 1.386669,-2.66667 3.066671,-3.760004 5.786674,-3.813338 l -3.946671,14.320018 c -0.373334,1.386669 -1.066668,1.920003 -2.42667,1.920003 H 10 v 0.666667 h 8.826678 v -0.666667 c -1.893336,-0.08 -2.213336,-0.240001 -2.213336,-1.093335 0,-0.400001 0.106667,-0.933335 0.293333,-1.653335 l 3.733339,-13.493351 c 2.506669,0.02667 3.546671,1.173335 3.680004,4.133339 z"
       style="font-style:italic;font-weight:bold;font-size:26.6667px;font-family:'TeX Gyre Termes';-inkscape-font-specification:'TeX Gyre Termes Bold Italic'"
       id="path870" />
    <path
       d="m 38.239986,95.914255 -0.586667,-0.4 c -1.146668,1.653335 -1.653336,2.213336 -2.000003,2.213336 -0.213333,0 -0.453334,-0.24 -0.453334,-0.426667 0,-0.08 0,-0.106667 0.08,-0.320001 l 1.546668,-4.746672 c 0.533334,-1.653336 0.800001,-2.746671 0.800001,-3.253338 0,-1.253335 -0.773334,-2.000002 -2.026669,-2.000002 -1.813336,0 -3.013337,1.013334 -5.653341,4.773339 l 2.853337,-11.093347 c -2.053336,0.4 -3.386671,0.613334 -5.546673,0.800001 v 0.720001 l 0.586667,-0.02667 c 0.746668,0 1.093335,0.293334 1.093335,0.906668 0,0.24 -0.05333,0.533334 -0.213334,1.120001 l -4.106672,15.120019 h 3.226671 c 1.360002,-4.666672 1.866669,-5.973341 3.173338,-7.893343 1.146668,-1.680002 2.053335,-2.50667 2.773336,-2.50667 0.320001,0 0.586668,0.266667 0.586668,0.560001 0,0.266667 -0.453334,1.573335 -0.720001,2.373336 -1.306668,3.840005 -1.626669,5.066673 -1.626669,6.160008 0,0.906668 0.720001,1.546669 1.760002,1.546669 1.626669,0 2.693337,-0.880002 4.453339,-3.626672 z"
       style="font-style:italic;font-weight:bold;font-size:26.6667px;font-family:'TeX Gyre Termes';-inkscape-font-specification:'TeX Gyre Termes Bold Italic'"
       id="path872" />
    <path
       d="m 49.013327,95.967589 -0.773334,-0.453334 c -1.226668,1.840002 -2.000003,2.426669 -3.146671,2.426669 -1.120001,0 -1.706669,-0.746667 -1.706669,-2.186669 0,-0.426667 0.05333,-0.773334 0.160001,-1.306668 2.773336,-0.533334 4.080005,-1.120002 5.41334,-2.34667 0.933334,-0.853334 1.440001,-1.840002 1.440001,-2.800003 0,-1.360002 -1.173334,-2.320003 -2.800003,-2.320003 -3.866672,0 -7.68001,4.346672 -7.68001,8.746677 0,2.26667 1.706669,3.920005 4.026672,3.920005 2.053336,0 3.466671,-1.040001 5.066673,-3.680004 z M 47.946659,88.76758 c 0,1.173334 -0.453334,2.320002 -1.306668,3.200004 -0.720001,0.773334 -1.386669,1.146668 -2.906671,1.626668 0.960002,-3.706671 2.18667,-5.73334 3.466671,-5.73334 0.506668,0 0.746668,0.293333 0.746668,0.906668 z"
       style="font-style:italic;font-weight:bold;font-size:26.6667px;font-family:'TeX Gyre Termes';-inkscape-font-specification:'TeX Gyre Termes Bold Italic'"
       id="path874" />
    <path
       d="m 73.546597,93.807586 c 0,-2.080003 -0.933335,-3.093337 -3.653338,-3.973338 2.026669,-0.506668 2.853337,-0.880002 3.786671,-1.653336 0.800001,-0.666667 1.253335,-1.733335 1.253335,-2.82667 0,-2.560003 -2.160002,-3.893338 -6.293341,-3.893338 h -7.253342 v 0.666667 c 0.986668,0.05333 1.226668,0.106667 1.546668,0.293334 0.213334,0.133333 0.400001,0.48 0.400001,0.800001 0,0.266667 -0.106667,0.853334 -0.293334,1.520002 L 59.78658,96.714256 c -0.426668,1.360002 -0.853335,1.760002 -2.133336,1.920003 v 0.666667 h 8.026676 c 4.880007,0 7.866677,-2.080002 7.866677,-5.49334 z m -4.080005,-0.613334 c 0,1.573335 -0.613334,3.226671 -1.573336,4.186672 -0.72,0.720001 -1.626668,1.066668 -2.800003,1.066668 -1.040001,0 -1.520002,-0.266667 -1.520002,-0.880001 0,-0.213334 0.02667,-0.400001 0.133334,-0.773335 l 1.760002,-6.506675 c 1.733335,0.05333 2.50667,0.213334 3.06667,0.640001 0.613334,0.480001 0.933335,1.280002 0.933335,2.26667 z m 1.546668,-8.186677 c 0,1.706669 -0.56,2.98667 -1.626668,3.680004 -0.826668,0.533334 -1.733336,0.720001 -3.706672,0.800001 l 1.626669,-6.000007 c 0.266667,-0.960001 0.533334,-1.173335 1.386669,-1.173335 1.546668,0 2.320002,0.906668 2.320002,2.693337 z"
       style="font-style:italic;font-weight:bold;font-size:26.6667px;font-family:'TeX Gyre Termes';-inkscape-font-specification:'TeX Gyre Termes Bold Italic'"
       id="path876" />
    <path
       d="m 88.213275,96.314256 -0.560001,-0.400001 c -1.093334,1.466669 -1.493335,1.866669 -1.920002,1.866669 -0.213334,0 -0.32,-0.16 -0.32,-0.4 0,-0.666668 0.24,-1.760002 0.906667,-3.946672 l 1.893336,-6.293341 -2.960004,0.186667 -0.48,1.573335 c -0.24,-1.360002 -0.826668,-1.920002 -1.973336,-1.920002 -3.280004,0 -7.280009,5.120006 -7.280009,9.280011 0,2.02667 1.146668,3.386671 2.880003,3.386671 1.626669,0 2.853337,-0.960001 4.373339,-3.520004 -0.32,1.093335 -0.373334,1.413335 -0.373334,1.786669 0,0.986668 0.800001,1.760002 1.786669,1.760002 1.253335,0 2.480004,-1.040001 4.026672,-3.360004 z m -4.053338,-6.960009 c 0,1.600002 -0.880001,4.560006 -1.920003,6.400008 -0.720001,1.306668 -1.520002,2.000003 -2.240003,2.000003 -0.693334,0 -1.200001,-0.613335 -1.200001,-1.440002 0,-1.386669 0.880001,-4.053339 1.973336,-6.026675 0.800001,-1.413335 1.680002,-2.240002 2.400003,-2.186669 0.586667,0.05333 0.986668,0.533334 0.986668,1.253335 z"
       style="font-style:italic;font-weight:bold;font-size:26.6667px;font-family:'TeX Gyre Termes';-inkscape-font-specification:'TeX Gyre Termes Bold Italic'"
       id="path878" />
    <path
       d="m 95.759899,95.914255 -0.586668,-0.373334 c -1.066668,1.573336 -1.600002,2.133336 -2.080002,2.133336 -0.213334,0 -0.400001,-0.186666 -0.400001,-0.4 0,-0.373334 0.186667,-1.226668 0.586668,-2.66667 l 3.866671,-13.946684 c -2.293336,0.426667 -3.573338,0.613334 -5.57334,0.800001 v 0.720001 c 0.293334,-0.02667 0.426667,-0.02667 0.560001,-0.02667 0.720001,0 1.120001,0.266667 1.120001,0.746667 0,0.400001 -0.346667,1.840003 -0.880001,3.786672 l -2.000003,7.040009 c -0.56,2.000002 -0.906667,3.600004 -0.906667,4.213338 0,0.960002 0.720001,1.600003 1.813335,1.600003 1.626669,0 2.640004,-0.826668 4.480006,-3.626672 z"
       style="font-style:italic;font-weight:bold;font-size:26.6667px;font-family:'TeX Gyre Termes';-inkscape-font-specification:'TeX Gyre Termes Bold Italic'"
       id="path880" />
    <path
       d="m 103.17324,95.914255 -0.58666,-0.373334 c -1.06667,1.573336 -1.60001,2.133336 -2.08001,2.133336 -0.21333,0 -0.4,-0.186666 -0.4,-0.4 0,-0.373334 0.18667,-1.226668 0.58667,-2.66667 l 3.86667,-13.946684 c -2.29333,0.426667 -3.57334,0.613334 -5.573338,0.800001 v 0.720001 c 0.293334,-0.02667 0.426667,-0.02667 0.560001,-0.02667 0.719997,0 1.119997,0.266667 1.119997,0.746667 0,0.400001 -0.34666,1.840003 -0.879997,3.786672 l -2.000002,7.040009 c -0.560001,2.000002 -0.906668,3.600004 -0.906668,4.213338 0,0.960002 0.720001,1.600003 1.813336,1.600003 1.626671,0 2.640001,-0.826668 4.480001,-3.626672 z"
       style="font-style:italic;font-weight:bold;font-size:26.6667px;font-family:'TeX Gyre Termes';-inkscape-font-specification:'TeX Gyre Termes Bold Italic'"
       id="path882" />
    <path
       d="m 114.61325,88.740913 c 0,-1.066668 -0.61333,-1.760002 -1.52,-1.760002 -1.36,0 -2.45333,1.333335 -4.56,5.57334 l 1.76,-5.57334 c -1.6,0.4 -2.10667,0.48 -5.33334,0.746667 v 0.720001 c 1.2,0.05333 1.44,0.16 1.44,0.666668 0,0.666667 -0.82667,3.786671 -2.72,10.186679 h 3.22667 l 0.88,-2.773337 c 0.8,-2.58667 1.2,-3.600004 1.92,-4.826672 0.72,-1.280002 1.36,-2.02667 1.73334,-2.02667 0.10666,0 0.26666,0.106667 0.42666,0.346667 0.4,0.453334 0.74667,0.666668 1.20001,0.666668 0.88,0 1.54666,-0.826668 1.54666,-1.946669 z"
       style="font-style:italic;font-weight:bold;font-size:26.6667px;font-family:'TeX Gyre Termes';-inkscape-font-specification:'TeX Gyre Termes Bold Italic'"
       id="path884" />
    <path
       d="m 125.97323,91.007582 c 0,-2.346669 -1.73333,-4.026671 -4.18667,-4.026671 -3.94667,0 -7.65334,4.240005 -7.65334,8.720011 0,2.266669 1.78667,3.946671 4.24,3.946671 3.97334,0 7.60001,-4.133338 7.60001,-8.640011 z m -4.82667,5.360007 c -0.77333,1.706669 -1.57333,2.50667 -2.53333,2.50667 -0.80001,0 -1.30667,-0.613334 -1.30667,-1.653335 0,-2.02667 0.93333,-5.786674 1.84,-7.466677 0.72,-1.333335 1.52,-2.000002 2.4,-2.000002 0.77334,0 1.25334,0.586667 1.25334,1.546669 0,1.786668 -0.77334,5.146673 -1.65334,7.066675 z"
       style="font-style:italic;font-weight:bold;font-size:26.6667px;font-family:'TeX Gyre Termes';-inkscape-font-specification:'TeX Gyre Termes Bold Italic'"
       id="path886" />
    <path
       d="m 139.30653,91.007582 c 0,-2.346669 -1.73333,-4.026671 -4.18667,-4.026671 -3.94667,0 -7.65334,4.240005 -7.65334,8.720011 0,2.266669 1.78667,3.946671 4.24,3.946671 3.97334,0 7.60001,-4.133338 7.60001,-8.640011 z m -4.82667,5.360007 c -0.77333,1.706669 -1.57334,2.50667 -2.53334,2.50667 -0.8,0 -1.30667,-0.613334 -1.30667,-1.653335 0,-2.02667 0.93334,-5.786674 1.84001,-7.466677 0.72,-1.333335 1.52,-2.000002 2.4,-2.000002 0.77333,0 1.25333,0.586667 1.25333,1.546669 0,1.786668 -0.77333,5.146673 -1.65333,7.066675 z"
       style="font-style:italic;font-weight:bold;font-size:26.6667px;font-family:'TeX Gyre Termes';-inkscape-font-specification:'TeX Gyre Termes Bold Italic'"
       id="path888" />
    <path
       d="m 160.13317,96.047589 -0.58666,-0.346667 c -0.10667,0.133333 -0.21334,0.293333 -0.32001,0.48 -0.61333,0.986668 -1.17333,1.546669 -1.52,1.546669 -0.24,0 -0.42666,-0.16 -0.42666,-0.373334 0,-0.293334 0,-0.293334 0.56,-2.080003 l 1.2,-3.546671 c 0.4,-1.146668 0.61333,-2.160002 0.61333,-2.853337 0,-1.093334 -0.88,-1.893335 -2.05333,-1.893335 -1.81334,0 -3.06667,1.066668 -5.28001,4.586672 0.53333,-1.386668 0.69333,-2.026669 0.69333,-2.773337 0,-1.120001 -0.66666,-1.813335 -1.78667,-1.813335 -0.74666,0 -1.54666,0.293333 -2.29333,0.906667 -0.98667,0.746668 -1.78667,1.733336 -3.52001,4.426673 l 1.70667,-5.306674 c -1.68,0.400001 -2.32,0.480001 -5.33334,0.720001 v 0.720001 c 0.69334,0 1.44,0.05333 1.44,0.666668 0,0.4 -0.21333,1.253335 -0.93333,3.840005 l -1.78667,6.346674 h 3.22667 c 1.41334,-5.040006 2.40001,-7.306676 3.92001,-9.120011 0.58666,-0.693335 1.33333,-1.253335 1.73333,-1.253335 0.26667,0 0.48,0.266667 0.48,0.586667 0,0.453334 -0.32,1.573335 -1.2,4.266672 l -1.73333,5.520007 h 3.2 c 1.54667,-5.120006 1.73334,-5.600007 2.69334,-7.280009 1.12,-2.000003 2.18667,-3.093337 2.98667,-3.093337 0.32,0 0.61333,0.266667 0.61333,0.56 0,0.160001 -0.08,0.453334 -0.18667,0.800001 l -1.2,3.493338 c -0.58666,1.706669 -0.96,3.306671 -0.96,4.080005 0,1.093335 0.64,1.680003 1.78667,1.680003 1.65334,0 2.72,-0.880002 4.26667,-3.493338 z"
       style="font-style:italic;font-weight:bold;font-size:26.6667px;font-family:'TeX Gyre Termes';-inkscape-font-specification:'TeX Gyre Termes Bold Italic'"
       id="path890" />
    <path
       d="m 188.95982,99.300926 v -0.666667 c -1.54667,-0.08 -1.92,-0.293334 -1.92,-1.146668 0,-0.480001 0.08,-0.986668 0.26667,-1.466669 l 3.28,-11.973348 c 0.4,-1.386669 0.8,-1.760003 2.16,-1.920003 v -0.666667 h -5.65334 l -8.26667,12.800016 -1.44001,-12.800016 h -5.89334 v 0.666667 c 1.68001,0.08 1.92001,0.186667 1.92001,0.933335 0,0.373333 -0.10667,0.853334 -0.29334,1.546668 l -2.90667,9.94668 c -1.06667,3.466671 -1.25333,3.760004 -2.69333,4.080005 v 0.666667 h 5.52 v -0.666667 c -1.70667,-0.213334 -2.13333,-0.533334 -2.13333,-1.626669 0,-0.453334 0.13333,-1.120001 0.50666,-2.453336 l 2.69334,-9.840013 1.78667,14.906686 h 0.74667 l 10.00001,-15.28002 -3.33334,12.373349 c -0.42666,1.440002 -0.93333,1.813336 -2.66667,1.920003 v 0.666667 z"
       style="font-style:italic;font-weight:bold;font-size:26.6667px;font-family:'TeX Gyre Termes';-inkscape-font-specification:'TeX Gyre Termes Bold Italic'"
       id="path892" />
    <path
       d="m 205.11984,96.100922 -0.56,-0.346667 c -0.93333,1.440002 -1.46667,1.973336 -1.92,1.973336 -0.21333,0 -0.37333,-0.186667 -0.37333,-0.453334 0,-0.32 0.29333,-1.600002 0.66666,-2.800004 l 2.08001,-7.146675 h -3.14668 c -1.49333,5.146673 -2.24,6.906675 -3.78667,8.826678 -0.82666,1.013334 -1.41333,1.466668 -1.94667,1.466668 -0.37333,0 -0.56,-0.213334 -0.56,-0.666667 0,-0.400001 0.0267,-0.560001 0.4,-1.760003 l 2.50667,-8.213343 c -0.16,0.02667 -0.34666,0.05333 -0.74666,0.133333 -1.97334,0.346667 -3.54668,0.560001 -4.82668,0.613334 v 0.720001 c 1.22667,0.08 1.49334,0.213334 1.49334,0.746668 0,0.426667 -0.13333,1.173335 -0.37334,1.946669 l -1.06666,3.546671 c -0.37334,1.333335 -0.56,2.213336 -0.56,2.880004 0,1.306668 0.66666,1.973336 2,1.973336 1.78667,0 2.58667,-0.693335 5.33334,-4.53334 -0.48,1.466669 -0.64,2.160003 -0.64,2.933337 0,1.093335 0.56,1.600003 1.73333,1.600003 1.60001,0 2.90667,-1.066669 4.29334,-3.440005 z"
       style="font-style:italic;font-weight:bold;font-size:26.6667px;font-family:'TeX Gyre Termes';-inkscape-font-specification:'TeX Gyre Termes Bold Italic'"
       id="path894" />
    <path
       d="m 214.26651,96.127589 c 0,-1.200002 -0.66667,-2.50667 -2.16,-4.240005 -1.04,-1.200002 -1.49334,-2.000003 -1.49334,-2.613337 0,-0.853335 0.56,-1.413335 1.41334,-1.413335 1.22667,0 1.92,0.960001 2.34667,3.173337 l 0.72,0.05333 0.61333,-4.080005 h -0.77333 c -0.29334,0.506668 -0.37334,0.560001 -0.77334,0.560001 -0.26666,0 -0.48,-0.05333 -0.96,-0.24 -0.66667,-0.266667 -1.01333,-0.346667 -1.54667,-0.346667 -2.16,0 -3.57333,1.306668 -3.57333,3.360004 0,1.440002 0.37333,2.186669 2.13333,4.293339 1.01334,1.200001 1.49334,2.106669 1.49334,2.773336 0,0.800001 -0.66667,1.440002 -1.52,1.440002 -1.36001,0 -2.21334,-1.173335 -2.56001,-3.546671 l -0.72,-0.08 -0.58667,4.426672 h 0.72 c 0.10667,-0.32 0.42667,-0.533334 0.77334,-0.533334 0.18667,0 0.48,0.08 0.82667,0.213334 0.64,0.213334 1.12,0.32 1.68,0.32 2.26667,0 3.94667,-1.520002 3.94667,-3.520004 z"
       style="font-style:italic;font-weight:bold;font-size:26.6667px;font-family:'TeX Gyre Termes';-inkscape-font-specification:'TeX Gyre Termes Bold Italic'"
       id="path896" />
    <path
       d="m 223.54653,95.914255 -0.58667,-0.373334 -0.37333,0.533334 c -0.69334,1.040002 -1.30667,1.600002 -1.70667,1.600002 -0.21334,0 -0.4,-0.186666 -0.4,-0.4 0,-0.24 0.13333,-0.933335 0.24,-1.386668 l 2.42667,-8.906678 c -1.44,0.32 -3.30667,0.586667 -5.38668,0.746667 v 0.720001 h 0.34667 c 0.8,0 1.22667,0.266667 1.22667,0.773334 0,0.213334 -0.08,0.613335 -0.18667,1.066668 l -1.54667,5.733341 c -0.21333,0.773334 -0.34666,1.466669 -0.34666,1.840002 0,1.013335 0.74666,1.680003 1.84,1.680003 1.6,0 2.58667,-0.800001 4.45334,-3.626672 z m 0.74667,-12.346682 c 0,-0.986668 -0.82667,-1.813336 -1.84001,-1.813336 -0.93333,0 -1.76,0.826668 -1.76,1.760003 0,1.040001 0.77334,1.840002 1.76,1.840002 1.01334,0 1.84001,-0.800001 1.84001,-1.786669 z"
       style="font-style:italic;font-weight:bold;font-size:26.6667px;font-family:'TeX Gyre Termes';-inkscape-font-specification:'TeX Gyre Termes Bold Italic'"
       id="path898" />
    <path
       d="m 233.83986,96.020922 -0.74667,-0.480001 c -1.28,1.786669 -2.10667,2.400003 -3.25333,2.400003 -1.17334,0 -1.94667,-0.960001 -1.94667,-2.373336 0,-1.680002 0.69333,-4.080005 1.65333,-5.813341 0.72,-1.253334 1.46667,-1.893335 2.29334,-1.893335 0.32,0 0.58667,0.186667 0.58667,0.453334 0,0.106666 -0.0533,0.266667 -0.21334,0.506667 -0.24,0.426667 -0.34666,0.720001 -0.34666,1.040001 0,0.800001 0.64,1.386669 1.54666,1.386669 0.98667,0 1.65334,-0.746668 1.65334,-1.866669 0,-1.413335 -1.2,-2.400003 -2.98667,-2.400003 -3.76001,0 -7.60001,4.373339 -7.60001,8.640011 0,2.373336 1.65333,4.026671 4.08,4.026671 1.17334,0 2.32001,-0.426667 3.22668,-1.200001 0.69333,-0.586668 1.12,-1.093335 2.05333,-2.42667 z"
       style="font-style:italic;font-weight:bold;font-size:26.6667px;font-family:'TeX Gyre Termes';-inkscape-font-specification:'TeX Gyre Termes Bold Italic'"
       id="path900" />
    <path
       d="m 259.46646,85.594242 c 0,-2.693337 -1.97333,-4.133338 -5.68001,-4.133338 h -7.65334 v 0.666667 l 0.82667,0.106667 c 0.82667,0.106667 1.12,0.346667 1.12,0.880001 0,0.400001 -0.10667,1.013335 -0.26667,1.626669 l -3.28,11.973348 c -0.42667,1.413335 -0.74667,1.706669 -2.13334,1.920003 v 0.666667 h 7.84001 v -0.666667 c -1.49333,-0.08 -1.92,-0.320001 -1.92,-1.040002 0,-0.266667 0.13333,-1.120001 0.26667,-1.573335 l 1.44,-5.306673 c 0.93333,0.106666 1.44,0.133333 2.16,0.133333 4.42668,0 7.28001,-2.053336 7.28001,-5.25334 z m -4.48,2.080003 c -0.69334,1.626669 -1.68001,2.240003 -3.57334,2.240003 -0.34667,0 -0.66667,-0.02667 -1.12,-0.05333 l 1.70667,-6.373341 c 0.18666,-0.640001 0.18666,-0.640001 0.29333,-0.800001 0.24,-0.266667 0.53333,-0.373334 1.04,-0.373334 1.41334,0 2.24,0.880001 2.24,2.42667 0,0.933334 -0.24,2.106669 -0.58666,2.933337 z"
       style="font-style:italic;font-weight:bold;font-size:26.6667px;font-family:'TeX Gyre Termes';-inkscape-font-specification:'TeX Gyre Termes Bold Italic'"
       id="path902" />
    <path
       d="m 265.75975,95.914255 -0.58666,-0.373334 c -1.06667,1.573336 -1.60001,2.133336 -2.08001,2.133336 -0.21333,0 -0.4,-0.186666 -0.4,-0.4 0,-0.373334 0.18667,-1.226668 0.58667,-2.66667 l 3.86667,-13.946684 c -2.29333,0.426667 -3.57334,0.613334 -5.57334,0.800001 v 0.720001 c 0.29334,-0.02667 0.42667,-0.02667 0.56,-0.02667 0.72,0 1.12,0.266667 1.12,0.746667 0,0.400001 -0.34666,1.840003 -0.88,3.786672 l -2,7.040009 c -0.56,2.000002 -0.90667,3.600004 -0.90667,4.213338 0,0.960002 0.72,1.600003 1.81334,1.600003 1.62667,0 2.64,-0.826668 4.48,-3.626672 z"
       style="font-style:italic;font-weight:bold;font-size:26.6667px;font-family:'TeX Gyre Termes';-inkscape-font-specification:'TeX Gyre Termes Bold Italic'"
       id="path904" />
    <path
       d="m 278.95977,96.314256 -0.56,-0.400001 c -1.09333,1.466669 -1.49333,1.866669 -1.92,1.866669 -0.21333,0 -0.32,-0.16 -0.32,-0.4 0,-0.666668 0.24,-1.760002 0.90667,-3.946672 l 1.89333,-6.293341 -2.96,0.186667 -0.48,1.573335 c -0.24,-1.360002 -0.82667,-1.920002 -1.97334,-1.920002 -3.28,0 -7.28001,5.120006 -7.28001,9.280011 0,2.02667 1.14667,3.386671 2.88001,3.386671 1.62667,0 2.85333,-0.960001 4.37334,-3.520004 -0.32,1.093335 -0.37334,1.413335 -0.37334,1.786669 0,0.986668 0.8,1.760002 1.78667,1.760002 1.25334,0 2.48,-1.040001 4.02667,-3.360004 z m -4.05334,-6.960009 c 0,1.600002 -0.88,4.560006 -1.92,6.400008 -0.72,1.306668 -1.52,2.000003 -2.24,2.000003 -0.69333,0 -1.2,-0.613335 -1.2,-1.440002 0,-1.386669 0.88,-4.053339 1.97333,-6.026675 0.8,-1.413335 1.68001,-2.240002 2.40001,-2.186669 0.58666,0.05333 0.98666,0.533334 0.98666,1.253335 z"
       style="font-style:italic;font-weight:bold;font-size:26.6667px;font-family:'TeX Gyre Termes';-inkscape-font-specification:'TeX Gyre Termes Bold Italic'"
       id="path906" />
    <path
       d="m 290.61308,88.687579 c 0,-0.906667 -0.77333,-1.706668 -1.65333,-1.706668 -0.8,0 -1.52,0.720001 -1.52,1.520002 0,0.666667 0.18666,0.986667 0.82666,1.466668 0.50667,0.373334 0.64001,0.586667 0.64001,0.933335 0,0.826667 -0.45334,1.893335 -2.32001,5.466673 l -0.32,-2.000002 c -0.58667,-3.173338 -1.28,-6.133341 -1.76,-7.386676 -1.28,0.32 -2.24,0.48 -3.97334,0.64 v 0.720001 c 0.48,0 0.61334,0.02667 0.8,0.133334 0.45334,0.266667 0.88,1.360002 1.28,3.253337 0.90667,4.320006 1.33334,6.853342 1.33334,7.68001 0,0.613337 -0.21333,1.199997 -0.66667,1.840007 -0.56,0.8 -1.33333,1.38666 -1.78667,1.38666 -0.18666,0 -0.66666,-0.18666 -0.90667,-0.37333 -0.45333,-0.32 -1.12,-0.56 -1.6,-0.56 -0.69333,0 -1.33333,0.69333 -1.33333,1.46667 0,0.90667 0.72,1.6 1.65333,1.6 1.46667,0 3.20001,-1.04 4.66668,-2.82667 3.46667,-4.240006 6.64,-10.560014 6.64,-13.253351 z"
       style="font-style:italic;font-weight:bold;font-size:26.6667px;font-family:'TeX Gyre Termes';-inkscape-font-specification:'TeX Gyre Termes Bold Italic'"
       id="path908" />
    <path
       d="m 300.69303,95.967589 -0.77334,-0.453334 c -1.22667,1.840002 -2,2.426669 -3.14667,2.426669 -1.12,0 -1.70667,-0.746667 -1.70667,-2.186669 0,-0.426667 0.0533,-0.773334 0.16,-1.306668 2.77334,-0.533334 4.08001,-1.120002 5.41334,-2.34667 0.93334,-0.853334 1.44,-1.840002 1.44,-2.800003 0,-1.360002 -1.17333,-2.320003 -2.8,-2.320003 -3.86667,0 -7.68001,4.346672 -7.68001,8.746677 0,2.26667 1.70667,3.920005 4.02667,3.920005 2.05334,0 3.46667,-1.040001 5.06668,-3.680004 z m -1.06667,-7.200009 c 0,1.173334 -0.45334,2.320002 -1.30667,3.200004 -0.72,0.773334 -1.38667,1.146668 -2.90667,1.626668 0.96,-3.706671 2.18667,-5.73334 3.46667,-5.73334 0.50667,0 0.74667,0.293333 0.74667,0.906668 z"
       style="font-style:italic;font-weight:bold;font-size:26.6667px;font-family:'TeX Gyre Termes';-inkscape-font-specification:'TeX Gyre Termes Bold Italic'"
       id="path910" />
    <path
       d="m 313.67966,88.740913 c 0,-1.066668 -0.61333,-1.760002 -1.52,-1.760002 -1.36,0 -2.45334,1.333335 -4.56001,5.57334 l 1.76,-5.57334 c -1.6,0.4 -2.10666,0.48 -5.33334,0.746667 v 0.720001 c 1.20001,0.05333 1.44001,0.16 1.44001,0.666668 0,0.666667 -0.82667,3.786671 -2.72001,10.186679 h 3.22667 l 0.88,-2.773337 c 0.80001,-2.58667 1.20001,-3.600004 1.92001,-4.826672 0.72,-1.280002 1.36,-2.02667 1.73333,-2.02667 0.10667,0 0.26667,0.106667 0.42667,0.346667 0.4,0.453334 0.74667,0.666668 1.2,0.666668 0.88,0 1.54667,-0.826668 1.54667,-1.946669 z"
       style="font-style:italic;font-weight:bold;font-size:26.6667px;font-family:'TeX Gyre Termes';-inkscape-font-specification:'TeX Gyre Termes Bold Italic'"
       id="path912" />
  </g>
  <g
     aria-label="4"
     id="text67795"
     style="font-size:181.334px;line-height:1.25;letter-spacing:0px;word-spacing:0px;fill:#e9b117;stroke:#090102;stroke-width:3">
    <path
       d="m 402.92082,13.835054 q -1.26934,4.896018 -15.95739,69.088253 h 15.05072 l -6.70936,9.429368 h -10.51737 q -3.08268,16.501395 -3.08268,18.677405 0,3.08268 1.99467,6.70936 l -0.36266,1.26933 q -9.61071,1.99468 -15.05073,4.35202 -1.45067,-0.18133 -3.80801,-1.99467 l 7.61603,-29.013445 q -1.45067,0.181334 -3.98935,0.181334 -5.80269,0 -17.5894,-0.362668 -11.78671,-0.362668 -17.5894,-0.362668 4.71469,-9.610702 23.75476,-32.821453 7.97869,-9.792036 22.84808,-26.656098 l 7.4347,-8.522698 q 1.088,-1.450672 3.26401,-3.808014 0.544,-0.544002 12.69338,-6.165356 z m -16.32006,17.589398 q -13.78139,16.682728 -40.98149,50.773519 23.93609,0.725336 23.93609,0.725336 h 4.89602 z"
       style="font-style:italic;font-family:'Chancery Uralic';-inkscape-font-specification:'Chancery Uralic Italic'"
       id="path849" />
  </g>
</svg>
