<?xml version="1.0" encoding="UTF-8" standalone="no"?>
<!-- Created with Inkscape (http://www.inkscape.org/) -->

<svg
   xmlns:dc="http://purl.org/dc/elements/1.1/"
   xmlns:cc="http://creativecommons.org/ns#"
   xmlns:rdf="http://www.w3.org/1999/02/22-rdf-syntax-ns#"
   xmlns:svg="http://www.w3.org/2000/svg"
   xmlns="http://www.w3.org/2000/svg"
   xmlns:sodipodi="http://sodipodi.sourceforge.net/DTD/sodipodi-0.dtd"
   xmlns:inkscape="http://www.inkscape.org/namespaces/inkscape"
   version="1.1"
   id="svg2"
   width="403.25064"
   height="127.23072"
   viewBox="0 0 403.25067 127.23073"
   sodipodi:docname="ballroomdj.svg"
   inkscape:version="0.92.4 (5da689c313, 2019-01-14)">
  <metadata
     id="metadata8">
    <rdf:RDF>
      <cc:Work
         rdf:about="">
        <dc:format>image/svg+xml</dc:format>
        <dc:type
           rdf:resource="http://purl.org/dc/dcmitype/StillImage" />
        <dc:title />
      </cc:Work>
    </rdf:RDF>
  </metadata>
  <defs
     id="defs6" />
  <sodipodi:namedview
     pagecolor="#ffffff"
     bordercolor="#666666"
     borderopacity="1"
     objecttolerance="10"
     gridtolerance="10"
     guidetolerance="10"
     inkscape:pageopacity="0"
     inkscape:pageshadow="2"
     inkscape:window-width="1190"
     inkscape:window-height="657"
     id="namedview4"
     showgrid="false"
     fit-margin-top="10"
     fit-margin-left="10"
     fit-margin-right="10"
     fit-margin-bottom="10"
     inkscape:pagecheckerboard="true"
     inkscape:zoom="1.6542699"
     inkscape:cx="197.62532"
     inkscape:cy="71.068689"
     inkscape:window-x="41"
     inkscape:window-y="0"
     inkscape:window-maximized="0"
     inkscape:current-layer="svg2" />
  <g
     aria-label="BallroomDJ"
     inkscape:transform-center-x="-4.435567"
     inkscape:transform-center-y="1.2037587"
     style="font-style:normal;font-weight:normal;font-size:40px;line-height:1.25;font-family:sans-serif;letter-spacing:0px;word-spacing:0px;fill:#9e0d1e;fill-opacity:1;stroke:none"
     id="text819-6">
    <path
       d="m 52.083348,49.62416 c 0,-5.823999 -2.613334,-8.661333 -10.229333,-11.125333 5.674666,-1.418666 7.989333,-2.464 10.602666,-4.629333 2.24,-1.866666 3.509333,-4.853333 3.509333,-7.914666 0,-7.168 -6.048,-10.901333 -17.621333,-10.901333 H 18.035349 v 1.866666 c 2.762666,0.149334 3.434666,0.298667 4.330666,0.821334 0.597334,0.373333 1.12,1.344 1.12,2.24 0,0.746666 -0.298666,2.389333 -0.821333,4.256 l -9.109333,33.525332 c -1.194667,3.808 -2.389333,4.928 -5.9733331,5.376 v 1.866666 H 30.056682 c 13.663999,0 22.026666,-5.824 22.026666,-15.381333 z m -11.424,-1.717333 c 0,4.405333 -1.717333,9.034666 -4.405333,11.722666 -2.016,2.016 -4.554667,2.986667 -7.84,2.986667 -2.912,0 -4.256,-0.746667 -4.256,-2.464 0,-0.597333 0.07467,-1.12 0.373334,-2.165333 l 4.927999,-18.218666 c 4.853334,0.149333 7.018667,0.597333 8.586667,1.792 1.717333,1.344 2.613333,3.584 2.613333,6.346666 z m 4.330667,-22.922666 c 0,4.778667 -1.568,8.362667 -4.554667,10.304 -2.314667,1.493333 -4.853333,2.016 -10.378666,2.24 l 4.554666,-16.8 c 0.746667,-2.688 1.493334,-3.285333 3.882667,-3.285333 4.330666,0 6.496,2.538667 6.496,7.541333 z"
       style="font-style:italic;font-variant:normal;font-weight:bold;font-stretch:normal;font-size:74.66666412px;font-family:'TeX Gyre Termes';-inkscape-font-specification:'TeX Gyre Termes Bold Italic';fill:#9e0d1e;fill-opacity:1"
       id="path1027" />
    <path
       d="m 93.222348,56.642827 -1.568,-1.12 c -3.061333,4.106666 -4.181333,5.226666 -5.376,5.226666 -0.597333,0 -0.896,-0.448 -0.896,-1.12 0,-1.866666 0.672,-4.927999 2.538667,-11.050666 l 5.301333,-17.621333 -8.288,0.522667 -1.344,4.405333 c -0.672,-3.808 -2.314666,-5.376 -5.525333,-5.376 -9.184,0 -20.383999,14.336 -20.383999,25.983999 0,5.674667 3.210666,9.482667 8.064,9.482667 4.554666,0 7.989333,-2.688 12.245333,-9.856 -0.896,3.061333 -1.045334,3.957333 -1.045334,5.002667 0,2.762666 2.24,4.927999 5.002667,4.927999 3.509333,0 6.943999,-2.911999 11.274666,-9.407999 z m -11.349333,-19.488 c 0,4.48 -2.464,12.768 -5.376,17.92 -2.016,3.658666 -4.256,5.6 -6.272,5.6 -1.941333,0 -3.359999,-1.717334 -3.359999,-4.032 0,-3.882667 2.463999,-11.349333 5.525333,-16.874666 2.24,-3.957334 4.704,-6.272 6.719999,-6.122667 1.642667,0.149334 2.762667,1.493334 2.762667,3.509333 z"
       style="font-style:italic;font-variant:normal;font-weight:bold;font-stretch:normal;font-size:74.66666412px;font-family:'TeX Gyre Termes';-inkscape-font-specification:'TeX Gyre Termes Bold Italic';fill:#9e0d1e;fill-opacity:1"
       id="path1029" />
    <path
       d="m 114.35301,55.522827 -1.64267,-1.045333 c -2.98666,4.405333 -4.48,5.973333 -5.824,5.973333 -0.59733,0 -1.12,-0.522667 -1.12,-1.12 0,-1.045334 0.52267,-3.434667 1.64267,-7.466667 l 10.82667,-39.050665 c -6.42134,1.194667 -10.00534,1.717333 -15.60534,2.24 v 2.016 c 0.82134,-0.07467 1.19467,-0.07467 1.568,-0.07467 2.016,0 3.136,0.746667 3.136,2.090667 0,1.12 -0.97066,5.152 -2.464,10.602666 L 99.270344,49.40016 c -1.568,5.6 -2.538667,10.08 -2.538667,11.797333 0,2.688 2.016,4.48 5.077333,4.48 4.55467,0 7.392,-2.314666 12.544,-10.154666 z"
       style="font-style:italic;font-variant:normal;font-weight:bold;font-stretch:normal;font-size:74.66666412px;font-family:'TeX Gyre Termes';-inkscape-font-specification:'TeX Gyre Termes Bold Italic';fill:#9e0d1e;fill-opacity:1"
       id="path1031" />
    <path
       d="m 135.06135,55.522827 -1.64267,-1.045333 c -2.98667,4.405333 -4.48,5.973333 -5.824,5.973333 -0.59733,0 -1.12,-0.522667 -1.12,-1.12 0,-1.045334 0.52267,-3.434667 1.64267,-7.466667 l 10.82666,-39.050665 c -6.42133,1.194667 -10.00533,1.717333 -15.60533,2.24 v 2.016 c 0.82133,-0.07467 1.19467,-0.07467 1.568,-0.07467 2.016,0 3.136,0.746667 3.136,2.090667 0,1.12 -0.97067,5.152 -2.464,10.602666 l -5.6,19.711999 c -1.568,5.6 -2.53867,10.08 -2.53867,11.797333 0,2.688 2.016,4.48 5.07734,4.48 4.55466,0 7.392,-2.314666 12.544,-10.154666 z"
       style="font-style:italic;font-variant:normal;font-weight:bold;font-stretch:normal;font-size:74.66666412px;font-family:'TeX Gyre Termes';-inkscape-font-specification:'TeX Gyre Termes Bold Italic';fill:#9e0d1e;fill-opacity:1"
       id="path1033" />
    <path
       d="m 167.04435,35.437494 c 0,-2.986666 -1.71734,-4.928 -4.256,-4.928 -3.808,0 -6.86933,3.733334 -12.768,15.605333 l 4.928,-15.605333 c -4.48,1.12 -5.89867,1.344 -14.93333,2.090667 v 2.016 c 3.36,0.149333 4.032,0.448 4.032,1.866666 0,1.866667 -2.31467,10.602667 -7.616,28.522666 h 9.03466 l 2.464,-7.765333 c 2.24,-7.242666 3.36,-10.08 5.376,-13.514666 2.016,-3.584 3.808,-5.674667 4.85334,-5.674667 0.29866,0 0.74666,0.298667 1.19466,0.970667 1.12,1.269333 2.09067,1.866667 3.36,1.866667 2.464,0 4.33067,-2.314667 4.33067,-5.450667 z"
       style="font-style:italic;font-variant:normal;font-weight:bold;font-stretch:normal;font-size:74.66666412px;font-family:'TeX Gyre Termes';-inkscape-font-specification:'TeX Gyre Termes Bold Italic';fill:#9e0d1e;fill-opacity:1"
       id="path1035" />
    <path
       d="m 198.78117,41.784161 c 0,-6.570667 -4.85333,-11.274667 -11.72267,-11.274667 -11.05066,0 -21.42933,11.872 -21.42933,24.416 0,6.346666 5.00267,11.050666 11.872,11.050666 11.12533,0 21.28,-11.573333 21.28,-24.191999 z M 185.2665,56.79216 c -2.16533,4.778667 -4.40533,7.018667 -7.09333,7.018667 -2.24,0 -3.65866,-1.717334 -3.65866,-4.629334 0,-5.674666 2.61333,-16.202666 5.152,-20.906666 2.016,-3.733333 4.256,-5.599999 6.71999,-5.599999 2.16534,0 3.50934,1.642666 3.50934,4.330666 0,5.002667 -2.16534,14.410666 -4.62934,19.786666 z"
       style="font-style:italic;font-variant:normal;font-weight:bold;font-stretch:normal;font-size:74.66666412px;font-family:'TeX Gyre Termes';-inkscape-font-specification:'TeX Gyre Termes Bold Italic';fill:#9e0d1e;fill-opacity:1"
       id="path1037" />
    <path
       d="m 236.11451,41.784161 c 0,-6.570667 -4.85333,-11.274667 -11.72266,-11.274667 -11.05067,0 -21.42933,11.872 -21.42933,24.416 0,6.346666 5.00266,11.050666 11.872,11.050666 11.12533,0 21.27999,-11.573333 21.27999,-24.191999 z M 222.59985,56.79216 c -2.16533,4.778667 -4.40533,7.018667 -7.09333,7.018667 -2.24,0 -3.65867,-1.717334 -3.65867,-4.629334 0,-5.674666 2.61333,-16.202666 5.152,-20.906666 2.016,-3.733333 4.256,-5.599999 6.72,-5.599999 2.16533,0 3.50933,1.642666 3.50933,4.330666 0,5.002667 -2.16533,14.410666 -4.62933,19.786666 z"
       style="font-style:italic;font-variant:normal;font-weight:bold;font-stretch:normal;font-size:74.66666412px;font-family:'TeX Gyre Termes';-inkscape-font-specification:'TeX Gyre Termes Bold Italic';fill:#9e0d1e;fill-opacity:1"
       id="path1039" />
    <path
       d="m 294.42918,55.89616 -1.64267,-0.970666 c -0.29867,0.373333 -0.59733,0.821333 -0.896,1.343999 -1.71733,2.762667 -3.28533,4.330667 -4.256,4.330667 -0.672,0 -1.19467,-0.448 -1.19467,-1.045333 0,-0.821334 0,-0.821334 1.568,-5.824 l 3.36,-9.930666 c 1.12,-3.210667 1.71734,-6.048 1.71734,-7.989334 0,-3.061333 -2.464,-5.301333 -5.74934,-5.301333 -5.07733,0 -8.58666,2.986667 -14.784,12.842667 1.49334,-3.882667 1.94134,-5.674667 1.94134,-7.765334 0,-3.135999 -1.86667,-5.077333 -5.00267,-5.077333 -2.09067,0 -4.33067,0.821334 -6.42133,2.538667 -2.76267,2.090667 -5.00267,4.853333 -9.856,12.394666 l 4.77866,-14.858666 c -4.704,1.12 -6.496,1.344 -14.93333,2.016 v 2.016 c 1.94133,0 4.032,0.149333 4.032,1.866666 0,1.12 -0.59733,3.509334 -2.61333,10.752 l -5.00267,17.770666 h 9.03467 c 3.95733,-14.111999 6.72,-20.458666 10.976,-25.535999 1.64266,-1.941333 3.73333,-3.509333 4.85333,-3.509333 0.74667,0 1.344,0.746666 1.344,1.642666 0,1.269334 -0.896,4.405334 -3.36,11.946667 l -4.85333,15.455999 h 8.96 c 4.33066,-14.335999 4.85333,-15.679999 7.54133,-20.383999 3.136,-5.6 6.12267,-8.661333 8.36267,-8.661333 0.896,0 1.71733,0.746666 1.71733,1.568 0,0.448 -0.224,1.269333 -0.52267,2.24 l -3.36,9.781333 c -1.64266,4.778666 -2.688,9.258666 -2.688,11.423999 0,3.061334 1.792,4.704 5.00267,4.704 4.62933,0 7.616,-2.464 11.94667,-9.781333 z"
       style="font-style:italic;font-variant:normal;font-weight:bold;font-stretch:normal;font-size:74.66666412px;font-family:'TeX Gyre Termes';-inkscape-font-specification:'TeX Gyre Termes Bold Italic';fill:#9e0d1e;fill-opacity:1"
       id="path1041" />
    <path
       d="m 349.70818,35.437494 c 0,-12.767999 -8.36267,-20.383999 -22.47467,-20.383999 h -21.65333 v 1.866666 l 2.31467,0.373334 c 2.38933,0.298666 3.136,0.970666 3.136,2.762666 0,0.746667 -0.224,1.941334 -0.896,4.405334 l -9.03467,33.301332 c -1.12,3.808 -2.38933,4.928 -5.97333,5.376 v 1.866666 h 21.35467 c 19.11466,0 33.22666,-12.543999 33.22666,-29.567999 z m -10.976,-4.554666 c 0,8.287999 -2.38933,17.023999 -6.272,22.773332 -4.10667,5.973333 -9.408,8.810667 -16.65066,8.810667 -2.83734,0 -4.032,-0.746667 -4.032,-2.538667 0,-0.896 0.224,-2.016 0.896,-4.032 l 0.0747,-0.298667 9.55733,-35.391998 c 0.52267,-2.090667 1.64267,-2.837334 4.10667,-2.837334 8.288,0 12.32,4.405334 12.32,13.514667 z"
       style="font-style:italic;font-variant:normal;font-weight:bold;font-stretch:normal;font-size:74.66666412px;font-family:'TeX Gyre Termes';-inkscape-font-specification:'TeX Gyre Termes Bold Italic';fill:#9e0d1e;fill-opacity:1"
       id="path1043" />
    <path
       d="m 386.83266,16.920161 v -1.866666 h -22.176 v 1.866666 l 2.31467,0.373334 c 2.24,0.298666 3.136,1.045333 3.136,2.389333 0,0.821333 -0.29867,2.538667 -0.82134,4.554667 L 360.774,56.493493 c -2.912,11.2 -3.95734,13.216 -6.72,13.216 -1.41867,0 -2.016,-0.448 -2.016,-1.344 0,-0.522667 0.14933,-0.896 0.74666,-1.568 0.82134,-0.970667 0.97067,-1.418667 0.97067,-2.464 0,-2.688 -2.09067,-4.704 -4.704,-4.704 -2.688,0 -4.77867,2.24 -4.77867,5.226667 0,4.405333 4.77867,7.541333 11.34934,7.541333 8.06399,0 12.99199,-4.554667 15.60533,-14.336 l 9.55733,-35.765332 c 1.26933,-3.957333 2.38933,-4.928 6.048,-5.376 z"
       style="font-style:italic;font-variant:normal;font-weight:bold;font-stretch:normal;font-size:74.66666412px;font-family:'TeX Gyre Termes';-inkscape-font-specification:'TeX Gyre Termes Bold Italic';fill:#9e0d1e;fill-opacity:1"
       id="path1045" />
  </g>
  <g
     aria-label="BallroomDJ"
     inkscape:transform-center-x="-2.0783034"
     inkscape:transform-center-y="-0.47999532"
     style="font-style:normal;font-weight:normal;font-size:40px;line-height:1.25;font-family:sans-serif;letter-spacing:0px;word-spacing:0px;fill:#eab016;fill-opacity:0.98039216;stroke:none"
     id="text819-0">
    <path
       d="m 49.29234,47.228656 c 0,-5.823999 -2.613334,-8.661333 -10.229333,-11.125333 5.674666,-1.418666 7.989333,-2.464 10.602666,-4.629333 2.24,-1.866666 3.509333,-4.853333 3.509333,-7.914666 0,-7.168 -6.048,-10.901333 -17.621333,-10.901333 H 15.244341 v 1.866666 c 2.762666,0.149334 3.434666,0.298667 4.330666,0.821334 0.597334,0.373333 1.12,1.344 1.12,2.24 0,0.746666 -0.298666,2.389333 -0.821333,4.256 l -9.109333,33.525332 c -1.1946666,3.808 -2.3893332,4.928 -5.9733331,5.376 v 1.866666 H 27.265674 c 13.663999,0 22.026666,-5.824 22.026666,-15.381333 z m -11.424,-1.717333 c 0,4.405333 -1.717333,9.034666 -4.405333,11.722666 -2.016,2.016 -4.554667,2.986667 -7.84,2.986667 -2.912,0 -4.256,-0.746667 -4.256,-2.464 0,-0.597333 0.07467,-1.12 0.373334,-2.165333 L 26.66834,37.372657 c 4.853334,0.149333 7.018667,0.597333 8.586667,1.792 1.717333,1.344 2.613333,3.584 2.613333,6.346666 z m 4.330667,-22.922666 c 0,4.778667 -1.568,8.362667 -4.554667,10.304 -2.314666,1.493333 -4.853333,2.016 -10.378666,2.24 l 4.554666,-16.8 c 0.746667,-2.688 1.493334,-3.285333 3.882667,-3.285333 4.330666,0 6.496,2.538667 6.496,7.541333 z"
       style="font-style:italic;font-variant:normal;font-weight:bold;font-stretch:normal;font-size:74.66666412px;font-family:'TeX Gyre Termes';-inkscape-font-specification:'TeX Gyre Termes Bold Italic';fill:#eab016;fill-opacity:0.98039216"
       id="path1048" />
    <path
       d="m 90.43134,54.247323 -1.568,-1.12 c -3.061333,4.106666 -4.181333,5.226666 -5.376,5.226666 -0.597333,0 -0.896,-0.448 -0.896,-1.12 0,-1.866666 0.672,-4.927999 2.538667,-11.050666 l 5.301333,-17.621333 -8.288,0.522667 -1.344,4.405333 c -0.672,-3.808 -2.314666,-5.376 -5.525333,-5.376 -9.184,0 -20.383999,14.336 -20.383999,25.983999 0,5.674667 3.210666,9.482667 8.064,9.482667 4.554666,0 7.989333,-2.688 12.245333,-9.856 -0.896,3.061333 -1.045334,3.957333 -1.045334,5.002667 0,2.762666 2.24,4.927999 5.002667,4.927999 3.509333,0 6.943999,-2.911999 11.274666,-9.407999 z m -11.349333,-19.488 c 0,4.48 -2.464,12.768 -5.376,17.92 -2.016,3.658666 -4.256,5.6 -6.272,5.6 -1.941333,0 -3.359999,-1.717334 -3.359999,-4.032 0,-3.882667 2.463999,-11.349333 5.525333,-16.874666 2.24,-3.957334 4.704,-6.272 6.719999,-6.122667 1.642667,0.149334 2.762667,1.493334 2.762667,3.509333 z"
       style="font-style:italic;font-variant:normal;font-weight:bold;font-stretch:normal;font-size:74.66666412px;font-family:'TeX Gyre Termes';-inkscape-font-specification:'TeX Gyre Termes Bold Italic';fill:#eab016;fill-opacity:0.98039216"
       id="path1050" />
    <path
       d="m 111.562,53.127323 -1.64266,-1.045333 c -2.98667,4.405333 -4.48,5.973333 -5.824,5.973333 -0.59734,0 -1.12,-0.522667 -1.12,-1.12 0,-1.045334 0.52266,-3.434667 1.64266,-7.466667 l 10.82667,-39.050665 c -6.42133,1.194667 -10.00533,1.717333 -15.605334,2.24 v 2.016 c 0.821334,-0.07467 1.194664,-0.07467 1.568004,-0.07467 2.016,0 3.136,0.746667 3.136,2.090667 0,1.12 -0.97067,5.152 -2.464,10.602666 l -5.600004,19.711999 c -1.568,5.6 -2.538667,10.08 -2.538667,11.797333 0,2.688 2.016,4.48 5.077334,4.48 4.554667,0 7.391997,-2.314666 12.543997,-10.154666 z"
       style="font-style:italic;font-variant:normal;font-weight:bold;font-stretch:normal;font-size:74.66666412px;font-family:'TeX Gyre Termes';-inkscape-font-specification:'TeX Gyre Termes Bold Italic';fill:#eab016;fill-opacity:0.98039216"
       id="path1052" />
    <path
       d="m 132.27034,53.127323 -1.64267,-1.045333 c -2.98667,4.405333 -4.48,5.973333 -5.824,5.973333 -0.59733,0 -1.12,-0.522667 -1.12,-1.12 0,-1.045334 0.52267,-3.434667 1.64267,-7.466667 L 136.153,10.417991 c -6.42133,1.194667 -10.00533,1.717333 -15.60533,2.24 v 2.016 c 0.82134,-0.07467 1.19467,-0.07467 1.568,-0.07467 2.016,0 3.136,0.746667 3.136,2.090667 0,1.12 -0.97067,5.152 -2.464,10.602666 l -5.6,19.711999 c -1.568,5.6 -2.53866,10.08 -2.53866,11.797333 0,2.688 2.016,4.48 5.07733,4.48 4.55466,0 7.392,-2.314666 12.544,-10.154666 z"
       style="font-style:italic;font-variant:normal;font-weight:bold;font-stretch:normal;font-size:74.66666412px;font-family:'TeX Gyre Termes';-inkscape-font-specification:'TeX Gyre Termes Bold Italic';fill:#eab016;fill-opacity:0.98039216"
       id="path1054" />
    <path
       d="m 164.25334,33.04199 c 0,-2.986666 -1.71733,-4.928 -4.256,-4.928 -3.808,0 -6.86933,3.733334 -12.768,15.605333 l 4.928,-15.605333 c -4.48,1.12 -5.89867,1.344 -14.93333,2.090667 v 2.016 c 3.36,0.149333 4.032,0.448 4.032,1.866666 0,1.866667 -2.31467,10.602667 -7.616,28.522666 h 9.03466 l 2.464,-7.765333 c 2.24,-7.242666 3.36,-10.08 5.376,-13.514666 2.016,-3.584 3.808,-5.674667 4.85334,-5.674667 0.29866,0 0.74666,0.298667 1.19466,0.970667 1.12,1.269333 2.09067,1.866667 3.36,1.866667 2.464,0 4.33067,-2.314667 4.33067,-5.450667 z"
       style="font-style:italic;font-variant:normal;font-weight:bold;font-stretch:normal;font-size:74.66666412px;font-family:'TeX Gyre Termes';-inkscape-font-specification:'TeX Gyre Termes Bold Italic';fill:#eab016;fill-opacity:0.98039216"
       id="path1056" />
    <path
       d="m 195.99016,39.388657 c 0,-6.570667 -4.85333,-11.274667 -11.72266,-11.274667 -11.05067,0 -21.42934,11.872 -21.42934,24.416 0,6.346666 5.00267,11.050666 11.872,11.050666 11.12534,0 21.28,-11.573333 21.28,-24.191999 z M 182.4755,54.396656 c -2.16534,4.778667 -4.40534,7.018667 -7.09334,7.018667 -2.24,0 -3.65866,-1.717334 -3.65866,-4.629334 0,-5.674666 2.61333,-16.202666 5.152,-20.906666 2.016,-3.733333 4.256,-5.599999 6.72,-5.599999 2.16533,0 3.50933,1.642666 3.50933,4.330666 0,5.002667 -2.16533,14.410666 -4.62933,19.786666 z"
       style="font-style:italic;font-variant:normal;font-weight:bold;font-stretch:normal;font-size:74.66666412px;font-family:'TeX Gyre Termes';-inkscape-font-specification:'TeX Gyre Termes Bold Italic';fill:#eab016;fill-opacity:0.98039216"
       id="path1058" />
    <path
       d="m 233.32351,39.388657 c 0,-6.570667 -4.85334,-11.274667 -11.72267,-11.274667 -11.05067,0 -21.42933,11.872 -21.42933,24.416 0,6.346666 5.00266,11.050666 11.872,11.050666 11.12533,0 21.28,-11.573333 21.28,-24.191999 z m -13.51467,15.007999 c -2.16533,4.778667 -4.40533,7.018667 -7.09333,7.018667 -2.24,0 -3.65867,-1.717334 -3.65867,-4.629334 0,-5.674666 2.61333,-16.202666 5.152,-20.906666 2.016,-3.733333 4.256,-5.599999 6.72,-5.599999 2.16533,0 3.50933,1.642666 3.50933,4.330666 0,5.002667 -2.16533,14.410666 -4.62933,19.786666 z"
       style="font-style:italic;font-variant:normal;font-weight:bold;font-stretch:normal;font-size:74.66666412px;font-family:'TeX Gyre Termes';-inkscape-font-specification:'TeX Gyre Termes Bold Italic';fill:#eab016;fill-opacity:0.98039216"
       id="path1060" />
    <path
       d="M 291.63817,53.500656 289.9955,52.52999 c -0.29867,0.373333 -0.59733,0.821333 -0.896,1.343999 -1.71733,2.762667 -3.28533,4.330667 -4.256,4.330667 -0.672,0 -1.19467,-0.448 -1.19467,-1.045333 0,-0.821334 0,-0.821334 1.568,-5.824 l 3.36,-9.930666 c 1.12,-3.210667 1.71734,-6.048 1.71734,-7.989334 0,-3.061333 -2.464,-5.301333 -5.74934,-5.301333 -5.07733,0 -8.58666,2.986667 -14.784,12.842667 1.49334,-3.882667 1.94134,-5.674667 1.94134,-7.765333 0,-3.136 -1.86667,-5.077334 -5.00267,-5.077334 -2.09066,0 -4.33066,0.821334 -6.42133,2.538667 -2.76267,2.090667 -5.00267,4.853333 -9.856,12.394666 l 4.77867,-14.858666 c -4.704,1.12 -6.496,1.344 -14.93334,2.016 v 2.016 c 1.94134,0 4.032,0.149333 4.032,1.866666 0,1.12 -0.59733,3.509334 -2.61333,10.752 l -5.00267,17.770666 h 9.03467 c 3.95733,-14.111999 6.72,-20.458666 10.976,-25.535999 1.64267,-1.941333 3.73333,-3.509333 4.85333,-3.509333 0.74667,0 1.344,0.746666 1.344,1.642666 0,1.269334 -0.896,4.405334 -3.36,11.946667 l -4.85333,15.455999 h 8.96 c 4.33067,-14.335999 4.85333,-15.679999 7.54133,-20.383999 3.136,-5.6 6.12267,-8.661333 8.36267,-8.661333 0.896,0 1.71733,0.746666 1.71733,1.568 0,0.448 -0.224,1.269333 -0.52267,2.24 l -3.36,9.781333 c -1.64266,4.778666 -2.688,9.258666 -2.688,11.423999 0,3.061334 1.792,4.704 5.00267,4.704 4.62933,0 7.616,-2.464 11.94667,-9.781333 z"
       style="font-style:italic;font-variant:normal;font-weight:bold;font-stretch:normal;font-size:74.66666412px;font-family:'TeX Gyre Termes';-inkscape-font-specification:'TeX Gyre Termes Bold Italic';fill:#eab016;fill-opacity:0.98039216"
       id="path1062" />
    <path
       d="m 346.91717,33.04199 c 0,-12.767999 -8.36266,-20.383999 -22.47466,-20.383999 h -21.65334 v 1.866666 l 2.31467,0.373334 c 2.38933,0.298666 3.136,0.970666 3.136,2.762666 0,0.746667 -0.224,1.941334 -0.896,4.405334 l -9.03467,33.301332 c -1.12,3.808 -2.38933,4.928 -5.97333,5.376 v 1.866666 h 21.35467 c 19.11466,0 33.22666,-12.543999 33.22666,-29.567999 z m -10.976,-4.554666 c 0,8.287999 -2.38933,17.023999 -6.272,22.773332 -4.10666,5.973333 -9.408,8.810667 -16.65066,8.810667 -2.83734,0 -4.032,-0.746667 -4.032,-2.538667 0,-0.896 0.224,-2.016 0.896,-4.032 l 0.0747,-0.298667 9.55734,-35.391998 c 0.52266,-2.090667 1.64266,-2.837334 4.10666,-2.837334 8.288,0 12.32,4.405334 12.32,13.514667 z"
       style="font-style:italic;font-variant:normal;font-weight:bold;font-stretch:normal;font-size:74.66666412px;font-family:'TeX Gyre Termes';-inkscape-font-specification:'TeX Gyre Termes Bold Italic';fill:#eab016;fill-opacity:0.98039216"
       id="path1064" />
    <path
       d="m 384.04165,14.524657 v -1.866666 h -22.176 v 1.866666 l 2.31467,0.373334 c 2.24,0.298666 3.136,1.045333 3.136,2.389333 0,0.821333 -0.29867,2.538667 -0.82133,4.554667 l -8.512,32.255998 c -2.912,11.2 -3.95734,13.216 -6.72,13.216 -1.41867,0 -2.016,-0.448 -2.016,-1.344 0,-0.522667 0.14933,-0.896 0.74666,-1.568 0.82134,-0.970667 0.97067,-1.418667 0.97067,-2.464 0,-2.688 -2.09067,-4.704 -4.704,-4.704 -2.688,0 -4.77867,2.24 -4.77867,5.226667 0,4.405333 4.77867,7.541333 11.34934,7.541333 8.064,0 12.992,-4.554667 15.60533,-14.336 l 9.55733,-35.765332 c 1.26934,-3.957333 2.38934,-4.928 6.048,-5.376 z"
       style="font-style:italic;font-variant:normal;font-weight:bold;font-stretch:normal;font-size:74.66666412px;font-family:'TeX Gyre Termes';-inkscape-font-specification:'TeX Gyre Termes Bold Italic';fill:#eab016;fill-opacity:0.98039216"
       id="path1066" />
  </g>
  <g
     aria-label="BallroomDJ"
     inkscape:transform-center-x="-3.2772341"
     inkscape:transform-center-y="0.54679914"
     style="font-style:normal;font-weight:normal;font-size:40px;line-height:1.25;font-family:sans-serif;letter-spacing:0px;word-spacing:0px;fill:#000000;fill-opacity:1;stroke:none"
     id="text819">
    <path
       d="m 51.083348,48.833152 c 0,-5.823999 -2.613334,-8.661333 -10.229333,-11.125333 5.674666,-1.418666 7.989333,-2.464 10.602666,-4.629333 2.24,-1.866666 3.509333,-4.853333 3.509333,-7.914666 0,-7.168 -6.048,-10.901333 -17.621333,-10.901333 H 17.035349 v 1.866666 c 2.762666,0.149334 3.434666,0.298667 4.330666,0.821334 0.597334,0.373333 1.12,1.344 1.12,2.24 0,0.746666 -0.298666,2.389333 -0.821333,4.256 l -9.109333,33.525332 c -1.194667,3.808 -2.389333,4.928 -5.9733331,5.376 v 1.866666 H 29.056682 c 13.663999,0 22.026666,-5.824 22.026666,-15.381333 z m -11.424,-1.717333 c 0,4.405333 -1.717333,9.034666 -4.405333,11.722666 -2.016,2.016 -4.554667,2.986667 -7.84,2.986667 -2.912,0 -4.256,-0.746667 -4.256,-2.464 0,-0.597333 0.07467,-1.12 0.373334,-2.165333 l 4.927999,-18.218666 c 4.853334,0.149333 7.018667,0.597333 8.586667,1.792 1.717333,1.344 2.613333,3.584 2.613333,6.346666 z m 4.330667,-22.922666 c 0,4.778667 -1.568,8.362667 -4.554667,10.304 -2.314667,1.493333 -4.853333,2.016 -10.378666,2.24 l 4.554666,-16.8 c 0.746667,-2.688 1.493334,-3.285333 3.882667,-3.285333 4.330666,0 6.496,2.538667 6.496,7.541333 z"
       style="font-style:italic;font-variant:normal;font-weight:bold;font-stretch:normal;font-size:74.66666412px;font-family:'TeX Gyre Termes';-inkscape-font-specification:'TeX Gyre Termes Bold Italic'"
       id="path1069" />
    <path
       d="m 92.222348,55.851819 -1.568,-1.12 c -3.061333,4.106666 -4.181333,5.226666 -5.376,5.226666 -0.597333,0 -0.896,-0.448 -0.896,-1.12 0,-1.866666 0.672,-4.927999 2.538667,-11.050666 l 5.301333,-17.621333 -8.288,0.522667 -1.344,4.405333 c -0.672,-3.808 -2.314666,-5.376 -5.525333,-5.376 -9.184,0 -20.383999,14.336 -20.383999,25.983999 0,5.674667 3.210666,9.482667 8.064,9.482667 4.554666,0 7.989333,-2.688 12.245333,-9.856 -0.896,3.061333 -1.045334,3.957333 -1.045334,5.002667 0,2.762666 2.24,4.927999 5.002667,4.927999 3.509333,0 6.943999,-2.911999 11.274666,-9.407999 z m -11.349333,-19.488 c 0,4.48 -2.464,12.768 -5.376,17.92 -2.016,3.658666 -4.256,5.6 -6.272,5.6 -1.941333,0 -3.359999,-1.717334 -3.359999,-4.032 0,-3.882667 2.463999,-11.349333 5.525333,-16.874666 2.24,-3.957334 4.704,-6.272 6.719999,-6.122667 1.642667,0.149334 2.762667,1.493334 2.762667,3.509333 z"
       style="font-style:italic;font-variant:normal;font-weight:bold;font-stretch:normal;font-size:74.66666412px;font-family:'TeX Gyre Termes';-inkscape-font-specification:'TeX Gyre Termes Bold Italic'"
       id="path1071" />
    <path
       d="m 113.35301,54.731819 -1.64267,-1.045333 c -2.98666,4.405333 -4.48,5.973333 -5.824,5.973333 -0.59733,0 -1.12,-0.522667 -1.12,-1.12 0,-1.045334 0.52267,-3.434667 1.64267,-7.466667 l 10.82667,-39.050665 c -6.42134,1.194667 -10.00534,1.717333 -15.60534,2.24 v 2.016 c 0.82134,-0.07467 1.19467,-0.07467 1.568,-0.07467 2.016,0 3.136,0.746667 3.136,2.090667 0,1.12 -0.97066,5.152 -2.464,10.602666 l -5.599996,19.711999 c -1.568,5.6 -2.538667,10.08 -2.538667,11.797333 0,2.688 2.016,4.48 5.077333,4.48 4.55467,0 7.392,-2.314666 12.544,-10.154666 z"
       style="font-style:italic;font-variant:normal;font-weight:bold;font-stretch:normal;font-size:74.66666412px;font-family:'TeX Gyre Termes';-inkscape-font-specification:'TeX Gyre Termes Bold Italic'"
       id="path1073" />
    <path
       d="m 134.06135,54.731819 -1.64267,-1.045333 c -2.98667,4.405333 -4.48,5.973333 -5.824,5.973333 -0.59733,0 -1.12,-0.522667 -1.12,-1.12 0,-1.045334 0.52267,-3.434667 1.64267,-7.466667 l 10.82666,-39.050665 c -6.42133,1.194667 -10.00533,1.717333 -15.60533,2.24 v 2.016 c 0.82133,-0.07467 1.19467,-0.07467 1.568,-0.07467 2.016,0 3.136,0.746667 3.136,2.090667 0,1.12 -0.97067,5.152 -2.464,10.602666 l -5.6,19.711999 c -1.568,5.6 -2.53867,10.08 -2.53867,11.797333 0,2.688 2.016,4.48 5.07734,4.48 4.55466,0 7.392,-2.314666 12.544,-10.154666 z"
       style="font-style:italic;font-variant:normal;font-weight:bold;font-stretch:normal;font-size:74.66666412px;font-family:'TeX Gyre Termes';-inkscape-font-specification:'TeX Gyre Termes Bold Italic'"
       id="path1075" />
    <path
       d="m 166.04435,34.646486 c 0,-2.986666 -1.71734,-4.928 -4.256,-4.928 -3.808,0 -6.86933,3.733334 -12.768,15.605333 l 4.928,-15.605333 c -4.48,1.12 -5.89867,1.344 -14.93333,2.090667 v 2.016 c 3.36,0.149333 4.032,0.448 4.032,1.866666 0,1.866667 -2.31467,10.602667 -7.616,28.522666 h 9.03466 l 2.464,-7.765333 c 2.24,-7.242666 3.36,-10.08 5.376,-13.514666 2.016,-3.584 3.808,-5.674667 4.85334,-5.674667 0.29866,0 0.74666,0.298667 1.19466,0.970667 1.12,1.269333 2.09067,1.866667 3.36,1.866667 2.464,0 4.33067,-2.314667 4.33067,-5.450667 z"
       style="font-style:italic;font-variant:normal;font-weight:bold;font-stretch:normal;font-size:74.66666412px;font-family:'TeX Gyre Termes';-inkscape-font-specification:'TeX Gyre Termes Bold Italic'"
       id="path1077" />
    <path
       d="m 197.78117,40.993153 c 0,-6.570667 -4.85333,-11.274667 -11.72267,-11.274667 -11.05066,0 -21.42933,11.872 -21.42933,24.416 0,6.346666 5.00267,11.050666 11.872,11.050666 11.12533,0 21.28,-11.573333 21.28,-24.191999 z M 184.2665,56.001152 c -2.16533,4.778667 -4.40533,7.018667 -7.09333,7.018667 -2.24,0 -3.65866,-1.717334 -3.65866,-4.629334 0,-5.674666 2.61333,-16.202666 5.152,-20.906666 2.016,-3.733333 4.256,-5.599999 6.71999,-5.599999 2.16534,0 3.50934,1.642666 3.50934,4.330666 0,5.002667 -2.16534,14.410666 -4.62934,19.786666 z"
       style="font-style:italic;font-variant:normal;font-weight:bold;font-stretch:normal;font-size:74.66666412px;font-family:'TeX Gyre Termes';-inkscape-font-specification:'TeX Gyre Termes Bold Italic'"
       id="path1079" />
    <path
       d="m 235.11451,40.993153 c 0,-6.570667 -4.85333,-11.274667 -11.72266,-11.274667 -11.05067,0 -21.42933,11.872 -21.42933,24.416 0,6.346666 5.00266,11.050666 11.872,11.050666 11.12533,0 21.27999,-11.573333 21.27999,-24.191999 z m -13.51466,15.007999 c -2.16533,4.778667 -4.40533,7.018667 -7.09333,7.018667 -2.24,0 -3.65867,-1.717334 -3.65867,-4.629334 0,-5.674666 2.61333,-16.202666 5.152,-20.906666 2.016,-3.733333 4.256,-5.599999 6.72,-5.599999 2.16533,0 3.50933,1.642666 3.50933,4.330666 0,5.002667 -2.16533,14.410666 -4.62933,19.786666 z"
       style="font-style:italic;font-variant:normal;font-weight:bold;font-stretch:normal;font-size:74.66666412px;font-family:'TeX Gyre Termes';-inkscape-font-specification:'TeX Gyre Termes Bold Italic'"
       id="path1081" />
    <path
       d="m 293.42918,55.105152 -1.64267,-0.970666 c -0.29867,0.373333 -0.59733,0.821333 -0.896,1.343999 -1.71733,2.762667 -3.28533,4.330667 -4.256,4.330667 -0.672,0 -1.19467,-0.448 -1.19467,-1.045333 0,-0.821334 0,-0.821334 1.568,-5.824 l 3.36,-9.930666 c 1.12,-3.210667 1.71734,-6.048 1.71734,-7.989334 0,-3.061333 -2.464,-5.301333 -5.74934,-5.301333 -5.07733,0 -8.58666,2.986667 -14.784,12.842667 1.49334,-3.882667 1.94134,-5.674667 1.94134,-7.765333 0,-3.136 -1.86667,-5.077334 -5.00267,-5.077334 -2.09067,0 -4.33067,0.821334 -6.42133,2.538667 -2.76267,2.090667 -5.00267,4.853333 -9.856,12.394666 l 4.77866,-14.858666 c -4.704,1.12 -6.496,1.344 -14.93333,2.016 v 2.016 c 1.94133,0 4.032,0.149333 4.032,1.866666 0,1.12 -0.59733,3.509334 -2.61333,10.752 l -5.00267,17.770666 h 9.03467 c 3.95733,-14.111999 6.72,-20.458666 10.976,-25.535999 1.64266,-1.941333 3.73333,-3.509333 4.85333,-3.509333 0.74667,0 1.344,0.746666 1.344,1.642666 0,1.269334 -0.896,4.405334 -3.36,11.946667 l -4.85333,15.455999 h 8.96 c 4.33066,-14.335999 4.85333,-15.679999 7.54133,-20.383999 3.136,-5.6 6.12267,-8.661333 8.36267,-8.661333 0.896,0 1.71733,0.746666 1.71733,1.568 0,0.448 -0.224,1.269333 -0.52267,2.24 l -3.36,9.781333 c -1.64266,4.778666 -2.688,9.258666 -2.688,11.423999 0,3.061334 1.792,4.704 5.00267,4.704 4.62933,0 7.616,-2.464 11.94667,-9.781333 z"
       style="font-style:italic;font-variant:normal;font-weight:bold;font-stretch:normal;font-size:74.66666412px;font-family:'TeX Gyre Termes';-inkscape-font-specification:'TeX Gyre Termes Bold Italic'"
       id="path1083" />
    <path
       d="m 348.70818,34.646486 c 0,-12.767999 -8.36267,-20.383999 -22.47467,-20.383999 h -21.65333 v 1.866666 l 2.31467,0.373334 c 2.38933,0.298666 3.136,0.970666 3.136,2.762666 0,0.746667 -0.224,1.941334 -0.896,4.405334 l -9.03467,33.301332 c -1.12,3.808 -2.38933,4.928 -5.97333,5.376 v 1.866666 h 21.35467 c 19.11466,0 33.22666,-12.543999 33.22666,-29.567999 z m -10.976,-4.554666 c 0,8.287999 -2.38933,17.023999 -6.272,22.773332 -4.10667,5.973333 -9.408,8.810667 -16.65066,8.810667 -2.83734,0 -4.032,-0.746667 -4.032,-2.538667 0,-0.896 0.224,-2.016 0.896,-4.032 l 0.0747,-0.298667 9.55733,-35.391998 c 0.52267,-2.090667 1.64267,-2.837334 4.10667,-2.837334 8.288,0 12.32,4.405334 12.32,13.514667 z"
       style="font-style:italic;font-variant:normal;font-weight:bold;font-stretch:normal;font-size:74.66666412px;font-family:'TeX Gyre Termes';-inkscape-font-specification:'TeX Gyre Termes Bold Italic'"
       id="path1085" />
    <path
       d="m 385.83266,16.129153 v -1.866666 h -22.176 v 1.866666 l 2.31467,0.373334 c 2.24,0.298666 3.136,1.045333 3.136,2.389333 0,0.821333 -0.29867,2.538667 -0.82134,4.554667 L 359.774,55.702485 c -2.912,11.2 -3.95734,13.216 -6.72,13.216 -1.41867,0 -2.016,-0.448 -2.016,-1.344 0,-0.522667 0.14933,-0.896 0.74666,-1.568 0.82134,-0.970667 0.97067,-1.418667 0.97067,-2.464 0,-2.688 -2.09067,-4.704 -4.704,-4.704 -2.688,0 -4.77867,2.24 -4.77867,5.226667 0,4.405333 4.77867,7.541333 11.34934,7.541333 8.06399,0 12.99199,-4.554667 15.60533,-14.336 l 9.55733,-35.765332 c 1.26933,-3.957333 2.38933,-4.928 6.048,-5.376 z"
       style="font-style:italic;font-variant:normal;font-weight:bold;font-stretch:normal;font-size:74.66666412px;font-family:'TeX Gyre Termes';-inkscape-font-specification:'TeX Gyre Termes Bold Italic'"
       id="path1087" />
  </g>
  <g
     aria-label="The Ballroom Music Player"
     style="font-style:normal;font-weight:normal;font-size:40px;line-height:1.25;font-family:sans-serif;letter-spacing:0px;word-spacing:0px;fill:#000000;fill-opacity:1;stroke:none"
     id="text849">
    <path
       d="m 93.290752,86.137392 0.96,-5.12 H 79.557419 l -1.013333,4.56 0.666667,0.186666 c 1.386666,-2.666666 3.066666,-3.76 5.786666,-3.813333 l -3.946666,14.32 c -0.373334,1.386666 -1.066667,1.92 -2.426667,1.92 h -0.373333 v 0.666666 h 8.826666 v -0.666666 c -1.893333,-0.08 -2.213333,-0.24 -2.213333,-1.093334 0,-0.4 0.106667,-0.933333 0.293333,-1.653333 l 3.733333,-13.493333 c 2.506667,0.02667 3.546667,1.173333 3.68,4.133333 z"
       style="font-style:italic;font-variant:normal;font-weight:bold;font-stretch:normal;font-size:26.66666603px;font-family:'TeX Gyre Termes';-inkscape-font-specification:'TeX Gyre Termes Bold Italic'"
       id="path969" />
    <path
       d="m 106.4995,95.470725 -0.58667,-0.4 c -1.14666,1.653333 -1.65333,2.213333 -2,2.213333 -0.21333,0 -0.45333,-0.24 -0.45333,-0.426667 0,-0.08 0,-0.106666 0.08,-0.32 l 1.54667,-4.746666 c 0.53333,-1.653333 0.8,-2.746667 0.8,-3.253333 0,-1.253334 -0.77334,-2 -2.02667,-2 -1.81333,0 -3.01333,1.013333 -5.653332,4.773333 L 101.0595,80.217392 c -2.053332,0.4 -3.386665,0.613333 -5.546665,0.8 v 0.72 l 0.586666,-0.02667 c 0.746667,0 1.093334,0.293333 1.093334,0.906667 0,0.24 -0.05333,0.533333 -0.213334,1.12 l -4.106666,15.119999 h 3.226666 c 1.36,-4.666666 1.866667,-5.973333 3.173334,-7.893333 1.146665,-1.68 2.053335,-2.506666 2.773335,-2.506666 0.32,0 0.58666,0.266666 0.58666,0.56 0,0.266666 -0.45333,1.573333 -0.72,2.373333 -1.30666,3.84 -1.62666,5.066666 -1.62666,6.16 0,0.906666 0.72,1.546666 1.76,1.546666 1.62666,0 2.69333,-0.88 4.45333,-3.626666 z"
       style="font-style:italic;font-variant:normal;font-weight:bold;font-stretch:normal;font-size:26.66666603px;font-family:'TeX Gyre Termes';-inkscape-font-specification:'TeX Gyre Termes Bold Italic'"
       id="path971" />
    <path
       d="m 117.28992,95.524058 -0.77334,-0.453333 c -1.22666,1.84 -2,2.426666 -3.14666,2.426666 -1.12,0 -1.70667,-0.746666 -1.70667,-2.186666 0,-0.426667 0.0533,-0.773334 0.16,-1.306667 2.77333,-0.533333 4.08,-1.12 5.41333,-2.346666 0.93334,-0.853334 1.44,-1.84 1.44,-2.8 0,-1.36 -1.17333,-2.32 -2.8,-2.32 -3.86666,0 -7.68,4.346666 -7.68,8.746666 0,2.266667 1.70667,3.92 4.02667,3.92 2.05333,0 3.46667,-1.04 5.06667,-3.68 z m -1.06667,-7.2 c 0,1.173334 -0.45333,2.32 -1.30667,3.2 -0.72,0.773334 -1.38666,1.146667 -2.90666,1.626667 0.96,-3.706667 2.18666,-5.733333 3.46666,-5.733333 0.50667,0 0.74667,0.293333 0.74667,0.906666 z"
       style="font-style:italic;font-variant:normal;font-weight:bold;font-stretch:normal;font-size:26.66666603px;font-family:'TeX Gyre Termes';-inkscape-font-specification:'TeX Gyre Termes Bold Italic'"
       id="path973" />
    <path
       d="m 141.80617,93.364058 c 0,-2.08 -0.93334,-3.093333 -3.65334,-3.973333 2.02667,-0.506667 2.85334,-0.88 3.78667,-1.653333 0.8,-0.666667 1.25333,-1.733334 1.25333,-2.826667 0,-2.56 -2.16,-3.893333 -6.29333,-3.893333 h -7.25333 v 0.666666 c 0.98666,0.05333 1.22666,0.106667 1.54666,0.293334 0.21334,0.133333 0.4,0.48 0.4,0.8 0,0.266666 -0.10666,0.853333 -0.29333,1.52 l -3.25333,11.973333 c -0.42667,1.36 -0.85334,1.76 -2.13334,1.92 v 0.666666 h 8.02667 c 4.88,0 7.86667,-2.08 7.86667,-5.493333 z m -4.08,-0.613333 c 0,1.573333 -0.61334,3.226666 -1.57334,4.186666 -0.72,0.72 -1.62666,1.066667 -2.8,1.066667 -1.04,0 -1.52,-0.266667 -1.52,-0.88 0,-0.213333 0.0267,-0.4 0.13334,-0.773333 l 1.76,-6.506667 c 1.73333,0.05333 2.50666,0.213334 3.06666,0.64 0.61334,0.48 0.93334,1.28 0.93334,2.266667 z m 1.54666,-8.186667 c 0,1.706667 -0.56,2.986667 -1.62666,3.68 -0.82667,0.533334 -1.73334,0.72 -3.70667,0.8 l 1.62667,-6 c 0.26666,-0.96 0.53333,-1.173333 1.38666,-1.173333 1.54667,0 2.32,0.906667 2.32,2.693333 z"
       style="font-style:italic;font-variant:normal;font-weight:bold;font-stretch:normal;font-size:26.66666603px;font-family:'TeX Gyre Termes';-inkscape-font-specification:'TeX Gyre Termes Bold Italic'"
       id="path975" />
    <path
       d="m 156.49867,95.870725 -0.56,-0.4 c -1.09334,1.466666 -1.49334,1.866666 -1.92,1.866666 -0.21334,0 -0.32,-0.16 -0.32,-0.4 0,-0.666666 0.24,-1.76 0.90666,-3.946666 l 1.89334,-6.293333 -2.96,0.186666 -0.48,1.573334 c -0.24,-1.36 -0.82667,-1.92 -1.97334,-1.92 -3.28,0 -7.28,5.12 -7.28,9.279999 0,2.026667 1.14667,3.386667 2.88,3.386667 1.62667,0 2.85334,-0.96 4.37334,-3.52 -0.32,1.093333 -0.37334,1.413333 -0.37334,1.786667 0,0.986666 0.8,1.76 1.78667,1.76 1.25333,0 2.48,-1.04 4.02667,-3.36 z m -4.05334,-6.96 c 0,1.6 -0.88,4.56 -1.92,6.4 -0.72,1.306666 -1.52,2 -2.24,2 -0.69333,0 -1.2,-0.613334 -1.2,-1.44 0,-1.386667 0.88,-4.053333 1.97334,-6.026667 0.8,-1.413333 1.68,-2.24 2.4,-2.186666 0.58666,0.05333 0.98666,0.533333 0.98666,1.253333 z"
       style="font-style:italic;font-variant:normal;font-weight:bold;font-stretch:normal;font-size:26.66666603px;font-family:'TeX Gyre Termes';-inkscape-font-specification:'TeX Gyre Termes Bold Italic'"
       id="path977" />
    <path
       d="m 164.04534,95.470725 -0.58667,-0.373334 c -1.06667,1.573334 -1.6,2.133334 -2.08,2.133334 -0.21333,0 -0.4,-0.186667 -0.4,-0.4 0,-0.373334 0.18667,-1.226667 0.58667,-2.666667 L 165.432,80.217392 c -2.29333,0.426666 -3.57333,0.613333 -5.57333,0.8 v 0.72 c 0.29333,-0.02667 0.42667,-0.02667 0.56,-0.02667 0.72,0 1.12,0.266667 1.12,0.746667 0,0.4 -0.34667,1.84 -0.88,3.786666 l -2,7.04 c -0.56,2 -0.90667,3.6 -0.90667,4.213333 0,0.96 0.72,1.6 1.81334,1.6 1.62666,0 2.64,-0.826666 4.48,-3.626666 z"
       style="font-style:italic;font-variant:normal;font-weight:bold;font-stretch:normal;font-size:26.66666603px;font-family:'TeX Gyre Termes';-inkscape-font-specification:'TeX Gyre Termes Bold Italic'"
       id="path979" />
    <path
       d="m 171.44116,95.470725 -0.58666,-0.373334 c -1.06667,1.573334 -1.6,2.133334 -2.08,2.133334 -0.21334,0 -0.4,-0.186667 -0.4,-0.4 0,-0.373334 0.18666,-1.226667 0.58666,-2.666667 l 3.86667,-13.946666 c -2.29333,0.426666 -3.57333,0.613333 -5.57333,0.8 v 0.72 c 0.29333,-0.02667 0.42666,-0.02667 0.56,-0.02667 0.72,0 1.12,0.266667 1.12,0.746667 0,0.4 -0.34667,1.84 -0.88,3.786666 l -2,7.04 c -0.56,2 -0.90667,3.6 -0.90667,4.213333 0,0.96 0.72,1.6 1.81333,1.6 1.62667,0 2.64,-0.826666 4.48,-3.626666 z"
       style="font-style:italic;font-variant:normal;font-weight:bold;font-stretch:normal;font-size:26.66666603px;font-family:'TeX Gyre Termes';-inkscape-font-specification:'TeX Gyre Termes Bold Italic'"
       id="path981" />
    <path
       d="m 182.86367,88.297392 c 0,-1.066667 -0.61334,-1.76 -1.52,-1.76 -1.36,0 -2.45334,1.333333 -4.56,5.573333 l 1.76,-5.573333 c -1.6,0.4 -2.10667,0.48 -5.33334,0.746666 v 0.72 c 1.2,0.05333 1.44,0.16 1.44,0.666667 0,0.666667 -0.82666,3.786667 -2.72,10.186666 h 3.22667 l 0.88,-2.773333 c 0.8,-2.586667 1.2,-3.6 1.92,-4.826666 0.72,-1.28 1.36,-2.026667 1.73333,-2.026667 0.10667,0 0.26667,0.106667 0.42667,0.346667 0.4,0.453333 0.74667,0.666666 1.2,0.666666 0.88,0 1.54667,-0.826666 1.54667,-1.946666 z"
       style="font-style:italic;font-variant:normal;font-weight:bold;font-stretch:normal;font-size:26.66666603px;font-family:'TeX Gyre Termes';-inkscape-font-specification:'TeX Gyre Termes Bold Italic'"
       id="path983" />
    <path
       d="m 194.19825,90.564058 c 0,-2.346666 -1.73334,-4.026666 -4.18667,-4.026666 -3.94667,0 -7.65333,4.24 -7.65333,8.719999 0,2.266667 1.78666,3.946667 4.24,3.946667 3.97333,0 7.6,-4.133333 7.6,-8.64 z m -4.82667,5.36 c -0.77333,1.706667 -1.57333,2.506667 -2.53333,2.506667 -0.8,0 -1.30667,-0.613334 -1.30667,-1.653334 0,-2.026666 0.93333,-5.786666 1.84,-7.466666 0.72,-1.333333 1.52,-2 2.4,-2 0.77333,0 1.25333,0.586667 1.25333,1.546667 0,1.786666 -0.77333,5.146666 -1.65333,7.066666 z"
       style="font-style:italic;font-variant:normal;font-weight:bold;font-stretch:normal;font-size:26.66666603px;font-family:'TeX Gyre Termes';-inkscape-font-specification:'TeX Gyre Termes Bold Italic'"
       id="path985" />
    <path
       d="m 207.53158,90.564058 c 0,-2.346666 -1.73333,-4.026666 -4.18666,-4.026666 -3.94667,0 -7.65334,4.24 -7.65334,8.719999 0,2.266667 1.78667,3.946667 4.24,3.946667 3.97334,0 7.6,-4.133333 7.6,-8.64 z m -4.82666,5.36 c -0.77334,1.706667 -1.57334,2.506667 -2.53334,2.506667 -0.8,0 -1.30666,-0.613334 -1.30666,-1.653334 0,-2.026666 0.93333,-5.786666 1.84,-7.466666 0.72,-1.333333 1.52,-2 2.4,-2 0.77333,0 1.25333,0.586667 1.25333,1.546667 0,1.786666 -0.77333,5.146666 -1.65333,7.066666 z"
       style="font-style:italic;font-variant:normal;font-weight:bold;font-stretch:normal;font-size:26.66666603px;font-family:'TeX Gyre Termes';-inkscape-font-specification:'TeX Gyre Termes Bold Italic'"
       id="path987" />
    <path
       d="m 228.35825,95.604058 -0.58666,-0.346667 c -0.10667,0.133334 -0.21334,0.293334 -0.32,0.48 -0.61334,0.986667 -1.17334,1.546667 -1.52,1.546667 -0.24,0 -0.42667,-0.16 -0.42667,-0.373333 0,-0.293334 0,-0.293334 0.56,-2.08 l 1.2,-3.546667 c 0.4,-1.146666 0.61333,-2.16 0.61333,-2.853333 0,-1.093333 -0.88,-1.893333 -2.05333,-1.893333 -1.81333,0 -3.06667,1.066666 -5.28,4.586666 0.53333,-1.386666 0.69333,-2.026666 0.69333,-2.773333 0,-1.12 -0.66666,-1.813333 -1.78666,-1.813333 -0.74667,0 -1.54667,0.293333 -2.29334,0.906666 -0.98666,0.746667 -1.78666,1.733334 -3.52,4.426667 l 1.70667,-5.306667 c -1.68,0.4 -2.32,0.48 -5.33333,0.72 v 0.72 c 0.69333,0 1.44,0.05333 1.44,0.666667 0,0.4 -0.21334,1.253333 -0.93334,3.84 l -1.78666,6.346666 h 3.22666 c 1.41334,-5.04 2.4,-7.306666 3.92,-9.119999 0.58667,-0.693334 1.33334,-1.253334 1.73334,-1.253334 0.26666,0 0.48,0.266667 0.48,0.586667 0,0.453333 -0.32,1.573333 -1.2,4.266666 l -1.73334,5.52 h 3.2 c 1.54667,-5.12 1.73334,-5.6 2.69334,-7.279999 1.12,-2 2.18666,-3.093334 2.98666,-3.093334 0.32,0 0.61334,0.266667 0.61334,0.56 0,0.16 -0.08,0.453334 -0.18667,0.8 l -1.2,3.493333 c -0.58667,1.706667 -0.96,3.306667 -0.96,4.08 0,1.093334 0.64,1.68 1.78667,1.68 1.65333,0 2.72,-0.88 4.26666,-3.493333 z"
       style="font-style:italic;font-variant:normal;font-weight:bold;font-stretch:normal;font-size:26.66666603px;font-family:'TeX Gyre Termes';-inkscape-font-specification:'TeX Gyre Termes Bold Italic'"
       id="path989" />
    <path
       d="m 257.16741,98.857391 v -0.666666 c -1.54666,-0.08 -1.92,-0.293334 -1.92,-1.146667 0,-0.48 0.08,-0.986667 0.26667,-1.466667 l 3.28,-11.973333 c 0.4,-1.386666 0.8,-1.76 2.16,-1.92 v -0.666666 h -5.65333 l -8.26667,12.799999 -1.44,-12.799999 h -5.89333 v 0.666666 c 1.68,0.08 1.92,0.186667 1.92,0.933334 0,0.373333 -0.10667,0.853333 -0.29334,1.546666 l -2.90666,9.946667 c -1.06667,3.466666 -1.25334,3.76 -2.69334,4.08 v 0.666666 h 5.52 v -0.666666 c -1.70666,-0.213334 -2.13333,-0.533334 -2.13333,-1.626667 0,-0.453333 0.13333,-1.12 0.50667,-2.453333 l 2.69333,-9.84 1.78667,14.906666 h 0.74666 l 10,-15.279999 -3.33333,12.373333 c -0.42667,1.44 -0.93333,1.813333 -2.66667,1.92 v 0.666666 z"
       style="font-style:italic;font-variant:normal;font-weight:bold;font-stretch:normal;font-size:26.66666603px;font-family:'TeX Gyre Termes';-inkscape-font-specification:'TeX Gyre Termes Bold Italic'"
       id="path991" />
    <path
       d="m 273.31867,95.657391 -0.56,-0.346666 c -0.93333,1.44 -1.46667,1.973333 -1.92,1.973333 -0.21333,0 -0.37333,-0.186667 -0.37333,-0.453333 0,-0.32 0.29333,-1.6 0.66666,-2.8 l 2.08,-7.146667 h -3.14666 c -1.49334,5.146667 -2.24,6.906667 -3.78667,8.826667 -0.82667,1.013333 -1.41333,1.466666 -1.94667,1.466666 -0.37333,0 -0.56,-0.213333 -0.56,-0.666666 0,-0.4 0.0267,-0.56 0.4,-1.76 l 2.50667,-8.213333 c -0.16,0.02667 -0.34667,0.05333 -0.74667,0.133333 -1.97333,0.346667 -3.54666,0.56 -4.82666,0.613333 v 0.72 c 1.22666,0.08 1.49333,0.213334 1.49333,0.746667 0,0.426667 -0.13333,1.173333 -0.37333,1.946667 l -1.06667,3.546666 c -0.37333,1.333333 -0.56,2.213333 -0.56,2.88 0,1.306667 0.66667,1.973333 2,1.973333 1.78667,0 2.58667,-0.693333 5.33333,-4.533333 -0.48,1.466667 -0.64,2.16 -0.64,2.933333 0,1.093334 0.56,1.6 1.73334,1.6 1.6,0 2.90666,-1.066666 4.29333,-3.44 z"
       style="font-style:italic;font-variant:normal;font-weight:bold;font-stretch:normal;font-size:26.66666603px;font-family:'TeX Gyre Termes';-inkscape-font-specification:'TeX Gyre Termes Bold Italic'"
       id="path993" />
    <path
       d="m 282.48242,95.684058 c 0,-1.2 -0.66667,-2.506667 -2.16,-4.24 -1.04,-1.2 -1.49333,-2 -1.49333,-2.613333 0,-0.853333 0.56,-1.413333 1.41333,-1.413333 1.22667,0 1.92,0.96 2.34667,3.173333 l 0.72,0.05333 0.61333,-4.08 h -0.77333 c -0.29334,0.506667 -0.37334,0.56 -0.77334,0.56 -0.26666,0 -0.48,-0.05333 -0.96,-0.24 -0.66666,-0.266666 -1.01333,-0.346666 -1.54666,-0.346666 -2.16,0 -3.57334,1.306666 -3.57334,3.36 0,1.44 0.37334,2.186666 2.13334,4.293333 1.01333,1.2 1.49333,2.106666 1.49333,2.773333 0,0.8 -0.66667,1.44 -1.52,1.44 -1.36,0 -2.21333,-1.173333 -2.56,-3.546667 l -0.72,-0.08 -0.58667,4.426667 h 0.72 c 0.10667,-0.32 0.42667,-0.533333 0.77334,-0.533333 0.18666,0 0.48,0.08 0.82666,0.213333 0.64,0.213333 1.12,0.32 1.68,0.32 2.26667,0 3.94667,-1.52 3.94667,-3.52 z"
       style="font-style:italic;font-variant:normal;font-weight:bold;font-stretch:normal;font-size:26.66666603px;font-family:'TeX Gyre Termes';-inkscape-font-specification:'TeX Gyre Termes Bold Italic'"
       id="path995" />
    <path
       d="m 291.75366,95.470725 -0.58666,-0.373334 -0.37334,0.533334 c -0.69333,1.04 -1.30666,1.6 -1.70666,1.6 -0.21334,0 -0.4,-0.186667 -0.4,-0.4 0,-0.24 0.13333,-0.933334 0.24,-1.386667 l 2.42666,-8.906666 c -1.44,0.32 -3.30666,0.586666 -5.38666,0.746666 v 0.72 h 0.34666 c 0.8,0 1.22667,0.266667 1.22667,0.773334 0,0.213333 -0.08,0.613333 -0.18667,1.066666 l -1.54666,5.733333 c -0.21334,0.773334 -0.34667,1.466667 -0.34667,1.84 0,1.013334 0.74667,1.68 1.84,1.68 1.6,0 2.58667,-0.8 4.45333,-3.626666 z m 0.74667,-12.346667 c 0,-0.986666 -0.82667,-1.813333 -1.84,-1.813333 -0.93333,0 -1.76,0.826667 -1.76,1.76 0,1.04 0.77333,1.84 1.76,1.84 1.01333,0 1.84,-0.8 1.84,-1.786667 z"
       style="font-style:italic;font-variant:normal;font-weight:bold;font-stretch:normal;font-size:26.66666603px;font-family:'TeX Gyre Termes';-inkscape-font-specification:'TeX Gyre Termes Bold Italic'"
       id="path997" />
    <path
       d="m 302.02949,95.577391 -0.74666,-0.48 c -1.28,1.786667 -2.10667,2.4 -3.25334,2.4 -1.17333,0 -1.94666,-0.96 -1.94666,-2.373333 0,-1.68 0.69333,-4.08 1.65333,-5.813333 0.72,-1.253333 1.46667,-1.893333 2.29333,-1.893333 0.32,0 0.58667,0.186666 0.58667,0.453333 0,0.106667 -0.0533,0.266667 -0.21333,0.506667 -0.24,0.426666 -0.34667,0.72 -0.34667,1.04 0,0.8 0.64,1.386666 1.54667,1.386666 0.98666,0 1.65333,-0.746666 1.65333,-1.866666 0,-1.413334 -1.2,-2.4 -2.98667,-2.4 -3.76,0 -7.6,4.373333 -7.6,8.639999 0,2.373334 1.65334,4.026667 4.08,4.026667 1.17334,0 2.32,-0.426667 3.22667,-1.2 0.69333,-0.586667 1.12,-1.093333 2.05333,-2.426667 z"
       style="font-style:italic;font-variant:normal;font-weight:bold;font-stretch:normal;font-size:26.66666603px;font-family:'TeX Gyre Termes';-inkscape-font-specification:'TeX Gyre Termes Bold Italic'"
       id="path999" />
    <path
       d="m 327.63909,85.150725 c 0,-2.693333 -1.97334,-4.133333 -5.68,-4.133333 h -7.65334 v 0.666666 l 0.82667,0.106667 c 0.82667,0.106667 1.12,0.346667 1.12,0.88 0,0.4 -0.10667,1.013333 -0.26667,1.626667 l -3.28,11.973333 c -0.42666,1.413333 -0.74666,1.706666 -2.13333,1.92 v 0.666666 h 7.84 v -0.666666 c -1.49333,-0.08 -1.92,-0.32 -1.92,-1.04 0,-0.266667 0.13333,-1.12 0.26667,-1.573334 l 1.44,-5.306666 c 0.93333,0.106667 1.44,0.133333 2.16,0.133333 4.42666,0 7.28,-2.053333 7.28,-5.253333 z m -4.48,2.08 c -0.69334,1.626667 -1.68,2.24 -3.57334,2.24 -0.34666,0 -0.66666,-0.02667 -1.12,-0.05333 l 1.70667,-6.373334 c 0.18667,-0.64 0.18667,-0.64 0.29333,-0.8 0.24,-0.266666 0.53334,-0.373333 1.04,-0.373333 1.41334,0 2.24,0.88 2.24,2.426667 0,0.933333 -0.24,2.106666 -0.58666,2.933333 z"
       style="font-style:italic;font-variant:normal;font-weight:bold;font-stretch:normal;font-size:26.66666603px;font-family:'TeX Gyre Termes';-inkscape-font-specification:'TeX Gyre Termes Bold Italic'"
       id="path1001" />
    <path
       d="m 333.94116,95.470725 -0.58666,-0.373334 c -1.06667,1.573334 -1.6,2.133334 -2.08,2.133334 -0.21334,0 -0.4,-0.186667 -0.4,-0.4 0,-0.373334 0.18666,-1.226667 0.58666,-2.666667 l 3.86667,-13.946666 c -2.29333,0.426666 -3.57333,0.613333 -5.57333,0.8 v 0.72 c 0.29333,-0.02667 0.42666,-0.02667 0.56,-0.02667 0.72,0 1.12,0.266667 1.12,0.746667 0,0.4 -0.34667,1.84 -0.88,3.786666 l -2,7.04 c -0.56,2 -0.90667,3.6 -0.90667,4.213333 0,0.96 0.72,1.6 1.81333,1.6 1.62667,0 2.64,-0.826666 4.48,-3.626666 z"
       style="font-style:italic;font-variant:normal;font-weight:bold;font-stretch:normal;font-size:26.66666603px;font-family:'TeX Gyre Termes';-inkscape-font-specification:'TeX Gyre Termes Bold Italic'"
       id="path1003" />
    <path
       d="m 347.12366,95.870725 -0.56,-0.4 c -1.09333,1.466666 -1.49333,1.866666 -1.92,1.866666 -0.21333,0 -0.32,-0.16 -0.32,-0.4 0,-0.666666 0.24,-1.76 0.90667,-3.946666 l 1.89333,-6.293333 -2.96,0.186666 -0.48,1.573334 c -0.24,-1.36 -0.82667,-1.92 -1.97333,-1.92 -3.28,0 -7.28,5.12 -7.28,9.279999 0,2.026667 1.14666,3.386667 2.88,3.386667 1.62666,0 2.85333,-0.96 4.37333,-3.52 -0.32,1.093333 -0.37333,1.413333 -0.37333,1.786667 0,0.986666 0.8,1.76 1.78666,1.76 1.25334,0 2.48,-1.04 4.02667,-3.36 z m -4.05333,-6.96 c 0,1.6 -0.88,4.56 -1.92,6.4 -0.72,1.306666 -1.52,2 -2.24,2 -0.69334,0 -1.2,-0.613334 -1.2,-1.44 0,-1.386667 0.88,-4.053333 1.97333,-6.026667 0.8,-1.413333 1.68,-2.24 2.4,-2.186666 0.58667,0.05333 0.98667,0.533333 0.98667,1.253333 z"
       style="font-style:italic;font-variant:normal;font-weight:bold;font-stretch:normal;font-size:26.66666603px;font-family:'TeX Gyre Termes';-inkscape-font-specification:'TeX Gyre Termes Bold Italic'"
       id="path1005" />
    <path
       d="m 358.777,88.244058 c 0,-0.906666 -0.77333,-1.706666 -1.65333,-1.706666 -0.8,0 -1.52,0.72 -1.52,1.52 0,0.666666 0.18667,0.986666 0.82667,1.466666 0.50666,0.373334 0.64,0.586667 0.64,0.933334 0,0.826666 -0.45334,1.893333 -2.32,5.466666 l -0.32,-2 c -0.58667,-3.173333 -1.28,-6.133333 -1.76,-7.386666 -1.28,0.32 -2.24,0.48 -3.97334,0.64 v 0.72 c 0.48,0 0.61334,0.02667 0.8,0.133333 0.45334,0.266667 0.88,1.36 1.28,3.253333 0.90667,4.32 1.33334,6.853333 1.33334,7.68 0,0.613333 -0.21334,1.200002 -0.66667,1.840002 -0.56,0.8 -1.33333,1.38666 -1.78667,1.38666 -0.18666,0 -0.66666,-0.18666 -0.90666,-0.37333 -0.45334,-0.32 -1.12,-0.56 -1.6,-0.56 -0.69334,0 -1.33334,0.69333 -1.33334,1.46667 0,0.90666 0.72,1.6 1.65334,1.6 1.46666,0 3.2,-1.04 4.66666,-2.82667 3.46667,-4.239999 6.64,-10.559998 6.64,-13.253332 z"
       style="font-style:italic;font-variant:normal;font-weight:bold;font-stretch:normal;font-size:26.66666603px;font-family:'TeX Gyre Termes';-inkscape-font-specification:'TeX Gyre Termes Bold Italic'"
       id="path1007" />
    <path
       d="m 368.8524,95.524058 -0.77333,-0.453333 c -1.22667,1.84 -2,2.426666 -3.14667,2.426666 -1.12,0 -1.70667,-0.746666 -1.70667,-2.186666 0,-0.426667 0.0533,-0.773334 0.16,-1.306667 2.77334,-0.533333 4.08,-1.12 5.41334,-2.346666 0.93333,-0.853334 1.44,-1.84 1.44,-2.8 0,-1.36 -1.17334,-2.32 -2.8,-2.32 -3.86667,0 -7.68,4.346666 -7.68,8.746666 0,2.266667 1.70666,3.92 4.02666,3.92 2.05334,0 3.46667,-1.04 5.06667,-3.68 z m -1.06667,-7.2 c 0,1.173334 -0.45333,2.32 -1.30666,3.2 -0.72,0.773334 -1.38667,1.146667 -2.90667,1.626667 0.96,-3.706667 2.18667,-5.733333 3.46667,-5.733333 0.50666,0 0.74666,0.293333 0.74666,0.906666 z"
       style="font-style:italic;font-variant:normal;font-weight:bold;font-stretch:normal;font-size:26.66666603px;font-family:'TeX Gyre Termes';-inkscape-font-specification:'TeX Gyre Termes Bold Italic'"
       id="path1009" />
    <path
       d="m 381.822,88.297392 c 0,-1.066667 -0.61333,-1.76 -1.52,-1.76 -1.36,0 -2.45333,1.333333 -4.56,5.573333 l 1.76,-5.573333 c -1.6,0.4 -2.10666,0.48 -5.33333,0.746666 v 0.72 c 1.2,0.05333 1.44,0.16 1.44,0.666667 0,0.666667 -0.82667,3.786667 -2.72,10.186666 h 3.22667 l 0.88,-2.773333 c 0.8,-2.586667 1.2,-3.6 1.92,-4.826666 0.72,-1.28 1.36,-2.026667 1.73333,-2.026667 0.10667,0 0.26667,0.106667 0.42667,0.346667 0.4,0.453333 0.74666,0.666666 1.2,0.666666 0.88,0 1.54666,-0.826666 1.54666,-1.946666 z"
       style="font-style:italic;font-variant:normal;font-weight:bold;font-stretch:normal;font-size:26.66666603px;font-family:'TeX Gyre Termes';-inkscape-font-specification:'TeX Gyre Termes Bold Italic'"
       id="path1011" />
  </g>
</svg>
