<?xml version="1.0" encoding="UTF-8" standalone="no"?>
<!-- Created with Inkscape (http://www.inkscape.org/) -->

<svg
   width="256"
   height="256"
   id="svg4756"
   version="1.1"
   inkscape:version="1.1.1 (3bf5ae0d25, 2021-09-20)"
   viewBox="0 0 256 256"
   sodipodi:docname="bdj4_icon_config.svg"
   inkscape:export-filename="/home/bll/s/bdj4/img/bdj4_icon_marquee.png"
   inkscape:export-xdpi="96"
   inkscape:export-ydpi="96"
   xmlns:inkscape="http://www.inkscape.org/namespaces/inkscape"
   xmlns:sodipodi="http://sodipodi.sourceforge.net/DTD/sodipodi-0.dtd"
   xmlns="http://www.w3.org/2000/svg"
   xmlns:svg="http://www.w3.org/2000/svg"
   xmlns:rdf="http://www.w3.org/1999/02/22-rdf-syntax-ns#">
  <defs
     id="defs4758" />
  <sodipodi:namedview
     id="base"
     pagecolor="#ffffff"
     bordercolor="#666666"
     borderopacity="1.0"
     inkscape:pageopacity="0"
     inkscape:pageshadow="2"
     inkscape:zoom="2.0742188"
     inkscape:cx="128"
     inkscape:cy="127.75894"
     inkscape:current-layer="layer7"
     showgrid="true"
     inkscape:document-units="px"
     inkscape:grid-bbox="true"
     showborder="true"
     inkscape:window-width="1614"
     inkscape:window-height="931"
     inkscape:window-x="140"
     inkscape:window-y="68"
     inkscape:window-maximized="0"
     inkscape:pagecheckerboard="true"
     fit-margin-top="0"
     fit-margin-left="0"
     fit-margin-right="0"
     fit-margin-bottom="0" />
  <metadata
     id="metadata4761">
    <rdf:RDF />
  </metadata>
  <g
     inkscape:groupmode="layer"
     id="layer5"
     inkscape:label="Background"
     style="display:inline"
     transform="translate(-8.5333405,-8.5333405)">
    <rect
       style="opacity:1;fill:#e7f98b;fill-opacity:0.80997419;stroke:none;stroke-width:0;stroke-miterlimit:4;stroke-dasharray:none;stroke-opacity:1"
       id="rect4218"
       width="256"
       height="256"
       x="8.5333405"
       y="8.5333405" />
  </g>
  <g
     id="layer1"
     inkscape:label="Note"
     inkscape:groupmode="layer"
     transform="translate(-8.5333405,183.46666)"
     style="display:inline">
    <g
       aria-label="♫"
       transform="scale(1.1629138,0.85990897)"
       id="text4173"
       style="font-size:9.45311px;line-height:0%;font-family:'Droid Serif';-inkscape-font-specification:'Droid Serif';letter-spacing:0px;word-spacing:0px;fill:#1d1c6b;stroke-width:0.787759px">
      <path
         d="m 73.901209,-193.008 101.991671,29.81522 0.4428,0.5904 V 29.130151 q 0,22.878015 -28.33922,29.077219 h -7.97041 q -31.43882,0 -31.43882,-24.206416 v -0.5904 q 0,-18.597613 26.12522,-21.844815 l 5.7564,-0.4428 q 12.69361,0 24.64922,8.560805 V -133.08236 L 84.233216,-158.02678 V -1.4230697 q 0,20.2212137 -22.140015,28.4868187 l -9.889207,1.180801 h -3.837602 q -31.881622,0 -31.881622,-22.8780152 V 4.3333341 q 0,-18.0072121 25.092017,-23.0256151 l 6.346805,-0.590401 q 13.136408,0 24.944416,9.8892069 V -191.6796 Z"
         style="font-size:302.285px;line-height:125%"
         id="path987" />
    </g>
  </g>
  <g
     inkscape:groupmode="layer"
     id="layer4"
     inkscape:label="BDJ"
     style="display:inline"
     transform="translate(-8.5333405,-8.5333405)">
    <g
       id="g39"
       transform="translate(9.7343909,-6.6473806)">
      <g
         aria-label="BDJ"
         id="text4150"
         style="line-height:0%;letter-spacing:0px;word-spacing:0px;display:inline;fill:#d71229;stroke-width:1px">
        <path
           d="m 48.965468,94.964998 q 0,-1.43 -0.66,-2.31 -0.55,-0.99 -2.31,-1.43 -1.65,-0.55 -2.2,-0.55 -0.55,-0.11 -2.86,-0.33 v -2.64 h 29.92 q 25.96,0 25.96,16.060002 0,4.4 -1.87,7.81 -1.87,3.3 -5.5,5.39 -3.52,2.09 -6.38,3.19 -2.75,1.1 -7.04,2.2 8.36,2.64 11.77,6.27 3.41,3.63 3.41,9.9 0,10.67 -8.69,16.72 -8.69,6.05 -23.87,6.05 h -33 v -2.75 q 3.85,-0.55 5.61,-2.09 1.76,-1.54 3.08,-5.83 l 13.53,-49.39 q 1.1,-4.620002 1.1,-6.270002 z m 7.26,62.810002 q 5.17,0 8.91,-2.31 3.85,-2.42 5.61,-6.05 1.87,-3.74 2.64,-7.04 0.88,-3.3 0.88,-6.27 0,-6.05 -3.74,-9.24 -2.64,-2.31 -12.65,-2.75 l -7.26,26.84 q -0.66,2.86 -0.66,3.3 0,3.52 6.27,3.52 z m 2.42,-36.96 q 3.63,-0.11 5.72,-0.33 2.09,-0.22 5.61,-1.21 3.63,-1.1 5.61,-2.86 1.98,-1.76 3.52,-5.39 1.65,-3.63 1.65,-8.69 0,-11.110002 -9.68,-11.110002 -2.64,0 -3.74,0.99 -1.1,0.88 -1.98,3.85 z"
           style="font-style:italic;font-weight:bold;font-size:110px;line-height:1.25;font-family:Kinnari;-inkscape-font-specification:'Kinnari Bold Italic'"
           id="path962" />
        <path
           d="m 119.8053,95.074998 q 0,-0.99 -0.33,-1.65 -0.22,-0.66 -0.55,-0.99 -0.22,-0.44 -1.1,-0.66 -0.88,-0.33 -1.54,-0.44 -0.55,-0.22 -2.09,-0.44 -1.43,-0.33 -2.42,-0.55 v -2.64 h 31.9 q 15.62,0 24.42,8.03 8.8,7.920002 8.8,22.110002 0,18.7 -14.08,31.13 -13.97,12.32 -34.98,12.32 H 96.485295 v -2.75 q 3.960005,-0.55 5.720005,-2.09 1.76,-1.54 2.97,-5.83 l 13.31,-49.06 q 1.32,-5.390002 1.32,-6.490002 z m 16.61,0.11 -14.19,52.690002 q -1.32,4.95 -1.32,6.05 0,3.63 5.94,3.63 8.69,0 15.4,-4.18 6.71,-4.18 10.56,-11 3.96,-6.93 5.83,-14.85 1.98,-8.03 1.98,-16.5 0,-20.020002 -18.04,-20.020002 -5.06,0 -6.16,4.18 z"
           style="font-style:italic;font-weight:bold;font-size:110px;line-height:1.25;font-family:Kinnari;-inkscape-font-specification:'Kinnari Bold Italic'"
           id="path964" />
        <path
           d="m 189.54522,160.305 q 0,1.76 -1.21,3.19 -1.21,1.43 -1.21,2.75 0,1.98 2.86,1.98 3.08,0 4.84,-3.63 1.76,-3.52 4.95,-15.84 l 12.65,-47.52 q 1.21,-4.620002 1.21,-6.600002 0,-3.19 -4.62,-3.63 l -3.41,-0.66 v -2.64 h 32.67 v 2.64 q -4.07,0.44 -5.83,2.09 -1.65,1.54 -3.19,5.83 l -13.97,52.910002 q -2.86,10.78 -8.58,15.95 -5.61,5.17 -14.52,5.17 -7.15,0 -11.77,-3.19 -4.73,-3.19 -4.73,-7.92 0,-3.3 1.98,-5.5 1.98,-2.31 4.95,-2.31 2.86,0 4.84,2.09 2.09,1.98 2.09,4.84 z"
           style="font-style:italic;font-weight:bold;font-size:110px;line-height:1.25;font-family:Kinnari;-inkscape-font-specification:'Kinnari Bold Italic'"
           id="path966" />
      </g>
      <g
         aria-label="BDJ"
         id="text4150-7"
         style="line-height:0%;letter-spacing:0px;word-spacing:0px;display:inline;fill:#e9b117;stroke-width:1px">
        <path
           d="m 40.965468,90.964998 q 0,-1.43 -0.66,-2.31 -0.55,-0.99 -2.31,-1.43 -1.65,-0.55 -2.2,-0.55 -0.55,-0.11 -2.86,-0.33 v -2.64 h 29.92 q 25.96,0 25.96,16.06 0,4.400002 -1.87,7.810002 -1.87,3.3 -5.5,5.39 -3.52,2.09 -6.38,3.19 -2.75,1.1 -7.04,2.2 8.36,2.64 11.77,6.27 3.41,3.63 3.41,9.9 0,10.67 -8.69,16.72 -8.69,6.05 -23.87,6.05 h -33 v -2.75 q 3.85,-0.55 5.61,-2.09 1.76,-1.54 3.08,-5.83 l 13.53,-49.390002 q 1.1,-4.62 1.1,-6.27 z m 7.26,62.810002 q 5.17,0 8.91,-2.31 3.85,-2.42 5.61,-6.05 1.87,-3.74 2.64,-7.04 0.88,-3.3 0.88,-6.27 0,-6.05 -3.74,-9.24 -2.64,-2.31 -12.65,-2.75 l -7.26,26.84 q -0.66,2.86 -0.66,3.3 0,3.52 6.27,3.52 z m 2.42,-36.96 q 3.63,-0.11 5.72,-0.33 2.09,-0.22 5.61,-1.21 3.63,-1.1 5.61,-2.86 1.98,-1.76 3.52,-5.39 1.65,-3.63 1.65,-8.690002 0,-11.11 -9.68,-11.11 -2.64,0 -3.74,0.99 -1.1,0.88 -1.98,3.85 z"
           style="font-style:italic;font-weight:bold;font-size:110px;line-height:1.25;font-family:Kinnari;-inkscape-font-specification:'Kinnari Bold Italic'"
           id="path937" />
        <path
           d="m 111.8053,91.074998 q 0,-0.99 -0.33,-1.65 -0.22,-0.66 -0.55,-0.99 -0.22,-0.44 -1.1,-0.66 -0.88,-0.33 -1.54,-0.44 -0.55,-0.22 -2.09,-0.44 -1.43,-0.33 -2.42,-0.55 v -2.64 h 31.9 q 15.62,0 24.42,8.03 8.8,7.92 8.8,22.110002 0,18.7 -14.08,31.13 -13.97,12.32 -34.98,12.32 H 88.485295 v -2.75 q 3.96,-0.55 5.72,-2.09 1.76,-1.54 2.97,-5.83 L 110.4853,97.564998 q 1.32,-5.39 1.32,-6.49 z m 16.61,0.11 -14.19,52.690002 q -1.32,4.95 -1.32,6.05 0,3.63 5.94,3.63 8.69,0 15.4,-4.18 6.71,-4.18 10.56,-11 3.96,-6.93 5.83,-14.85 1.98,-8.03 1.98,-16.5 0,-20.020002 -18.04,-20.020002 -5.06,0 -6.16,4.18 z"
           style="font-style:italic;font-weight:bold;font-size:110px;line-height:1.25;font-family:Kinnari;-inkscape-font-specification:'Kinnari Bold Italic'"
           id="path939" />
        <path
           d="m 181.54522,156.305 q 0,1.76 -1.21,3.19 -1.21,1.43 -1.21,2.75 0,1.98 2.86,1.98 3.08,0 4.84,-3.63 1.76,-3.52 4.95,-15.84 l 12.65,-47.520002 q 1.21,-4.62 1.21,-6.6 0,-3.19 -4.62,-3.63 l -3.41,-0.66 v -2.64 h 32.67 v 2.64 q -4.07,0.44 -5.83,2.09 -1.65,1.54 -3.19,5.83 l -13.97,52.910002 q -2.86,10.78 -8.58,15.95 -5.61,5.17 -14.52,5.17 -7.15,0 -11.77,-3.19 -4.73,-3.19 -4.73,-7.92 0,-3.3 1.98,-5.5 1.98,-2.31 4.95,-2.31 2.86,0 4.84,2.09 2.09,1.98 2.09,4.84 z"
           style="font-style:italic;font-weight:bold;font-size:110px;line-height:1.25;font-family:Kinnari;-inkscape-font-specification:'Kinnari Bold Italic'"
           id="path941" />
      </g>
      <g
         aria-label="BDJ"
         id="text4150-6"
         style="line-height:0%;letter-spacing:0px;word-spacing:0px;display:inline;stroke-width:1px">
        <path
           d="m 44.965468,92.424944 q 0,-1.43 -0.66,-2.31 -0.55,-0.99 -2.31,-1.43 -1.65,-0.55 -2.2,-0.55 -0.55,-0.11 -2.86,-0.33 v -2.64 h 29.92 q 25.96,0 25.96,16.059996 0,4.4 -1.87,7.81 -1.87,3.3 -5.5,5.39 -3.52,2.09 -6.38,3.19 -2.75,1.1 -7.04,2.2 8.36,2.64 11.77,6.27 3.41,3.63 3.41,9.9 0,10.67 -8.69,16.72 -8.69,6.05 -23.87,6.05 h -33 v -2.75 q 3.85,-0.55 5.61,-2.09 1.76,-1.54 3.08,-5.83 l 13.53,-49.389996 q 1.1,-4.62 1.1,-6.27 z m 7.26,62.809996 q 5.17,0 8.91,-2.31 3.85,-2.42 5.61,-6.05 1.87,-3.74 2.64,-7.04 0.88,-3.3 0.88,-6.27 0,-6.05 -3.74,-9.24 -2.64,-2.31 -12.65,-2.75 l -7.26,26.84 q -0.66,2.86 -0.66,3.3 0,3.52 6.27,3.52 z m 2.42,-36.96 q 3.63,-0.11 5.72,-0.33 2.09,-0.22 5.61,-1.21 3.63,-1.1 5.61,-2.86 1.98,-1.76 3.52,-5.39 1.65,-3.63 1.65,-8.689996 0,-11.11 -9.68,-11.11 -2.64,0 -3.74,0.99 -1.1,0.88 -1.98,3.85 z"
           style="font-style:italic;font-weight:bold;font-size:110px;line-height:1.25;font-family:Kinnari;-inkscape-font-specification:'Kinnari Bold Italic'"
           id="path912" />
        <path
           d="m 115.8053,92.534944 q 0,-0.99 -0.33,-1.65 -0.22,-0.66 -0.55,-0.99 -0.22,-0.44 -1.1,-0.66 -0.88,-0.33 -1.54,-0.44 -0.55,-0.22 -2.09,-0.44 -1.43,-0.33 -2.42,-0.55 v -2.64 h 31.9 q 15.62,0 24.42,8.03 8.8,7.919996 8.8,22.109996 0,18.7 -14.08,31.13 -13.97,12.32 -34.98,12.32 H 92.485295 v -2.75 q 3.96,-0.55 5.72,-2.09 1.76,-1.54 2.970005,-5.83 l 13.31,-49.059996 q 1.32,-5.39 1.32,-6.49 z m 16.61,0.11 -14.19,52.689996 q -1.32,4.95 -1.32,6.05 0,3.63 5.94,3.63 8.69,0 15.4,-4.18 6.71,-4.18 10.56,-11 3.96,-6.93 5.83,-14.85 1.98,-8.03 1.98,-16.5 0,-20.019996 -18.04,-20.019996 -5.06,0 -6.16,4.18 z"
           style="font-style:italic;font-weight:bold;font-size:110px;line-height:1.25;font-family:Kinnari;-inkscape-font-specification:'Kinnari Bold Italic'"
           id="path914" />
        <path
           d="m 185.54522,157.76494 q 0,1.76 -1.21,3.19 -1.21,1.43 -1.21,2.75 0,1.98 2.86,1.98 3.08,0 4.84,-3.63 1.76,-3.52 4.95,-15.84 l 12.65,-47.519996 q 1.21,-4.62 1.21,-6.6 0,-3.19 -4.62,-3.63 l -3.41,-0.66 v -2.64 h 32.67 v 2.64 q -4.07,0.44 -5.83,2.09 -1.65,1.54 -3.19,5.83 l -13.97,52.909996 q -2.86,10.78 -8.58,15.95 -5.61,5.17 -14.52,5.17 -7.15,0 -11.77,-3.19 -4.73,-3.19 -4.73,-7.92 0,-3.3 1.98,-5.5 1.98,-2.31 4.95,-2.31 2.86,0 4.84,2.09 2.09,1.98 2.09,4.84 z"
           style="font-style:italic;font-weight:bold;font-size:110px;line-height:1.25;font-family:Kinnari;-inkscape-font-specification:'Kinnari Bold Italic'"
           id="path916" />
      </g>
    </g>
  </g>
  <g
     inkscape:groupmode="layer"
     id="layer7"
     inkscape:label="4">
    <g
       aria-label="4"
       id="text67795"
       style="font-size:240px;line-height:1.25;letter-spacing:0px;word-spacing:0px;fill:#e9b117;stroke:#090102;stroke-width:3">
      <path
         d="m 241.54586,97.333017 q -1.68,6.480003 -21.12,91.440003 h 19.92 l -8.88,12.48 h -13.92 q -4.08,21.84 -4.08,24.72 0,4.08 2.64,8.88 l -0.48,1.68 q -12.72,2.64 -19.92,5.76 -1.92,-0.24 -5.04,-2.64 l 10.08,-38.4 q -1.92,0.24 -5.28,0.24 -7.68,0 -23.28,-0.48 -15.6,-0.48 -23.28,-0.48 6.24,-12.72 31.44,-43.44 10.56,-12.96 30.24,-35.28 l 9.84,-11.28 q 1.44,-1.92 4.32,-5.04 0.72,-0.72 16.8,-8.160003 z m -21.6,23.280003 q -18.24,22.08 -54.24,67.2 31.68,0.96 31.68,0.96 h 6.48 z"
         style="font-style:italic;font-family:'Chancery Uralic';-inkscape-font-specification:'Chancery Uralic Italic'"
         id="path891" />
    </g>
  </g>
  <g
     inkscape:groupmode="layer"
     id="g75580"
     inkscape:label="Configure"
     style="display:inline"
     transform="translate(-8.5333405,-8.5333405)">
    <g
       id="g1392"
       transform="matrix(1,0,0,1.0780787,-8.3849901,-4.6337216)">
      <g
         id="XMLID_891_"
         transform="matrix(0.13090832,0,0,0.12601353,16.354746,12.914595)"
         style="fill:#000000;fill-opacity:1">
        <g
           id="g8"
           style="fill:#000000;fill-opacity:1">
          <g
             id="g6"
             style="fill:#000000;fill-opacity:1">
            <path
               d="M 490,305 V 185 h -69.964 c -2.498,-7.291 -5.453,-14.42 -8.844,-21.34 L 460.667,114.185 375.814,29.332 326.34,78.807 C 319.421,75.417 312.289,72.462 305,69.964 V 0 H 185 v 69.964 c -7.29,2.498 -14.42,5.453 -21.34,8.843 L 114.185,29.332 29.332,114.185 78.807,163.66 c -3.391,6.92 -6.345,14.05 -8.843,21.34 H 0 v 120 h 69.964 c 2.498,7.291 5.453,14.42 8.843,21.34 l -49.475,49.475 84.853,84.853 49.475,-49.475 c 6.92,3.391 14.05,6.345 21.34,8.843 V 490 h 120 v -69.964 c 7.29,-2.498 14.42,-5.453 21.34,-8.843 l 49.475,49.475 84.853,-84.853 -49.475,-49.475 c 3.391,-6.919 6.346,-14.05 8.844,-21.34 z m -71.759,70.815 -42.427,42.426 -44.187,-44.186 -9.944,5.673 c -11.206,6.394 -23.199,11.364 -35.646,14.772 L 275,397.523 V 460 h -60 v -62.477 l -11.039,-3.022 c -12.445,-3.408 -24.438,-8.378 -35.646,-14.772 l -9.944,-5.673 -44.186,44.186 -42.426,-42.426 44.186,-44.186 -5.673,-9.944 C 103.878,310.48 98.908,298.487 95.5,286.04 L 92.478,275 H 30 V 215 H 92.478 L 95.5,203.961 c 3.408,-12.445 8.377,-24.438 14.771,-35.645 l 5.674,-9.944 -44.187,-44.187 42.426,-42.426 44.187,44.187 9.944,-5.674 c 11.207,-6.394 23.2,-11.364 35.645,-14.771 L 215,92.478 V 30 h 60 v 62.478 l 11.039,3.022 c 12.446,3.408 24.438,8.378 35.645,14.771 l 9.944,5.674 44.187,-44.187 42.427,42.426 -44.187,44.187 5.674,9.944 c 6.393,11.205 11.363,23.198 14.772,35.646 L 397.523,215 H 460 v 60 h -62.477 l -3.022,11.038 c -3.409,12.447 -8.38,24.44 -14.772,35.646 l -5.674,9.944 z"
               id="path2"
               style="fill:#000000;fill-opacity:1" />
            <path
               d="m 245,150 c -52.383,0 -95,42.617 -95,95 0,52.383 42.617,95 95,95 52.383,0 95,-42.617 95,-95 0,-52.383 -42.617,-95 -95,-95 z m 0,160 c -35.841,0 -65,-29.159 -65,-65 0,-35.841 29.159,-65 65,-65 35.841,0 65,29.159 65,65 0,35.841 -29.159,65 -65,65 z"
               id="path4"
               style="fill:#000000;fill-opacity:1" />
          </g>
        </g>
      </g>
      <path
         style="opacity:0.996;fill:#303030;fill-opacity:1;stroke-width:0.964218;stroke-linecap:round;stroke-opacity:0"
         d="m 36.298217,58.300548 -0.140025,-3.891546 -2.410546,-0.86961 c -1.3258,-0.478285 -3.115545,-1.161062 -3.97721,-1.517282 -1.557573,-0.643913 -1.582842,-0.631663 -4.354222,2.1108 l -2.787558,2.758471 -2.5158,-2.547445 -2.515801,-2.547445 2.807409,-2.778115 2.807408,-2.778115 -1.281244,-2.540084 C 21.225943,42.303131 20.525277,40.685513 20.373593,40.105471 20.116912,39.123922 19.810731,39.050847 15.95474,39.050847 h -4.143064 v -3.597049 -3.597049 l 4.136165,-0.139297 4.136165,-0.139298 0.881368,-2.506407 c 0.484752,-1.378524 1.22692,-2.999753 1.649262,-3.602731 0.743936,-1.062117 0.677379,-1.18765 -2.133212,-4.023448 l -2.901107,-2.927125 2.701844,-2.332602 2.701843,-2.332603 2.825244,2.795763 c 2.416948,2.391728 2.933952,2.705544 3.577462,2.171478 0.41372,-0.343357 2.106553,-1.114047 3.76185,-1.712644 l 3.009632,-1.088357 0.140025,-3.911811 0.140025,-3.9118101 h 3.596321 3.596322 v 4.0216161 4.021617 l 2.048964,0.612135 c 1.126931,0.336674 2.822946,1.00608 3.768923,1.487568 l 1.719958,0.875434 3.020948,-2.690976 3.020949,-2.690976 2.48029,2.480292 2.480293,2.480292 -2.790887,2.820313 -2.790883,2.820314 0.952244,1.643897 c 0.523734,0.904144 1.22206,2.565932 1.551837,3.692862 l 0.599595,2.048964 h 4.021615 4.021616 v 3.615819 3.615819 h -4.060541 -4.060541 l -0.578244,1.80791 c -0.318035,0.99435 -1.030846,2.630703 -1.584025,3.636339 l -1.005779,1.828429 2.872438,2.589568 2.872435,2.589567 -2.392423,2.45206 c -1.315832,1.348633 -2.576276,2.45206 -2.800987,2.45206 -0.224711,0 -1.576477,-1.104564 -3.003927,-2.454586 l -2.595361,-2.454585 -3.122789,1.249312 c -1.717533,0.687122 -3.465447,1.249313 -3.884253,1.249313 -0.634158,0 -0.761465,0.685121 -0.761465,4.097928 v 4.097928 h -3.596322 -3.596321 z m 9.02005,-12.204787 c 2.836993,-1.343471 5.199796,-3.684606 6.242987,-6.185738 0.920405,-2.206746 0.972345,-7.103351 0.09749,-9.191045 -2.618517,-6.248658 -10.590596,-9.344479 -16.773678,-6.513771 -7.5921,3.475778 -9.946663,11.936328 -5.092886,18.300055 3.46172,4.538619 10.222422,6.102071 15.526086,3.590499 z"
         id="path1141"
         transform="translate(8.5333405,8.5333405)" />
    </g>
  </g>
</svg>
