<?xml version="1.0" encoding="UTF-8" standalone="no"?>
<!-- Created with Inkscape (http://www.inkscape.org/) -->

<svg
   width="256"
   height="256"
   id="svg4756"
   version="1.1"
   inkscape:version="1.1.1 (3bf5ae0d25, 2021-09-20)"
   viewBox="0 0 256 256"
   sodipodi:docname="bdj4_icon_marquee.svg"
   inkscape:export-filename="/home/bll/s/bdj4/img/bdj4_icon_marquee.png"
   inkscape:export-xdpi="96"
   inkscape:export-ydpi="96"
   xmlns:inkscape="http://www.inkscape.org/namespaces/inkscape"
   xmlns:sodipodi="http://sodipodi.sourceforge.net/DTD/sodipodi-0.dtd"
   xmlns:xlink="http://www.w3.org/1999/xlink"
   xmlns="http://www.w3.org/2000/svg"
   xmlns:svg="http://www.w3.org/2000/svg"
   xmlns:rdf="http://www.w3.org/1999/02/22-rdf-syntax-ns#">
  <defs
     id="defs4758">
    <linearGradient
       inkscape:collect="always"
       id="linearGradient853">
      <stop
         style="stop-color:#e9b117;stop-opacity:1;"
         offset="0"
         id="stop849" />
      <stop
         style="stop-color:#e9b117;stop-opacity:0;"
         offset="1"
         id="stop851" />
    </linearGradient>
    <linearGradient
       inkscape:collect="always"
       xlink:href="#linearGradient853"
       id="linearGradient855"
       x1="19.593622"
       y1="42.477303"
       x2="241.64831"
       y2="42.477303"
       gradientUnits="userSpaceOnUse" />
  </defs>
  <sodipodi:namedview
     id="base"
     pagecolor="#ffffff"
     bordercolor="#666666"
     borderopacity="1.0"
     inkscape:pageopacity="0"
     inkscape:pageshadow="2"
     inkscape:zoom="2.0742188"
     inkscape:cx="123.66101"
     inkscape:cy="127.75894"
     inkscape:current-layer="layer1"
     showgrid="true"
     inkscape:document-units="px"
     inkscape:grid-bbox="true"
     showborder="true"
     inkscape:window-width="1614"
     inkscape:window-height="931"
     inkscape:window-x="140"
     inkscape:window-y="68"
     inkscape:window-maximized="0"
     inkscape:pagecheckerboard="true"
     fit-margin-top="0"
     fit-margin-left="0"
     fit-margin-right="0"
     fit-margin-bottom="0" />
  <metadata
     id="metadata4761">
    <rdf:RDF />
  </metadata>
  <g
     inkscape:groupmode="layer"
     id="layer5"
     inkscape:label="Background"
     style="display:inline"
     transform="translate(-8.5333405,-8.5333405)">
    <rect
       style="opacity:1;fill:#e7f98b;fill-opacity:0.80997419;stroke:none;stroke-width:0;stroke-miterlimit:4;stroke-dasharray:none;stroke-opacity:1"
       id="rect4218"
       width="256"
       height="256"
       x="8.5333405"
       y="8.5333405" />
  </g>
  <g
     id="layer1"
     inkscape:label="Note"
     inkscape:groupmode="layer"
     transform="translate(-8.5333405,183.46666)"
     style="display:inline">
    <g
       aria-label="♫"
       transform="scale(1.1629138,0.85990897)"
       id="text4173"
       style="font-size:9.45311px;line-height:0%;font-family:'Droid Serif';-inkscape-font-specification:'Droid Serif';letter-spacing:0px;word-spacing:0px;fill:#1d1c6b;stroke-width:0.787759px">
      <path
         d="m 73.901209,-193.008 101.991671,29.81522 0.4428,0.5904 V 29.130151 q 0,22.878015 -28.33922,29.077219 h -7.97041 q -31.43882,0 -31.43882,-24.206416 v -0.5904 q 0,-18.597613 26.12522,-21.844815 l 5.7564,-0.4428 q 12.69361,0 24.64922,8.560805 V -133.08236 L 84.233216,-158.02678 V -1.4230697 q 0,20.2212137 -22.140015,28.4868187 l -9.889207,1.180801 h -3.837602 q -31.881622,0 -31.881622,-22.8780152 V 4.3333341 q 0,-18.0072121 25.092017,-23.0256151 l 6.346805,-0.590401 q 13.136408,0 24.944416,9.8892069 V -191.6796 Z"
         style="font-size:302.285px;line-height:125%"
         id="path982" />
    </g>
  </g>
  <g
     inkscape:groupmode="layer"
     id="layer4"
     inkscape:label="BDJ"
     style="display:inline"
     transform="translate(-8.5333405,-8.5333405)">
    <g
       id="g39"
       transform="translate(5.5175234,-12.836109)">
      <g
         aria-label="BDJ"
         id="text4150"
         style="line-height:0%;letter-spacing:0px;word-spacing:0px;display:inline;fill:#d71229;stroke-width:1px">
        <path
           d="m 48.965468,94.964998 q 0,-1.43 -0.66,-2.31 -0.55,-0.99 -2.31,-1.43 -1.65,-0.55 -2.2,-0.55 -0.55,-0.11 -2.86,-0.33 v -2.64 h 29.92 q 25.96,0 25.96,16.060002 0,4.4 -1.87,7.81 -1.87,3.3 -5.5,5.39 -3.52,2.09 -6.38,3.19 -2.75,1.1 -7.04,2.2 8.36,2.64 11.77,6.27 3.41,3.63 3.41,9.9 0,10.67 -8.69,16.72 -8.69,6.05 -23.87,6.05 h -33 v -2.75 q 3.85,-0.55 5.61,-2.09 1.76,-1.54 3.08,-5.83 l 13.53,-49.39 q 1.1,-4.620002 1.1,-6.270002 z m 7.26,62.810002 q 5.17,0 8.91,-2.31 3.85,-2.42 5.61,-6.05 1.87,-3.74 2.64,-7.04 0.88,-3.3 0.88,-6.27 0,-6.05 -3.74,-9.24 -2.64,-2.31 -12.65,-2.75 l -7.26,26.84 q -0.66,2.86 -0.66,3.3 0,3.52 6.27,3.52 z m 2.42,-36.96 q 3.63,-0.11 5.72,-0.33 2.09,-0.22 5.61,-1.21 3.63,-1.1 5.61,-2.86 1.98,-1.76 3.52,-5.39 1.65,-3.63 1.65,-8.69 0,-11.110002 -9.68,-11.110002 -2.64,0 -3.74,0.99 -1.1,0.88 -1.98,3.85 z"
           style="font-style:italic;font-weight:bold;font-size:110px;line-height:1.25;font-family:Kinnari;-inkscape-font-specification:'Kinnari Bold Italic'"
           id="path957" />
        <path
           d="m 119.8053,95.074998 q 0,-0.99 -0.33,-1.65 -0.22,-0.66 -0.55,-0.99 -0.22,-0.44 -1.1,-0.66 -0.88,-0.33 -1.54,-0.44 -0.55,-0.22 -2.09,-0.44 -1.43,-0.33 -2.42,-0.55 v -2.64 h 31.9 q 15.62,0 24.42,8.03 8.8,7.920002 8.8,22.110002 0,18.7 -14.08,31.13 -13.97,12.32 -34.98,12.32 H 96.485295 v -2.75 q 3.960005,-0.55 5.720005,-2.09 1.76,-1.54 2.97,-5.83 l 13.31,-49.06 q 1.32,-5.390002 1.32,-6.490002 z m 16.61,0.11 -14.19,52.690002 q -1.32,4.95 -1.32,6.05 0,3.63 5.94,3.63 8.69,0 15.4,-4.18 6.71,-4.18 10.56,-11 3.96,-6.93 5.83,-14.85 1.98,-8.03 1.98,-16.5 0,-20.020002 -18.04,-20.020002 -5.06,0 -6.16,4.18 z"
           style="font-style:italic;font-weight:bold;font-size:110px;line-height:1.25;font-family:Kinnari;-inkscape-font-specification:'Kinnari Bold Italic'"
           id="path959" />
        <path
           d="m 189.54522,160.305 q 0,1.76 -1.21,3.19 -1.21,1.43 -1.21,2.75 0,1.98 2.86,1.98 3.08,0 4.84,-3.63 1.76,-3.52 4.95,-15.84 l 12.65,-47.52 q 1.21,-4.620002 1.21,-6.600002 0,-3.19 -4.62,-3.63 l -3.41,-0.66 v -2.64 h 32.67 v 2.64 q -4.07,0.44 -5.83,2.09 -1.65,1.54 -3.19,5.83 l -13.97,52.910002 q -2.86,10.78 -8.58,15.95 -5.61,5.17 -14.52,5.17 -7.15,0 -11.77,-3.19 -4.73,-3.19 -4.73,-7.92 0,-3.3 1.98,-5.5 1.98,-2.31 4.95,-2.31 2.86,0 4.84,2.09 2.09,1.98 2.09,4.84 z"
           style="font-style:italic;font-weight:bold;font-size:110px;line-height:1.25;font-family:Kinnari;-inkscape-font-specification:'Kinnari Bold Italic'"
           id="path961" />
      </g>
      <g
         aria-label="BDJ"
         id="text4150-7"
         style="line-height:0%;letter-spacing:0px;word-spacing:0px;display:inline;fill:#e9b117;stroke-width:1px">
        <path
           d="m 40.965468,90.964998 q 0,-1.43 -0.66,-2.31 -0.55,-0.99 -2.31,-1.43 -1.65,-0.55 -2.2,-0.55 -0.55,-0.11 -2.86,-0.33 v -2.64 h 29.92 q 25.96,0 25.96,16.06 0,4.400002 -1.87,7.810002 -1.87,3.3 -5.5,5.39 -3.52,2.09 -6.38,3.19 -2.75,1.1 -7.04,2.2 8.36,2.64 11.77,6.27 3.41,3.63 3.41,9.9 0,10.67 -8.69,16.72 -8.69,6.05 -23.87,6.05 h -33 v -2.75 q 3.85,-0.55 5.61,-2.09 1.76,-1.54 3.08,-5.83 l 13.53,-49.390002 q 1.1,-4.62 1.1,-6.27 z m 7.26,62.810002 q 5.17,0 8.91,-2.31 3.85,-2.42 5.61,-6.05 1.87,-3.74 2.64,-7.04 0.88,-3.3 0.88,-6.27 0,-6.05 -3.74,-9.24 -2.64,-2.31 -12.65,-2.75 l -7.26,26.84 q -0.66,2.86 -0.66,3.3 0,3.52 6.27,3.52 z m 2.42,-36.96 q 3.63,-0.11 5.72,-0.33 2.09,-0.22 5.61,-1.21 3.63,-1.1 5.61,-2.86 1.98,-1.76 3.52,-5.39 1.65,-3.63 1.65,-8.690002 0,-11.11 -9.68,-11.11 -2.64,0 -3.74,0.99 -1.1,0.88 -1.98,3.85 z"
           style="font-style:italic;font-weight:bold;font-size:110px;line-height:1.25;font-family:Kinnari;-inkscape-font-specification:'Kinnari Bold Italic'"
           id="path932" />
        <path
           d="m 111.8053,91.074998 q 0,-0.99 -0.33,-1.65 -0.22,-0.66 -0.55,-0.99 -0.22,-0.44 -1.1,-0.66 -0.88,-0.33 -1.54,-0.44 -0.55,-0.22 -2.09,-0.44 -1.43,-0.33 -2.42,-0.55 v -2.64 h 31.9 q 15.62,0 24.42,8.03 8.8,7.92 8.8,22.110002 0,18.7 -14.08,31.13 -13.97,12.32 -34.98,12.32 H 88.485295 v -2.75 q 3.96,-0.55 5.72,-2.09 1.76,-1.54 2.97,-5.83 L 110.4853,97.564998 q 1.32,-5.39 1.32,-6.49 z m 16.61,0.11 -14.19,52.690002 q -1.32,4.95 -1.32,6.05 0,3.63 5.94,3.63 8.69,0 15.4,-4.18 6.71,-4.18 10.56,-11 3.96,-6.93 5.83,-14.85 1.98,-8.03 1.98,-16.5 0,-20.020002 -18.04,-20.020002 -5.06,0 -6.16,4.18 z"
           style="font-style:italic;font-weight:bold;font-size:110px;line-height:1.25;font-family:Kinnari;-inkscape-font-specification:'Kinnari Bold Italic'"
           id="path934" />
        <path
           d="m 181.54522,156.305 q 0,1.76 -1.21,3.19 -1.21,1.43 -1.21,2.75 0,1.98 2.86,1.98 3.08,0 4.84,-3.63 1.76,-3.52 4.95,-15.84 l 12.65,-47.520002 q 1.21,-4.62 1.21,-6.6 0,-3.19 -4.62,-3.63 l -3.41,-0.66 v -2.64 h 32.67 v 2.64 q -4.07,0.44 -5.83,2.09 -1.65,1.54 -3.19,5.83 l -13.97,52.910002 q -2.86,10.78 -8.58,15.95 -5.61,5.17 -14.52,5.17 -7.15,0 -11.77,-3.19 -4.73,-3.19 -4.73,-7.92 0,-3.3 1.98,-5.5 1.98,-2.31 4.95,-2.31 2.86,0 4.84,2.09 2.09,1.98 2.09,4.84 z"
           style="font-style:italic;font-weight:bold;font-size:110px;line-height:1.25;font-family:Kinnari;-inkscape-font-specification:'Kinnari Bold Italic'"
           id="path936" />
      </g>
      <g
         aria-label="BDJ"
         id="text4150-6"
         style="line-height:0%;letter-spacing:0px;word-spacing:0px;display:inline;stroke-width:1px">
        <path
           d="m 44.965468,92.424944 q 0,-1.43 -0.66,-2.31 -0.55,-0.99 -2.31,-1.43 -1.65,-0.55 -2.2,-0.55 -0.55,-0.11 -2.86,-0.33 v -2.64 h 29.92 q 25.96,0 25.96,16.059996 0,4.4 -1.87,7.81 -1.87,3.3 -5.5,5.39 -3.52,2.09 -6.38,3.19 -2.75,1.1 -7.04,2.2 8.36,2.64 11.77,6.27 3.41,3.63 3.41,9.9 0,10.67 -8.69,16.72 -8.69,6.05 -23.87,6.05 h -33 v -2.75 q 3.85,-0.55 5.61,-2.09 1.76,-1.54 3.08,-5.83 l 13.53,-49.389996 q 1.1,-4.62 1.1,-6.27 z m 7.26,62.809996 q 5.17,0 8.91,-2.31 3.85,-2.42 5.61,-6.05 1.87,-3.74 2.64,-7.04 0.88,-3.3 0.88,-6.27 0,-6.05 -3.74,-9.24 -2.64,-2.31 -12.65,-2.75 l -7.26,26.84 q -0.66,2.86 -0.66,3.3 0,3.52 6.27,3.52 z m 2.42,-36.96 q 3.63,-0.11 5.72,-0.33 2.09,-0.22 5.61,-1.21 3.63,-1.1 5.61,-2.86 1.98,-1.76 3.52,-5.39 1.65,-3.63 1.65,-8.689996 0,-11.11 -9.68,-11.11 -2.64,0 -3.74,0.99 -1.1,0.88 -1.98,3.85 z"
           style="font-style:italic;font-weight:bold;font-size:110px;line-height:1.25;font-family:Kinnari;-inkscape-font-specification:'Kinnari Bold Italic'"
           id="path907" />
        <path
           d="m 115.8053,92.534944 q 0,-0.99 -0.33,-1.65 -0.22,-0.66 -0.55,-0.99 -0.22,-0.44 -1.1,-0.66 -0.88,-0.33 -1.54,-0.44 -0.55,-0.22 -2.09,-0.44 -1.43,-0.33 -2.42,-0.55 v -2.64 h 31.9 q 15.62,0 24.42,8.03 8.8,7.919996 8.8,22.109996 0,18.7 -14.08,31.13 -13.97,12.32 -34.98,12.32 H 92.485295 v -2.75 q 3.96,-0.55 5.72,-2.09 1.76,-1.54 2.970005,-5.83 l 13.31,-49.059996 q 1.32,-5.39 1.32,-6.49 z m 16.61,0.11 -14.19,52.689996 q -1.32,4.95 -1.32,6.05 0,3.63 5.94,3.63 8.69,0 15.4,-4.18 6.71,-4.18 10.56,-11 3.96,-6.93 5.83,-14.85 1.98,-8.03 1.98,-16.5 0,-20.019996 -18.04,-20.019996 -5.06,0 -6.16,4.18 z"
           style="font-style:italic;font-weight:bold;font-size:110px;line-height:1.25;font-family:Kinnari;-inkscape-font-specification:'Kinnari Bold Italic'"
           id="path909" />
        <path
           d="m 185.54522,157.76494 q 0,1.76 -1.21,3.19 -1.21,1.43 -1.21,2.75 0,1.98 2.86,1.98 3.08,0 4.84,-3.63 1.76,-3.52 4.95,-15.84 l 12.65,-47.519996 q 1.21,-4.62 1.21,-6.6 0,-3.19 -4.62,-3.63 l -3.41,-0.66 v -2.64 h 32.67 v 2.64 q -4.07,0.44 -5.83,2.09 -1.65,1.54 -3.19,5.83 l -13.97,52.909996 q -2.86,10.78 -8.58,15.95 -5.61,5.17 -14.52,5.17 -7.15,0 -11.77,-3.19 -4.73,-3.19 -4.73,-7.92 0,-3.3 1.98,-5.5 1.98,-2.31 4.95,-2.31 2.86,0 4.84,2.09 2.09,1.98 2.09,4.84 z"
           style="font-style:italic;font-weight:bold;font-size:110px;line-height:1.25;font-family:Kinnari;-inkscape-font-specification:'Kinnari Bold Italic'"
           id="path911" />
      </g>
    </g>
  </g>
  <g
     inkscape:groupmode="layer"
     id="layer7"
     inkscape:label="4">
    <g
       aria-label="4"
       id="text67795"
       style="font-size:240px;line-height:1.25;letter-spacing:0px;word-spacing:0px;fill:#e9b117;stroke:#090102;stroke-width:3">
      <path
         d="m 242.38922,103.23663 q -1.68,6.48 -21.12,91.44 h 19.92 l -8.88,12.48 h -13.92 q -4.08,21.84 -4.08,24.72 0,4.08 2.64,8.88 l -0.48,1.68 q -12.72,2.64 -19.92,5.76 -1.92,-0.24 -5.04,-2.64 l 10.08,-38.4 q -1.92,0.24 -5.28,0.24 -7.68,0 -23.28,-0.48 -15.6,-0.48 -23.28,-0.48 6.24,-12.72 31.44,-43.44 10.56,-12.96 30.24,-35.28 l 9.84,-11.28 q 1.44,-1.92 4.32,-5.04 0.72,-0.72 16.8,-8.16 z m -21.6,23.28 q -18.24,22.08 -54.24,67.2 31.68,0.96 31.68,0.96 h 6.48 z"
         style="font-style:italic;font-family:'Chancery Uralic';-inkscape-font-specification:'Chancery Uralic Italic'"
         id="path886" />
    </g>
  </g>
  <g
     inkscape:groupmode="layer"
     id="g75574"
     inkscape:label="Marquee"
     style="display:inline"
     transform="translate(-8.5333405,-8.5333405)">
    <g
       aria-label="MARQUEE"
       transform="scale(1.0452636,0.95669648)"
       id="text75572"
       style="font-size:48px;line-height:0%;letter-spacing:0px;word-spacing:0px;fill:#303030;fill-opacity:0.185652;stroke:#000000;stroke-width:2.5">
      <path
         d="m 38.546747,47.352303 8.742188,-24.75 h 9.210937 v 34.125 h -7.054687 v -9.328125 l 0.703125,-16.03125 -9.1875,25.359375 h -4.828125 l -9.1875,-25.359375 0.703125,16.03125 v 9.328125 h -7.054688 v -34.125 h 9.210938 z"
         style="font-weight:bold;line-height:1.25;font-family:Roboto;-inkscape-font-specification:'Roboto Bold';fill:#ffa600;fill-opacity:1"
         id="path853" />
      <path
         d="m 60.202997,56.727303 12.703125,-34.125 h 6.515625 l 12.773438,34.125 h -7.5 l -2.34375,-7.03125 H 69.999872 l -2.34375,7.03125 z M 71.89831,44.00074 h 8.554687 L 76.187372,31.180428 Z"
         style="font-weight:bold;line-height:1.25;font-family:Roboto;-inkscape-font-specification:'Roboto Bold';fill:#ffa600;fill-opacity:1"
         id="path855" />
      <path
         d="m 114.41393,56.727303 -6.375,-12.515625 h -5.60156 v 12.515625 h -7.054685 v -34.125 h 12.703125 q 5.88281,0 9.23437,2.648437 3.375,2.625 3.375,7.664063 0,3.703125 -1.64062,5.976562 -1.64063,2.273438 -4.45313,3.539063 l 7.38282,13.96875 v 0.328125 z M 102.43737,28.297615 v 10.242188 h 5.64844 q 2.76562,0 4.14844,-1.382813 1.40625,-1.40625 1.40625,-3.703125 0,-2.367187 -1.35938,-3.75 -1.35937,-1.40625 -4.19531,-1.40625 z"
         style="font-weight:bold;line-height:1.25;font-family:Roboto;-inkscape-font-specification:'Roboto Bold';fill:#ffa600;fill-opacity:1"
         id="path857" />
      <path
         d="m 153.83581,58.860115 -4.45313,3.960938 -7.24218,-5.835938 q -1.26563,0.210938 -2.625,0.210938 -6.42188,0 -10.5,-4.476563 -4.07813,-4.476562 -4.07813,-12.28125 v -1.523437 q 0,-7.804688 4.05469,-12.28125 4.05469,-4.5 10.47656,-4.5 6.44531,0 10.5,4.5 4.05469,4.476562 4.05469,12.28125 v 1.523437 q 0,4.734375 -1.54688,8.296875 -1.54687,3.5625 -4.26562,5.671875 z m -6.9375,-19.992187 q 0,-5.34375 -1.94531,-8.132813 -1.94532,-2.789062 -5.48438,-2.789062 -3.51562,0 -5.46094,2.765625 -1.92187,2.742187 -1.94531,8.039062 v 1.6875 q 0,5.320313 1.94531,8.15625 1.96875,2.8125 5.50782,2.8125 3.53906,0 5.4375,-2.789062 1.92187,-2.789063 1.94531,-8.0625 z"
         style="font-weight:bold;line-height:1.25;font-family:Roboto;-inkscape-font-specification:'Roboto Bold';fill:#ffa600;fill-opacity:1"
         id="path859" />
      <path
         d="m 177.953,22.602303 h 7.05468 v 22.5 q 0,5.953125 -3.70312,9.023437 -3.70313,3.070313 -9.375,3.070313 -5.74219,0 -9.42188,-3.070313 -3.67968,-3.070312 -3.67968,-9.023437 v -22.5 h 7.05468 v 22.5 q 0,3.375 1.59375,4.898437 1.61719,1.523438 4.45313,1.523438 5.88281,0 6.02344,-6.117188 z"
         style="font-weight:bold;line-height:1.25;font-family:Roboto;-inkscape-font-specification:'Roboto Bold';fill:#ffa600;fill-opacity:1"
         id="path861" />
      <path
         d="m 190.74987,56.727303 v -34.125 H 213.578 v 5.695312 h -15.77344 v 8.132813 h 13.47656 v 5.507812 h -13.47656 v 9.117188 h 15.84375 v 5.671875 z"
         style="font-weight:bold;line-height:1.25;font-family:Roboto;-inkscape-font-specification:'Roboto Bold';fill:#ffa600;fill-opacity:1"
         id="path863" />
      <path
         d="m 217.74987,56.727303 v -34.125 H 240.578 v 5.695312 h -15.77344 v 8.132813 h 13.47656 v 5.507812 h -13.47656 v 9.117188 h 15.84375 v 5.671875 z"
         style="font-weight:bold;line-height:1.25;font-family:Roboto;-inkscape-font-specification:'Roboto Bold';fill:#ffa600;fill-opacity:1"
         id="path865" />
    </g>
  </g>
</svg>
