<?xml version="1.0" encoding="UTF-8" standalone="no"?>
<!-- Created with Inkscape (http://www.inkscape.org/) -->

<svg
   width="256"
   height="256"
   id="svg4756"
   version="1.1"
   inkscape:version="1.1.1 (3bf5ae0d25, 2021-09-20)"
   viewBox="0 0 256 256"
   sodipodi:docname="bdj4_icon_inst.svg"
   inkscape:export-filename="/home/bll/s/bdj4/img/bdj4_icon_marquee.png"
   inkscape:export-xdpi="96"
   inkscape:export-ydpi="96"
   xmlns:inkscape="http://www.inkscape.org/namespaces/inkscape"
   xmlns:sodipodi="http://sodipodi.sourceforge.net/DTD/sodipodi-0.dtd"
   xmlns="http://www.w3.org/2000/svg"
   xmlns:svg="http://www.w3.org/2000/svg"
   xmlns:rdf="http://www.w3.org/1999/02/22-rdf-syntax-ns#">
  <defs
     id="defs4758" />
  <sodipodi:namedview
     id="base"
     pagecolor="#ffffff"
     bordercolor="#666666"
     borderopacity="1.0"
     inkscape:pageopacity="0"
     inkscape:pageshadow="2"
     inkscape:zoom="2.0742188"
     inkscape:cx="128"
     inkscape:cy="127.75894"
     inkscape:current-layer="layer1"
     showgrid="true"
     inkscape:document-units="px"
     inkscape:grid-bbox="true"
     showborder="true"
     inkscape:window-width="1614"
     inkscape:window-height="931"
     inkscape:window-x="140"
     inkscape:window-y="68"
     inkscape:window-maximized="0"
     inkscape:pagecheckerboard="true"
     fit-margin-top="0"
     fit-margin-left="0"
     fit-margin-right="0"
     fit-margin-bottom="0" />
  <metadata
     id="metadata4761">
    <rdf:RDF />
  </metadata>
  <g
     inkscape:groupmode="layer"
     id="layer5"
     inkscape:label="Background"
     style="display:inline"
     transform="translate(-8.5333405,-8.5333405)">
    <rect
       style="opacity:1;fill:#e7f98b;fill-opacity:0.80997419;stroke:none;stroke-width:0;stroke-miterlimit:4;stroke-dasharray:none;stroke-opacity:1"
       id="rect4218"
       width="256"
       height="256"
       x="8.5333405"
       y="8.5333405" />
  </g>
  <g
     id="layer1"
     inkscape:label="Note"
     inkscape:groupmode="layer"
     transform="translate(-8.5333405,183.46666)"
     style="display:inline">
    <g
       aria-label="♫"
       transform="scale(1.1629138,0.85990897)"
       id="text4173"
       style="font-size:9.45311px;line-height:0%;font-family:'Droid Serif';-inkscape-font-specification:'Droid Serif';letter-spacing:0px;word-spacing:0px;fill:#1d1c6b;stroke-width:0.787759px">
      <path
         d="m 73.901209,-193.008 101.991671,29.81522 0.4428,0.5904 V 29.130151 q 0,22.878015 -28.33922,29.077219 h -7.97041 q -31.43882,0 -31.43882,-24.206416 v -0.5904 q 0,-18.597613 26.12522,-21.844815 l 5.7564,-0.4428 q 12.69361,0 24.64922,8.560805 V -133.08236 L 84.233216,-158.02678 V -1.4230697 q 0,20.2212137 -22.140015,28.4868187 l -9.889207,1.180801 h -3.837602 q -31.881622,0 -31.881622,-22.8780152 V 4.3333341 q 0,-18.0072121 25.092017,-23.0256151 l 6.346805,-0.590401 q 13.136408,0 24.944416,9.8892069 V -191.6796 Z"
         style="font-size:302.285px;line-height:125%"
         id="path1001" />
    </g>
  </g>
  <g
     inkscape:groupmode="layer"
     id="layer4"
     inkscape:label="BDJ"
     style="display:inline"
     transform="translate(-8.5333405,-8.5333405)">
    <g
       id="g39"
       transform="translate(5.5175234,-12.836109)">
      <g
         aria-label="BDJ"
         id="text4150"
         style="line-height:0%;letter-spacing:0px;word-spacing:0px;display:inline;fill:#d71229;stroke-width:1px">
        <path
           d="m 48.965468,94.964998 q 0,-1.43 -0.66,-2.31 -0.55,-0.99 -2.31,-1.43 -1.65,-0.55 -2.2,-0.55 -0.55,-0.11 -2.86,-0.33 v -2.64 h 29.92 q 25.96,0 25.96,16.060002 0,4.4 -1.87,7.81 -1.87,3.3 -5.5,5.39 -3.52,2.09 -6.38,3.19 -2.75,1.1 -7.04,2.2 8.36,2.64 11.77,6.27 3.41,3.63 3.41,9.9 0,10.67 -8.69,16.72 -8.69,6.05 -23.87,6.05 h -33 v -2.75 q 3.85,-0.55 5.61,-2.09 1.76,-1.54 3.08,-5.83 l 13.53,-49.39 q 1.1,-4.620002 1.1,-6.270002 z m 7.26,62.810002 q 5.17,0 8.91,-2.31 3.85,-2.42 5.61,-6.05 1.87,-3.74 2.64,-7.04 0.88,-3.3 0.88,-6.27 0,-6.05 -3.74,-9.24 -2.64,-2.31 -12.65,-2.75 l -7.26,26.84 q -0.66,2.86 -0.66,3.3 0,3.52 6.27,3.52 z m 2.42,-36.96 q 3.63,-0.11 5.72,-0.33 2.09,-0.22 5.61,-1.21 3.63,-1.1 5.61,-2.86 1.98,-1.76 3.52,-5.39 1.65,-3.63 1.65,-8.69 0,-11.110002 -9.68,-11.110002 -2.64,0 -3.74,0.99 -1.1,0.88 -1.98,3.85 z"
           style="font-style:italic;font-weight:bold;font-size:110px;line-height:1.25;font-family:Kinnari;-inkscape-font-specification:'Kinnari Bold Italic'"
           id="path976" />
        <path
           d="m 119.8053,95.074998 q 0,-0.99 -0.33,-1.65 -0.22,-0.66 -0.55,-0.99 -0.22,-0.44 -1.1,-0.66 -0.88,-0.33 -1.54,-0.44 -0.55,-0.22 -2.09,-0.44 -1.43,-0.33 -2.42,-0.55 v -2.64 h 31.9 q 15.62,0 24.42,8.03 8.8,7.920002 8.8,22.110002 0,18.7 -14.08,31.13 -13.97,12.32 -34.98,12.32 H 96.485295 v -2.75 q 3.960005,-0.55 5.720005,-2.09 1.76,-1.54 2.97,-5.83 l 13.31,-49.06 q 1.32,-5.390002 1.32,-6.490002 z m 16.61,0.11 -14.19,52.690002 q -1.32,4.95 -1.32,6.05 0,3.63 5.94,3.63 8.69,0 15.4,-4.18 6.71,-4.18 10.56,-11 3.96,-6.93 5.83,-14.85 1.98,-8.03 1.98,-16.5 0,-20.020002 -18.04,-20.020002 -5.06,0 -6.16,4.18 z"
           style="font-style:italic;font-weight:bold;font-size:110px;line-height:1.25;font-family:Kinnari;-inkscape-font-specification:'Kinnari Bold Italic'"
           id="path978" />
        <path
           d="m 189.54522,160.305 q 0,1.76 -1.21,3.19 -1.21,1.43 -1.21,2.75 0,1.98 2.86,1.98 3.08,0 4.84,-3.63 1.76,-3.52 4.95,-15.84 l 12.65,-47.52 q 1.21,-4.620002 1.21,-6.600002 0,-3.19 -4.62,-3.63 l -3.41,-0.66 v -2.64 h 32.67 v 2.64 q -4.07,0.44 -5.83,2.09 -1.65,1.54 -3.19,5.83 l -13.97,52.910002 q -2.86,10.78 -8.58,15.95 -5.61,5.17 -14.52,5.17 -7.15,0 -11.77,-3.19 -4.73,-3.19 -4.73,-7.92 0,-3.3 1.98,-5.5 1.98,-2.31 4.95,-2.31 2.86,0 4.84,2.09 2.09,1.98 2.09,4.84 z"
           style="font-style:italic;font-weight:bold;font-size:110px;line-height:1.25;font-family:Kinnari;-inkscape-font-specification:'Kinnari Bold Italic'"
           id="path980" />
      </g>
      <g
         aria-label="BDJ"
         id="text4150-7"
         style="line-height:0%;letter-spacing:0px;word-spacing:0px;display:inline;fill:#e9b117;stroke-width:1px">
        <path
           d="m 40.965468,90.964998 q 0,-1.43 -0.66,-2.31 -0.55,-0.99 -2.31,-1.43 -1.65,-0.55 -2.2,-0.55 -0.55,-0.11 -2.86,-0.33 v -2.64 h 29.92 q 25.96,0 25.96,16.06 0,4.400002 -1.87,7.810002 -1.87,3.3 -5.5,5.39 -3.52,2.09 -6.38,3.19 -2.75,1.1 -7.04,2.2 8.36,2.64 11.77,6.27 3.41,3.63 3.41,9.9 0,10.67 -8.69,16.72 -8.69,6.05 -23.87,6.05 h -33 v -2.75 q 3.85,-0.55 5.61,-2.09 1.76,-1.54 3.08,-5.83 l 13.53,-49.390002 q 1.1,-4.62 1.1,-6.27 z m 7.26,62.810002 q 5.17,0 8.91,-2.31 3.85,-2.42 5.61,-6.05 1.87,-3.74 2.64,-7.04 0.88,-3.3 0.88,-6.27 0,-6.05 -3.74,-9.24 -2.64,-2.31 -12.65,-2.75 l -7.26,26.84 q -0.66,2.86 -0.66,3.3 0,3.52 6.27,3.52 z m 2.42,-36.96 q 3.63,-0.11 5.72,-0.33 2.09,-0.22 5.61,-1.21 3.63,-1.1 5.61,-2.86 1.98,-1.76 3.52,-5.39 1.65,-3.63 1.65,-8.690002 0,-11.11 -9.68,-11.11 -2.64,0 -3.74,0.99 -1.1,0.88 -1.98,3.85 z"
           style="font-style:italic;font-weight:bold;font-size:110px;line-height:1.25;font-family:Kinnari;-inkscape-font-specification:'Kinnari Bold Italic'"
           id="path951" />
        <path
           d="m 111.8053,91.074998 q 0,-0.99 -0.33,-1.65 -0.22,-0.66 -0.55,-0.99 -0.22,-0.44 -1.1,-0.66 -0.88,-0.33 -1.54,-0.44 -0.55,-0.22 -2.09,-0.44 -1.43,-0.33 -2.42,-0.55 v -2.64 h 31.9 q 15.62,0 24.42,8.03 8.8,7.92 8.8,22.110002 0,18.7 -14.08,31.13 -13.97,12.32 -34.98,12.32 H 88.485295 v -2.75 q 3.96,-0.55 5.72,-2.09 1.76,-1.54 2.97,-5.83 L 110.4853,97.564998 q 1.32,-5.39 1.32,-6.49 z m 16.61,0.11 -14.19,52.690002 q -1.32,4.95 -1.32,6.05 0,3.63 5.94,3.63 8.69,0 15.4,-4.18 6.71,-4.18 10.56,-11 3.96,-6.93 5.83,-14.85 1.98,-8.03 1.98,-16.5 0,-20.020002 -18.04,-20.020002 -5.06,0 -6.16,4.18 z"
           style="font-style:italic;font-weight:bold;font-size:110px;line-height:1.25;font-family:Kinnari;-inkscape-font-specification:'Kinnari Bold Italic'"
           id="path953" />
        <path
           d="m 181.54522,156.305 q 0,1.76 -1.21,3.19 -1.21,1.43 -1.21,2.75 0,1.98 2.86,1.98 3.08,0 4.84,-3.63 1.76,-3.52 4.95,-15.84 l 12.65,-47.520002 q 1.21,-4.62 1.21,-6.6 0,-3.19 -4.62,-3.63 l -3.41,-0.66 v -2.64 h 32.67 v 2.64 q -4.07,0.44 -5.83,2.09 -1.65,1.54 -3.19,5.83 l -13.97,52.910002 q -2.86,10.78 -8.58,15.95 -5.61,5.17 -14.52,5.17 -7.15,0 -11.77,-3.19 -4.73,-3.19 -4.73,-7.92 0,-3.3 1.98,-5.5 1.98,-2.31 4.95,-2.31 2.86,0 4.84,2.09 2.09,1.98 2.09,4.84 z"
           style="font-style:italic;font-weight:bold;font-size:110px;line-height:1.25;font-family:Kinnari;-inkscape-font-specification:'Kinnari Bold Italic'"
           id="path955" />
      </g>
      <g
         aria-label="BDJ"
         id="text4150-6"
         style="line-height:0%;letter-spacing:0px;word-spacing:0px;display:inline;stroke-width:1px">
        <path
           d="m 44.965468,92.424944 q 0,-1.43 -0.66,-2.31 -0.55,-0.99 -2.31,-1.43 -1.65,-0.55 -2.2,-0.55 -0.55,-0.11 -2.86,-0.33 v -2.64 h 29.92 q 25.96,0 25.96,16.059996 0,4.4 -1.87,7.81 -1.87,3.3 -5.5,5.39 -3.52,2.09 -6.38,3.19 -2.75,1.1 -7.04,2.2 8.36,2.64 11.77,6.27 3.41,3.63 3.41,9.9 0,10.67 -8.69,16.72 -8.69,6.05 -23.87,6.05 h -33 v -2.75 q 3.85,-0.55 5.61,-2.09 1.76,-1.54 3.08,-5.83 l 13.53,-49.389996 q 1.1,-4.62 1.1,-6.27 z m 7.26,62.809996 q 5.17,0 8.91,-2.31 3.85,-2.42 5.61,-6.05 1.87,-3.74 2.64,-7.04 0.88,-3.3 0.88,-6.27 0,-6.05 -3.74,-9.24 -2.64,-2.31 -12.65,-2.75 l -7.26,26.84 q -0.66,2.86 -0.66,3.3 0,3.52 6.27,3.52 z m 2.42,-36.96 q 3.63,-0.11 5.72,-0.33 2.09,-0.22 5.61,-1.21 3.63,-1.1 5.61,-2.86 1.98,-1.76 3.52,-5.39 1.65,-3.63 1.65,-8.689996 0,-11.11 -9.68,-11.11 -2.64,0 -3.74,0.99 -1.1,0.88 -1.98,3.85 z"
           style="font-style:italic;font-weight:bold;font-size:110px;line-height:1.25;font-family:Kinnari;-inkscape-font-specification:'Kinnari Bold Italic'"
           id="path926" />
        <path
           d="m 115.8053,92.534944 q 0,-0.99 -0.33,-1.65 -0.22,-0.66 -0.55,-0.99 -0.22,-0.44 -1.1,-0.66 -0.88,-0.33 -1.54,-0.44 -0.55,-0.22 -2.09,-0.44 -1.43,-0.33 -2.42,-0.55 v -2.64 h 31.9 q 15.62,0 24.42,8.03 8.8,7.919996 8.8,22.109996 0,18.7 -14.08,31.13 -13.97,12.32 -34.98,12.32 H 92.485295 v -2.75 q 3.96,-0.55 5.72,-2.09 1.76,-1.54 2.970005,-5.83 l 13.31,-49.059996 q 1.32,-5.39 1.32,-6.49 z m 16.61,0.11 -14.19,52.689996 q -1.32,4.95 -1.32,6.05 0,3.63 5.94,3.63 8.69,0 15.4,-4.18 6.71,-4.18 10.56,-11 3.96,-6.93 5.83,-14.85 1.98,-8.03 1.98,-16.5 0,-20.019996 -18.04,-20.019996 -5.06,0 -6.16,4.18 z"
           style="font-style:italic;font-weight:bold;font-size:110px;line-height:1.25;font-family:Kinnari;-inkscape-font-specification:'Kinnari Bold Italic'"
           id="path928" />
        <path
           d="m 185.54522,157.76494 q 0,1.76 -1.21,3.19 -1.21,1.43 -1.21,2.75 0,1.98 2.86,1.98 3.08,0 4.84,-3.63 1.76,-3.52 4.95,-15.84 l 12.65,-47.519996 q 1.21,-4.62 1.21,-6.6 0,-3.19 -4.62,-3.63 l -3.41,-0.66 v -2.64 h 32.67 v 2.64 q -4.07,0.44 -5.83,2.09 -1.65,1.54 -3.19,5.83 l -13.97,52.909996 q -2.86,10.78 -8.58,15.95 -5.61,5.17 -14.52,5.17 -7.15,0 -11.77,-3.19 -4.73,-3.19 -4.73,-7.92 0,-3.3 1.98,-5.5 1.98,-2.31 4.95,-2.31 2.86,0 4.84,2.09 2.09,1.98 2.09,4.84 z"
           style="font-style:italic;font-weight:bold;font-size:110px;line-height:1.25;font-family:Kinnari;-inkscape-font-specification:'Kinnari Bold Italic'"
           id="path930" />
      </g>
    </g>
  </g>
  <g
     inkscape:groupmode="layer"
     id="layer7"
     inkscape:label="4">
    <g
       aria-label="4"
       id="text67795"
       style="font-size:240px;line-height:1.25;letter-spacing:0px;word-spacing:0px;fill:#e9b117;stroke:#090102;stroke-width:3">
      <path
         d="m 242.38922,103.23663 q -1.68,6.48 -21.12,91.44 h 19.92 l -8.88,12.48 h -13.92 q -4.08,21.84 -4.08,24.72 0,4.08 2.64,8.88 l -0.48,1.68 q -12.72,2.64 -19.92,5.76 -1.92,-0.24 -5.04,-2.64 l 10.08,-38.4 q -1.92,0.24 -5.28,0.24 -7.68,0 -23.28,-0.48 -15.6,-0.48 -23.28,-0.48 6.24,-12.72 31.44,-43.44 10.56,-12.96 30.24,-35.28 l 9.84,-11.28 q 1.44,-1.92 4.32,-5.04 0.72,-0.72 16.8,-8.16 z m -21.6,23.28 q -18.24,22.08 -54.24,67.2 31.68,0.96 31.68,0.96 h 6.48 z"
         style="font-style:italic;font-family:'Chancery Uralic';-inkscape-font-specification:'Chancery Uralic Italic'"
         id="path905" />
    </g>
  </g>
  <g
     inkscape:groupmode="layer"
     id="layer6"
     inkscape:label="Install"
     style="display:inline"
     transform="translate(-8.5333405,-8.5333405)">
    <g
       aria-label="INSTALL"
       transform="scale(1.0452636,0.95669648)"
       id="text4153"
       style="font-size:53.3333px;line-height:0%;letter-spacing:0px;word-spacing:0px;fill:#303030;stroke:#000000;stroke-width:2.5">
      <path
         d="M 36.128834,18.810658 V 56.727303 H 28.316338 V 18.810658 Z"
         style="font-weight:bold;line-height:1.25;font-family:Roboto;-inkscape-font-specification:'Roboto Bold';fill:#ffa600"
         id="path872" />
      <path
         d="M 74.253811,18.810658 V 56.727303 H 66.441316 L 51.232992,31.753359 V 56.727303 H 43.394455 V 18.810658 h 7.838537 L 66.441316,43.810644 V 18.810658 Z"
         style="font-weight:bold;line-height:1.25;font-family:Roboto;-inkscape-font-specification:'Roboto Bold';fill:#ffa600"
         id="path874" />
      <path
         d="m 100.76421,46.779392 q 0,-1.901041 -1.302081,-3.15104 -1.302082,-1.276041 -6.328121,-2.890623 -4.999997,-1.640624 -8.645828,-4.218748 -3.828123,-2.68229 -3.828123,-7.630204 0,-4.765622 3.93229,-7.682287 3.932289,-2.916665 10.078119,-2.916665 6.302084,0 10.104164,3.30729 3.80208,3.281248 3.80208,8.385412 h -7.8125 q 0,-2.395832 -1.536456,-3.932289 -1.536457,-1.536458 -4.687497,-1.536458 -3.072915,0 -4.58333,1.302083 -1.484374,1.276041 -1.484374,3.098956 0,1.874999 1.927082,3.124998 1.927082,1.25 5.598955,2.369791 6.22395,1.90104 9.40104,4.765622 3.20312,2.864581 3.20312,7.552079 0,4.973955 -3.75,7.760412 -3.75,2.760415 -9.999993,2.760415 -3.776039,0 -7.291662,-1.328125 -3.515623,-1.328124 -5.781247,-4.088539 -2.265623,-2.760415 -2.265623,-7.057287 h 7.838537 q 0,3.463539 2.05729,4.869788 2.083332,1.40625 5.442705,1.40625 3.020832,0 4.453122,-1.223958 1.458331,-1.223958 1.458331,-3.046873 z"
         style="font-weight:bold;line-height:1.25;font-family:Roboto;-inkscape-font-specification:'Roboto Bold';fill:#ffa600"
         id="path876" />
      <path
         d="m 111.54546,25.13878 v -6.328122 h 30.85936 v 6.328122 h -11.58854 v 31.588523 h -7.8125 V 25.13878 Z"
         style="font-weight:bold;line-height:1.25;font-family:Roboto;-inkscape-font-specification:'Roboto Bold';fill:#ffa600"
         id="path878" />
      <path
         d="m 140.55586,56.727303 14.11457,-37.916645 h 7.23958 l 14.1927,37.916645 h -8.33333 l -2.60416,-7.812496 h -13.72395 l -2.60417,7.812496 z m 12.99478,-14.140617 h 9.5052 l -4.73958,-14.244783 z"
         style="font-weight:bold;line-height:1.25;font-family:Roboto;-inkscape-font-specification:'Roboto Bold';fill:#ffa600"
         id="path880" />
      <path
         d="m 204.0454,50.425223 v 6.30208 H 179.64438 V 18.810658 h 7.83853 v 31.614565 z"
         style="font-weight:bold;line-height:1.25;font-family:Roboto;-inkscape-font-specification:'Roboto Bold';fill:#ffa600"
         id="path882" />
      <path
         d="m 232.92559,50.425223 v 6.30208 H 208.52457 V 18.810658 h 7.83853 v 31.614565 z"
         style="font-weight:bold;line-height:1.25;font-family:Roboto;-inkscape-font-specification:'Roboto Bold';fill:#ffa600"
         id="path884" />
    </g>
  </g>
</svg>
