<?xml version="1.0" encoding="UTF-8" standalone="no"?>
<svg
   xmlns:dc="http://purl.org/dc/elements/1.1/"
   xmlns:cc="http://creativecommons.org/ns#"
   xmlns:rdf="http://www.w3.org/1999/02/22-rdf-syntax-ns#"
   xmlns:svg="http://www.w3.org/2000/svg"
   xmlns="http://www.w3.org/2000/svg"
   xmlns:sodipodi="http://sodipodi.sourceforge.net/DTD/sodipodi-0.dtd"
   xmlns:inkscape="http://www.inkscape.org/namespaces/inkscape"
   width="17"
   height="18"
   version="1.1"
   id="svg1673"
   sodipodi:docname="button_repeat.svg"
   inkscape:version="0.92.4 (5da689c313, 2019-01-14)">
  <metadata
     id="metadata1679">
    <rdf:RDF>
      <cc:Work
         rdf:about="">
        <dc:format>image/svg+xml</dc:format>
        <dc:type
           rdf:resource="http://purl.org/dc/dcmitype/StillImage" />
        <dc:title></dc:title>
      </cc:Work>
    </rdf:RDF>
  </metadata>
  <defs
     id="defs1677">
    <linearGradient
       y2="123.9133"
       y1="4.25"
       x2="64"
       x1="64"
       gradientUnits="userSpaceOnUse"
       id="SVGID_1_">
      <stop
         id="stop1646"
         style="stop-color:#FFAB40"
         offset="0" />
      <stop
         id="stop1648"
         style="stop-color:#FF6D00"
         offset="1" />
    </linearGradient>
  </defs>
  <sodipodi:namedview
     pagecolor="#ffffff"
     bordercolor="#666666"
     borderopacity="1"
     objecttolerance="10"
     gridtolerance="10"
     guidetolerance="10"
     inkscape:pageopacity="0"
     inkscape:pageshadow="2"
     inkscape:window-width="1024"
     inkscape:window-height="480"
     id="namedview1675"
     showgrid="false"
     inkscape:zoom="14.82505"
     inkscape:cx="8.330495"
     inkscape:cy="9.024156"
     inkscape:window-x="41"
     inkscape:window-y="0"
     inkscape:window-maximized="0"
     inkscape:current-layer="svg1673"
     fit-margin-top="0"
     fit-margin-left="0"
     fit-margin-right="0"
     fit-margin-bottom="0"
     showborder="false"
     inkscape:pagecheckerboard="true" />
  <g
     style="fill:#c01c28;fill-opacity:1"
     id="g1667"
     transform="matrix(0.17708333,0,0,0.1730874,-2.8333333,-2.0775938)">
    <path
       d="M 86.63,67 C 84.05,69.27 80,67.43 80,63.99 V 50 c 0,-1.1 -0.9,-2 -2,-2 H 44 C 39.18,48 32.45,49.51 32,60 L 17.22,73.32 C 17.21,73.31 17.2,73.3 17.2,73.29 16.42,70.35 16,67.23 16,64 16,46.33 28.54,32 44,32 h 34 c 1.1,0 2,-0.9 2,-2 V 16.01 c 0,-3.44 4.05,-5.27 6.63,-3.01 l 24,23.99 c 1.82,1.59 1.82,4.43 0,6.02 z"
       style="fill:#c01c28;fill-opacity:1"
       id="path1663"
       inkscape:connector-curvature="0" />
    <path
       d="M 41.37,61 C 43.96,58.74 48,60.57 48,64.01 V 78 c 0,1.1 0.9,2 2,2 h 34 c 4.82,0 11.55,-1.51 12,-12 l 14.78,-13.32 c 0.01,0.01 0.02,0.02 0.02,0.03 0.78,2.94 1.2,6.06 1.2,9.29 0,17.67 -12.54,32 -28,32 H 50 c -1.1,0 -2,0.9 -2,2 v 13.99 c 0,3.44 -4.05,5.27 -6.63,3.01 l -24,-23.99 c -1.82,-1.59 -1.82,-4.43 0,-6.02 z"
       style="fill:#c01c28;fill-opacity:1"
       id="path1665"
       inkscape:connector-curvature="0" />
  </g>
</svg>
