<?xml version="1.0" encoding="UTF-8" standalone="no"?>
<svg
   enable-background="new 0 0 128 128"
   viewBox="0 0 18 18"
   version="1.1"
   id="svg29"
   sodipodi:docname="button_pause.svg"
   width="18"
   height="18"
   inkscape:version="1.1.1 (3bf5ae0d25, 2021-09-20)"
   xmlns:inkscape="http://www.inkscape.org/namespaces/inkscape"
   xmlns:sodipodi="http://sodipodi.sourceforge.net/DTD/sodipodi-0.dtd"
   xmlns="http://www.w3.org/2000/svg"
   xmlns:svg="http://www.w3.org/2000/svg"
   xmlns:rdf="http://www.w3.org/1999/02/22-rdf-syntax-ns#"
   xmlns:cc="http://creativecommons.org/ns#"
   xmlns:dc="http://purl.org/dc/elements/1.1/">
  <metadata
     id="metadata35">
    <rdf:RDF>
      <cc:Work
         rdf:about="">
        <dc:format>image/svg+xml</dc:format>
        <dc:type
           rdf:resource="http://purl.org/dc/dcmitype/StillImage" />
      </cc:Work>
    </rdf:RDF>
  </metadata>
  <defs
     id="defs33" />
  <sodipodi:namedview
     pagecolor="#ffffff"
     bordercolor="#666666"
     borderopacity="1"
     objecttolerance="10"
     gridtolerance="10"
     guidetolerance="10"
     inkscape:pageopacity="0"
     inkscape:pageshadow="2"
     inkscape:window-width="1466"
     inkscape:window-height="870"
     id="namedview31"
     showgrid="false"
     inkscape:zoom="28.944444"
     inkscape:cx="9"
     inkscape:cy="8.9827255"
     inkscape:window-x="51"
     inkscape:window-y="0"
     inkscape:window-maximized="0"
     inkscape:current-layer="svg29"
     fit-margin-top="0"
     fit-margin-left="0"
     fit-margin-right="0"
     fit-margin-bottom="0"
     inkscape:pagecheckerboard="true"
     showborder="true"
     inkscape:showpageshadow="false"
     width="18px" />
  <linearGradient
     id="a"
     x1="64"
     x2="64"
     y1="4.25"
     y2="123.91"
     gradientUnits="userSpaceOnUse">
    <stop
       stop-color="#FFAB40"
       offset="0"
       id="stop2" />
    <stop
       stop-color="#FF6D00"
       offset="1"
       id="stop4" />
  </linearGradient>
  <g
     id="g870"
     transform="matrix(0.27388531,0,0,0.26410372,-20.106117,-7.4729099)">
    <path
       d="M 100.40119,90.372881 H 90.141186 c -1.03,0 -1.87,-0.84 -1.87,-1.87 v -52.26 c 0,-1.03 0.84,-1.87 1.87,-1.87 h 10.260004 c 1.03,0 1.87,0.84 1.87,1.87 v 52.26 c 0,1.03 -0.84,1.87 -1.87,1.87 z"
       id="path21"
       inkscape:connector-curvature="0"
       style="fill:#209d1b;fill-opacity:1" />
    <path
       d="m 122.40119,90.372881 h -10.26 c -1.03,0 -1.87,-0.84 -1.87,-1.87 v -52.26 c 0,-1.03 0.84,-1.87 1.87,-1.87 h 10.26 c 1.03,0 1.87,0.84 1.87,1.87 v 52.26 c 0,1.03 -0.84,1.87 -1.87,1.87 z"
       id="path23"
       inkscape:connector-curvature="0"
       style="fill:#209d1b;fill-opacity:1" />
  </g>
</svg>
