<?xml version="1.0" encoding="UTF-8" standalone="no"?>
<svg
   xmlns:dc="http://purl.org/dc/elements/1.1/"
   xmlns:cc="http://creativecommons.org/ns#"
   xmlns:rdf="http://www.w3.org/1999/02/22-rdf-syntax-ns#"
   xmlns:svg="http://www.w3.org/2000/svg"
   xmlns="http://www.w3.org/2000/svg"
   xmlns:sodipodi="http://sodipodi.sourceforge.net/DTD/sodipodi-0.dtd"
   xmlns:inkscape="http://www.inkscape.org/namespaces/inkscape"
   enable-background="new 0 0 128 128"
   viewBox="0 0 35 18"
   version="1.1"
   id="svg29"
   sodipodi:docname="button_playpause.svg"
   width="35"
   height="18"
   inkscape:version="0.92.4 (5da689c313, 2019-01-14)">
  <metadata
     id="metadata35">
    <rdf:RDF>
      <cc:Work
         rdf:about="">
        <dc:format>image/svg+xml</dc:format>
        <dc:type
           rdf:resource="http://purl.org/dc/dcmitype/StillImage" />
        <dc:title></dc:title>
      </cc:Work>
    </rdf:RDF>
  </metadata>
  <defs
     id="defs33" />
  <sodipodi:namedview
     pagecolor="#ffffff"
     bordercolor="#666666"
     borderopacity="1"
     objecttolerance="10"
     gridtolerance="10"
     guidetolerance="10"
     inkscape:pageopacity="0"
     inkscape:pageshadow="2"
     inkscape:window-width="1119"
     inkscape:window-height="480"
     id="namedview31"
     showgrid="false"
     inkscape:zoom="9.8094957"
     inkscape:cx="17.432089"
     inkscape:cy="9.0255581"
     inkscape:window-x="41"
     inkscape:window-y="0"
     inkscape:window-maximized="0"
     inkscape:current-layer="svg29"
     fit-margin-top="0"
     fit-margin-left="0"
     fit-margin-right="0"
     fit-margin-bottom="0"
     inkscape:pagecheckerboard="true"
     showborder="false" />
  <linearGradient
     id="a"
     x1="64"
     x2="64"
     y1="4.25"
     y2="123.91"
     gradientUnits="userSpaceOnUse">
    <stop
       stop-color="#FFAB40"
       offset="0"
       id="stop2" />
    <stop
       stop-color="#FF6D00"
       offset="1"
       id="stop4" />
  </linearGradient>
  <g
     id="g3228"
     transform="scale(0.90402146,0.89796331)">
    <g
       transform="matrix(0.35794986,0,0,0.35794986,-5.76696,-12.303683)"
       id="g870">
      <path
         style="fill:#c01c28;fill-opacity:1"
         inkscape:connector-curvature="0"
         id="path21"
         d="M 100.40119,90.372881 H 90.141186 c -1.03,0 -1.87,-0.84 -1.87,-1.87 v -52.26 c 0,-1.03 0.84,-1.87 1.87,-1.87 h 10.260004 c 1.03,0 1.87,0.84 1.87,1.87 v 52.26 c 0,1.03 -0.84,1.87 -1.87,1.87 z" />
      <path
         style="fill:#c01c28;fill-opacity:1"
         inkscape:connector-curvature="0"
         id="path23"
         d="m 122.40119,90.372881 h -10.26 c -1.03,0 -1.87,-0.84 -1.87,-1.87 v -52.26 c 0,-1.03 0.84,-1.87 1.87,-1.87 h 10.26 c 1.03,0 1.87,0.84 1.87,1.87 v 52.26 c 0,1.03 -0.84,1.87 -1.87,1.87 z" />
    </g>
    <path
       d="M 0,10.021703 V 0.8367081 C 0,0.195978 0.6765251,-0.2049254 1.2170296,0.1100704 L 16.76995,9.2950652 c 0.547664,0.322155 0.547664,1.1311218 0,1.4496958 L 1.2170296,19.933335 C 0.6729456,20.25191 0,19.851005 0,19.206697 Z"
       id="path25"
       inkscape:connector-curvature="0"
       style="fill:#c01c28;fill-opacity:1;stroke-width:0.35794985" />
    <path
       d="m 18.593513,20.045362 h -2.414041 c -0.242346,0 -0.363418,-0.300682 -0.269532,-0.669372 L 20.673552,0.6693711 C 20.767442,0.3006804 21.041649,5e-7 21.283993,5e-7 h 2.41404 c 0.242346,0 0.363419,0.3006799 0.269531,0.6693706 L 19.203953,19.37599 c -0.09389,0.36869 -0.368095,0.669372 -0.61044,0.669372 z"
       id="path21-3"
       inkscape:connector-curvature="0"
       style="fill:#c01c28;fill-opacity:1;stroke:#c01c28;stroke-width:0;stroke-linecap:square;stroke-linejoin:miter;stroke-miterlimit:4;stroke-dasharray:none;stroke-opacity:1;paint-order:normal" />
  </g>
</svg>
