<?xml version="1.0" encoding="UTF-8" standalone="no"?>
<svg
   xmlns:dc="http://purl.org/dc/elements/1.1/"
   xmlns:cc="http://creativecommons.org/ns#"
   xmlns:rdf="http://www.w3.org/1999/02/22-rdf-syntax-ns#"
   xmlns:svg="http://www.w3.org/2000/svg"
   xmlns="http://www.w3.org/2000/svg"
   xmlns:sodipodi="http://sodipodi.sourceforge.net/DTD/sodipodi-0.dtd"
   xmlns:inkscape="http://www.inkscape.org/namespaces/inkscape"
   enable-background="new 0 0 128 128"
   viewBox="0 0 35 18"
   version="1.1"
   id="svg29"
   sodipodi:docname="button_nexttrack.svg"
   width="35"
   height="18"
   inkscape:version="0.92.4 (5da689c313, 2019-01-14)">
  <metadata
     id="metadata35">
    <rdf:RDF>
      <cc:Work
         rdf:about="">
        <dc:format>image/svg+xml</dc:format>
        <dc:type
           rdf:resource="http://purl.org/dc/dcmitype/StillImage" />
        <dc:title></dc:title>
      </cc:Work>
    </rdf:RDF>
  </metadata>
  <defs
     id="defs33" />
  <sodipodi:namedview
     pagecolor="#ffffff"
     bordercolor="#666666"
     borderopacity="1"
     objecttolerance="10"
     gridtolerance="10"
     guidetolerance="10"
     inkscape:pageopacity="0"
     inkscape:pageshadow="2"
     inkscape:window-width="1119"
     inkscape:window-height="480"
     id="namedview31"
     showgrid="false"
     inkscape:zoom="9.6700364"
     inkscape:cx="17.683491"
     inkscape:cy="9.0290209"
     inkscape:window-x="41"
     inkscape:window-y="0"
     inkscape:window-maximized="0"
     inkscape:current-layer="svg29"
     fit-margin-top="0"
     fit-margin-left="0"
     fit-margin-right="0"
     fit-margin-bottom="0"
     scale-x="1"
     inkscape:pagecheckerboard="true"
     showborder="false" />
  <linearGradient
     id="a"
     x1="64"
     x2="64"
     y1="4.25"
     y2="123.91"
     gradientUnits="userSpaceOnUse">
    <stop
       stop-color="#FFAB40"
       offset="0"
       id="stop2" />
    <stop
       stop-color="#FF6D00"
       offset="1"
       id="stop4" />
  </linearGradient>
  <g
     id="g842"
     transform="matrix(1.0349094,0,0,1.0423995,-0.24557321,-9.7631906)">
    <path
       d="m 33.480052,26.633926 h -3.163718 c -0.317605,0 -0.576622,-0.259018 -0.576622,-0.576623 V 9.9426967 c 0,-0.3176051 0.259017,-0.5766229 0.576622,-0.5766229 h 3.163718 c 0.317605,0 0.576623,0.2590178 0.576623,0.5766229 V 26.057303 c 0,0.317605 -0.259018,0.576623 -0.576623,0.576623 z"
       id="path23"
       inkscape:connector-curvature="0"
       style="fill:#c01c28;fill-opacity:1;stroke-width:0.3083545" />
    <path
       d="m 0.23728957,17.999157 v -7.912378 c 0,-0.5519545 0.58278999,-0.8973111 1.04840533,-0.6259592 L 14.683698,17.373198 c 0.471783,0.277519 0.471783,0.9744 0,1.248835 L 1.2856949,26.537494 c -0.46869888,0.274435 -1.04840533,-0.07092 -1.04840533,-0.62596 z"
       id="path25"
       inkscape:connector-curvature="0"
       style="fill:#c01c28;fill-opacity:1;stroke-width:0.3083545" />
    <path
       d="m 14.988502,17.999157 v -7.912378 c 0,-0.5519544 0.58279,-0.897311 1.048405,-0.6259591 L 29.43491,17.373198 c 0.471783,0.277519 0.471783,0.9744 0,1.248835 l -13.398003,7.915461 c -0.468699,0.274435 -1.048405,-0.07092 -1.048405,-0.62596 z"
       id="path25-3"
       inkscape:connector-curvature="0"
       style="fill:#c01c28;fill-opacity:1;stroke-width:0.3083545" />
  </g>
</svg>
