<?xml version="1.0" encoding="UTF-8" standalone="no"?>
<svg
   viewBox="0 0 24 24"
   version="1.1"
   id="svg69"
   sodipodi:docname="musicbrainz-logo.svg"
   width="24"
   height="24"
   inkscape:version="1.1.1 (3bf5ae0d25, 2021-09-20)"
   xmlns:inkscape="http://www.inkscape.org/namespaces/inkscape"
   xmlns:sodipodi="http://sodipodi.sourceforge.net/DTD/sodipodi-0.dtd"
   xmlns="http://www.w3.org/2000/svg"
   xmlns:svg="http://www.w3.org/2000/svg">
  <sodipodi:namedview
     id="namedview71"
     pagecolor="#ffffff"
     bordercolor="#666666"
     borderopacity="1.0"
     inkscape:pageshadow="2"
     inkscape:pageopacity="0.0"
     inkscape:pagecheckerboard="true"
     showgrid="false"
     fit-margin-top="0"
     fit-margin-left="0"
     fit-margin-right="0"
     fit-margin-bottom="0"
     inkscape:zoom="5.4166667"
     inkscape:cx="8.8615384"
     inkscape:cy="12.646154"
     inkscape:window-width="1863"
     inkscape:window-height="1056"
     inkscape:window-x="57"
     inkscape:window-y="0"
     inkscape:window-maximized="1"
     inkscape:current-layer="svg69"
     inkscape:showpageshadow="false" />
  <defs
     id="defs4">
    <style
       id="style2">
      .b {mix-blend-mode: multiply; opacity: .07; }
      .c {isolation: isolate; }
      .d {fill: #fffedb; }
      .e {fill: #9d356d; }
      .f {fill: #d3562c; }
      .g {fill: #eb743b; }
      .h {fill: #ba478f; }
    </style>
  </defs>
  <g
     class="c"
     id="g67"
     transform="matrix(0.17354993,0,0,0.16651526,-0.49559496,-1.4044784)">
    <g
       id="a">
      <g
         id="g64">
        <polygon
           class="g"
           points="74.5,8.5 74.5,152.5 135.5,117.5 135.5,43.5 "
           id="polygon6" />
        <polygon
           class="h"
           points="69.5,49.5 68.5,49.5 68.5,28.5 69.5,27.5 69.5,8.5 8.5,43.5 8.5,117.5 69.5,152.5 69.5,68.5 68.5,67.5 68.5,62.5 69.5,61.5 "
           id="polygon8" />
        <g
           id="g20">
          <g
             class="b"
             id="g12">
            <path
               d="M 69.47,61.54 42.5,77.5 V 65.88 L 69.47,49.67 V 27.09 L 36.95,46.36 c 0,0 -0.04,0.03 -0.06,0.05 -0.09,0.06 -0.18,0.13 -0.26,0.2 -0.07,0.06 -0.14,0.11 -0.21,0.17 -0.07,0.07 -0.13,0.14 -0.19,0.22 -0.06,0.07 -0.13,0.14 -0.18,0.22 -0.06,0.08 -0.1,0.16 -0.15,0.25 -0.05,0.08 -0.1,0.16 -0.13,0.25 -0.04,0.09 -0.07,0.18 -0.1,0.28 -0.03,0.09 -0.06,0.18 -0.08,0.27 -0.02,0.09 -0.03,0.18 -0.04,0.27 -0.01,0.11 -0.03,0.21 -0.03,0.32 0,0.03 0,0.05 0,0.08 v 50.58 c -2.6,-0.42 -5.29,0.2 -8,2 -4.84,3.22 -6.48,9.28 -4,13 2.48,3.73 8.19,3.9 13.04,0.68 2.76,-1.84 5.38,-4.07 5.96,-6.68 0.12,-0.33 0,-2 0,-2 0,-0.14 0,-0.28 0,-0.42 V 84.52 L 69.49,68.37 v -6.81 z"
               id="path10" />
          </g>
          <g
             id="g18">
            <path
               class="e"
               d="m 69.5,64.5 -27,16 v -12 l 27,-16 v -23 L 36.98,49.18 c 0,0 -0.04,0.03 -0.06,0.05 -0.09,0.06 -0.18,0.13 -0.26,0.2 -0.07,0.06 -0.14,0.11 -0.21,0.17 -0.07,0.07 -0.13,0.14 -0.19,0.22 -0.06,0.07 -0.13,0.14 -0.18,0.22 -0.06,0.08 -0.1,0.16 -0.15,0.25 -0.05,0.08 -0.1,0.16 -0.13,0.25 -0.04,0.09 -0.07,0.18 -0.1,0.28 -0.03,0.09 -0.06,0.18 -0.08,0.27 -0.02,0.09 -0.03,0.18 -0.04,0.27 -0.01,0.11 -0.03,0.21 -0.03,0.32 0,0.03 0,0.05 0,0.08 v 50.58 c -2.6,-0.42 -5.29,0.2 -8,2 -4.84,3.22 -6.48,9.28 -4,13 2.48,3.73 8.19,3.9 13.04,0.68 2.76,-1.84 5.38,-4.07 5.96,-6.68 0.12,-0.33 0,-2 0,-2 0,-0.14 0,-0.28 0,-0.42 l -0.03,-21.4 27,-16 v -7 z"
               id="path14" />
            <path
               class="d"
               d="m 69.5,61.5 -27,16 v -12 l 27,-16 v -23 L 36.95,46.36 c 0,0 -0.04,0.03 -0.06,0.05 -0.09,0.06 -0.18,0.13 -0.26,0.2 -0.07,0.06 -0.14,0.11 -0.21,0.17 -0.07,0.07 -0.13,0.14 -0.19,0.22 -0.06,0.07 -0.13,0.14 -0.18,0.22 -0.06,0.08 -0.1,0.16 -0.15,0.25 -0.05,0.08 -0.1,0.16 -0.13,0.25 -0.04,0.09 -0.07,0.18 -0.1,0.28 -0.03,0.09 -0.06,0.18 -0.08,0.27 -0.02,0.09 -0.03,0.18 -0.04,0.27 -0.01,0.11 -0.03,0.21 -0.03,0.32 0,0.03 0,0.05 0,0.08 v 50.58 c -2.6,-0.42 -5.29,0.2 -8,2 -4.84,3.22 -6.48,9.28 -4,13 2.48,3.73 8.19,3.9 13.04,0.68 2.76,-1.84 5.38,-4.07 5.96,-6.68 0.12,-0.33 0,-2 0,-2 0,-0.14 0,-0.28 0,-0.42 V 84.52 l 27,-16 v -7 z"
               id="path16" />
          </g>
        </g>
        <g
           id="g62">
          <g
             class="b"
             id="g38">
            <path
               d="m 91.8,100.23 c 0.39,-0.64 1.07,-1.03 1.82,-1.03 0.38,0 0.75,0.1 1.08,0.3 1,0.6 1.33,1.9 0.74,2.9 -0.38,0.65 -1.06,1.03 -1.82,1.03 -0.38,0 -0.75,-0.1 -1.08,-0.3 -0.48,-0.29 -0.83,-0.75 -0.96,-1.29 -0.14,-0.55 -0.06,-1.12 0.23,-1.6 z m 12.6,22.36 c -0.49,0.42 -1.02,0.51 -1.37,0.51 -0.62,0 -1.21,-0.27 -1.61,-0.73 -0.76,-0.88 -0.65,-2.22 0.23,-2.98 0.49,-0.42 1.02,-0.51 1.37,-0.51 0.62,0 1.2,0.27 1.61,0.74 0.37,0.43 0.55,0.98 0.5,1.54 -0.04,0.56 -0.3,1.07 -0.73,1.44 z"
               id="path22" />
            <path
               d="m 83.5,54.11 c 0.07,0.02 0.14,0.03 0.21,0.05 -0.07,-0.01 -0.14,-0.03 -0.21,-0.05 z"
               id="path24" />
            <path
               d="m 94.88,63.76 c 0.17,-0.27 0.39,-0.49 0.67,-0.66 0.33,-0.21 0.72,-0.32 1.12,-0.32 0.4,0 0.79,0.11 1.12,0.32 0.99,0.63 1.28,1.94 0.66,2.92 -0.39,0.62 -1.06,0.99 -1.8,0.99 -0.4,0 -0.79,-0.11 -1.12,-0.33 -0.98,-0.62 -1.28,-1.94 -0.66,-2.92 z m 6.38,-20.19 c -0.6,0.95 -1.94,1.27 -2.91,0.65 l -0.1,-0.06 c -0.91,-0.65 -1.16,-1.9 -0.56,-2.85 0.39,-0.61 1.05,-0.98 1.78,-0.98 0.4,0 0.79,0.11 1.12,0.33 0.48,0.3 0.81,0.78 0.94,1.33 0.12,0.55 0.03,1.11 -0.28,1.58 z"
               id="path26" />
            <path
               d="m 118.03,55.17 c 0.39,-0.61 1.05,-0.98 1.78,-0.98 0.4,0 0.79,0.11 1.12,0.33 0.48,0.3 0.81,0.78 0.94,1.33 0.12,0.55 0.02,1.11 -0.28,1.58 -0.6,0.95 -1.94,1.27 -2.91,0.65 l -0.09,-0.06 c -0.92,-0.65 -1.16,-1.9 -0.56,-2.85 z m 0,23.46 c 0.39,-0.61 1.05,-0.98 1.78,-0.98 0.4,0 0.79,0.11 1.12,0.33 0.48,0.3 0.81,0.77 0.94,1.33 0.12,0.55 0.02,1.11 -0.28,1.58 -0.6,0.95 -1.94,1.27 -2.91,0.65 l -0.09,-0.06 c -0.92,-0.65 -1.16,-1.9 -0.56,-2.85 z m 0,26.3 c 0.39,-0.61 1.05,-0.98 1.78,-0.98 0.4,0 0.79,0.11 1.12,0.33 0.48,0.3 0.81,0.78 0.94,1.33 0.12,0.55 0.02,1.11 -0.28,1.58 -0.6,0.95 -1.94,1.27 -2.91,0.65 l -0.09,-0.06 c -0.92,-0.65 -1.16,-1.9 -0.56,-2.85 z"
               id="path28" />
            <path
               d="m 107.68,114.6 c -1.17,-1.36 -2.86,-2.14 -4.65,-2.14 -1.46,0 -2.88,0.53 -3.98,1.48 -1.61,1.38 -2.33,3.43 -2.09,5.4 -1.95,0.7 -4.26,1.37 -5.33,1.33 -0.82,-0.04 -1.3,-0.35 -2.22,-0.97 -1.17,-0.79 -2.42,-1.51 -4.15,-1.85 2.94,-2.76 6.01,-6.83 8.58,-12.83 2.06,-0.08 3.98,-1.19 5.04,-2.97 1.72,-2.9 0.77,-6.66 -2.12,-8.39 -0.95,-0.57 -2.03,-0.86 -3.13,-0.86 -2.15,0 -4.16,1.14 -5.26,2.99 -0.84,1.41 -1.08,3.05 -0.68,4.64 0.35,1.39 1.16,2.59 2.3,3.43 -4.05,9.22 -9.22,13.08 -12.57,14.68 -0.13,0.04 -0.25,0.1 -0.36,0.17 -1.19,0.53 -2.05,0.7 -2.56,0.81 v 4 c 0.28,-0.03 1.88,-0.12 4.25,-1.19 5.35,-1.36 6.84,-0.35 8.41,0.71 1.02,0.69 2.29,1.55 4.26,1.66 0.1,0 0.2,0 0.31,0 2.11,0 5.17,-1.02 7.02,-1.72 1.14,1.12 2.68,1.75 4.29,1.75 v 0 c 1.46,0 2.88,-0.52 3.98,-1.48 1.24,-1.06 1.99,-2.55 2.12,-4.18 0.12,-1.63 -0.39,-3.21 -1.46,-4.45 z M 91.81,97.82 c 0.39,-0.64 1.07,-1.03 1.82,-1.03 0.38,0 0.75,0.1 1.08,0.3 1,0.6 1.33,1.9 0.74,2.9 -0.38,0.65 -1.06,1.03 -1.82,1.03 -0.38,0 -0.75,-0.1 -1.08,-0.3 -0.48,-0.29 -0.83,-0.75 -0.96,-1.29 -0.14,-0.55 -0.06,-1.12 0.23,-1.6 z m 12.6,22.36 c -0.49,0.42 -1.02,0.51 -1.37,0.51 -0.62,0 -1.21,-0.27 -1.61,-0.73 -0.76,-0.88 -0.65,-2.22 0.23,-2.98 0.49,-0.42 1.02,-0.51 1.37,-0.51 0.62,0 1.2,0.27 1.61,0.74 0.37,0.43 0.55,0.98 0.5,1.54 -0.04,0.56 -0.3,1.07 -0.73,1.44 z"
               id="path30" />
            <path
               d="m 83.5,51.71 c 0.07,0.02 0.14,0.03 0.21,0.05 -0.07,-0.01 -0.14,-0.03 -0.21,-0.05 z"
               id="path32" />
            <path
               d="m 105.45,38.7 c -0.36,-1.6 -1.32,-2.96 -2.71,-3.84 -0.98,-0.62 -2.11,-0.94 -3.26,-0.94 -2.12,0 -4.05,1.07 -5.17,2.85 -1.35,2.14 -1.22,4.8 0.14,6.76 -3.65,4.12 -8.71,4.31 -9.94,4.29 -3.69,-1.6 -7.23,-2.16 -10,-2.32 v 4 c 2.44,0.14 5.55,0.69 8.75,2.14 h 0.01 c 3.45,1.57 6.33,3.93 8.61,7.05 -0.14,0.17 -0.26,0.35 -0.38,0.54 -1.8,2.85 -0.94,6.64 1.9,8.44 0.98,0.62 2.11,0.95 3.27,0.95 2.11,0 4.05,-1.07 5.18,-2.85 1.81,-2.85 0.95,-6.64 -1.91,-8.45 -1.38,-0.87 -3.09,-1.11 -4.67,-0.75 -1.54,-2.15 -3.32,-4.02 -5.34,-5.57 2.52,-0.78 5.4,-2.27 7.78,-5.1 0.57,0.17 1.17,0.27 1.77,0.27 2.12,0 4.05,-1.07 5.17,-2.85 0.88,-1.38 1.16,-3.01 0.8,-4.6 z M 94.88,61.35 c 0.17,-0.27 0.39,-0.49 0.67,-0.66 0.33,-0.21 0.72,-0.32 1.12,-0.32 0.4,0 0.79,0.11 1.12,0.32 0.99,0.63 1.28,1.94 0.66,2.92 -0.39,0.62 -1.06,0.99 -1.8,0.99 -0.4,0 -0.79,-0.11 -1.12,-0.33 -0.98,-0.62 -1.28,-1.94 -0.66,-2.92 z m 6.38,-20.19 c -0.6,0.95 -1.94,1.27 -2.91,0.65 l -0.1,-0.06 c -0.91,-0.65 -1.16,-1.9 -0.56,-2.85 0.39,-0.61 1.05,-0.98 1.78,-0.98 0.4,0 0.79,0.11 1.12,0.33 0.48,0.3 0.81,0.78 0.94,1.33 0.12,0.55 0.03,1.11 -0.28,1.58 z"
               id="path34" />
            <path
               d="m 114.15,79.69 c 0.42,1.04 1.14,1.96 2.11,2.65 0.07,0.05 0.15,0.11 0.28,0.19 0.98,0.62 2.11,0.95 3.27,0.95 2.12,0 4.05,-1.07 5.17,-2.85 0.88,-1.38 1.16,-3.01 0.8,-4.6 -0.36,-1.6 -1.32,-2.96 -2.71,-3.84 -0.98,-0.62 -2.11,-0.94 -3.27,-0.94 -0.12,0 -0.25,0 -0.38,0.02 -0.71,-3.16 -0.92,-7.77 0.04,-11.26 0.11,0.01 0.22,0.02 0.34,0.02 2.12,0 4.05,-1.07 5.17,-2.85 0.88,-1.38 1.16,-3.01 0.8,-4.6 -0.36,-1.6 -1.32,-2.96 -2.71,-3.84 -0.98,-0.62 -2.11,-0.94 -3.27,-0.94 -2.11,0 -4.05,1.07 -5.17,2.85 -1.6,2.53 -1.12,5.8 1.02,7.76 0.02,0.02 0.05,0.04 0.07,0.06 -1.35,4.52 -1.15,10.32 -0.04,14.42 -0.14,0.13 -0.29,0.25 -0.43,0.4 -0.23,0.25 -0.45,0.53 -0.63,0.82 -0.32,0.5 -0.55,1.03 -0.71,1.58 -3.37,0.49 -5.2,1.67 -6.82,2.73 -2.04,1.32 -3.96,2.57 -9.64,2.67 -1.96,-0.23 -3.55,-0.18 -5.29,-0.12 -1.43,0.05 -2.91,0.11 -4.85,0 -1.33,-0.07 -2.1,-0.88 -3.46,-2.42 -1.8,-2.05 -4.22,-4.65 -9.37,-5.02 v 4 c 3.29,0.3 4.8,1.89 6.36,3.67 1.49,1.69 3.17,3.62 6.26,3.78 2.12,0.11 3.76,0.05 5.21,0 2.49,-0.09 4.45,-0.16 7.86,0.68 2.61,0.64 12.1,9.67 14.77,14.32 -0.11,0.14 -0.22,0.28 -0.31,0.43 -1.74,2.75 -1.03,6.38 1.62,8.25 0.07,0.05 0.15,0.1 0.28,0.19 0.98,0.62 2.11,0.95 3.27,0.95 2.12,0 4.05,-1.07 5.17,-2.85 0.88,-1.37 1.16,-3.01 0.8,-4.6 -0.36,-1.6 -1.32,-2.96 -2.71,-3.84 -0.98,-0.62 -2.11,-0.94 -3.27,-0.94 -0.53,0 -1.05,0.07 -1.54,0.2 -2.56,-4.19 -8.65,-10.46 -13.19,-13.79 1.81,-0.63 3.05,-1.43 4.21,-2.19 1.43,-0.93 2.61,-1.69 4.86,-2.07 z m 3.88,-26.92 c 0.39,-0.61 1.05,-0.98 1.78,-0.98 0.4,0 0.79,0.11 1.12,0.33 0.48,0.3 0.81,0.78 0.94,1.33 0.12,0.55 0.02,1.11 -0.28,1.58 -0.6,0.95 -1.94,1.27 -2.91,0.65 l -0.09,-0.06 c -0.92,-0.65 -1.16,-1.9 -0.56,-2.85 z m 0,23.46 c 0.39,-0.61 1.05,-0.98 1.78,-0.98 0.4,0 0.79,0.11 1.12,0.33 0.48,0.3 0.81,0.77 0.94,1.33 0.12,0.55 0.02,1.11 -0.28,1.58 -0.6,0.95 -1.94,1.27 -2.91,0.65 l -0.09,-0.06 c -0.92,-0.65 -1.16,-1.9 -0.56,-2.85 z m 0,26.3 c 0.39,-0.61 1.05,-0.98 1.78,-0.98 0.4,0 0.79,0.11 1.12,0.33 0.48,0.3 0.81,0.78 0.94,1.33 0.12,0.55 0.02,1.11 -0.28,1.58 -0.6,0.95 -1.94,1.27 -2.91,0.65 l -0.09,-0.06 c -0.92,-0.65 -1.16,-1.9 -0.56,-2.85 z"
               id="path36" />
          </g>
          <g
             id="g60">
            <g
               id="g48">
              <path
                 class="f"
                 d="m 107.68,117.6 c -1.17,-1.36 -2.86,-2.14 -4.65,-2.14 -1.46,0 -2.88,0.53 -3.98,1.48 -1.61,1.38 -2.33,3.43 -2.09,5.4 -1.95,0.7 -4.26,1.37 -5.33,1.33 -0.82,-0.04 -1.3,-0.35 -2.22,-0.97 -1.17,-0.79 -2.42,-1.51 -4.15,-1.85 2.94,-2.76 6.01,-6.83 8.58,-12.83 2.06,-0.08 3.98,-1.19 5.04,-2.97 1.72,-2.9 0.77,-6.66 -2.12,-8.39 -0.95,-0.57 -2.03,-0.86 -3.13,-0.86 -2.15,0 -4.16,1.14 -5.26,2.99 -0.84,1.41 -1.08,3.05 -0.68,4.64 0.35,1.39 1.16,2.59 2.3,3.43 -4.05,9.22 -9.22,13.08 -12.57,14.68 -0.13,0.04 -0.25,0.1 -0.36,0.17 -1.19,0.53 -2.05,0.7 -2.56,0.81 v 4 c 0.28,-0.03 1.88,-0.12 4.25,-1.19 5.35,-1.36 6.84,-0.35 8.41,0.71 1.02,0.69 2.29,1.55 4.26,1.66 0.1,0 0.2,0 0.31,0 2.11,0 5.17,-1.02 7.02,-1.72 1.14,1.12 2.68,1.75 4.29,1.75 v 0 c 1.46,0 2.88,-0.52 3.98,-1.48 1.24,-1.06 1.99,-2.55 2.12,-4.18 0.12,-1.63 -0.39,-3.21 -1.46,-4.45 z M 91.81,100.82 c 0.39,-0.64 1.07,-1.03 1.82,-1.03 0.38,0 0.75,0.1 1.08,0.3 1,0.6 1.33,1.9 0.74,2.9 -0.38,0.65 -1.06,1.03 -1.82,1.03 -0.38,0 -0.75,-0.1 -1.08,-0.3 -0.48,-0.29 -0.83,-0.75 -0.96,-1.29 -0.14,-0.55 -0.06,-1.12 0.23,-1.6 z m 12.6,22.36 c -0.49,0.42 -1.02,0.51 -1.37,0.51 -0.62,0 -1.21,-0.27 -1.61,-0.73 -0.76,-0.88 -0.65,-2.22 0.23,-2.98 0.49,-0.42 1.02,-0.51 1.37,-0.51 0.62,0 1.2,0.27 1.61,0.74 0.37,0.43 0.55,0.98 0.5,1.54 -0.04,0.56 -0.3,1.07 -0.73,1.44 z"
                 id="path40" />
              <path
                 d="m 83.5,54.11 c 0.07,0.02 0.14,0.03 0.21,0.05 -0.07,-0.01 -0.14,-0.03 -0.21,-0.05 z"
                 id="path42" />
              <path
                 class="f"
                 d="m 105.45,41.71 c -0.36,-1.6 -1.32,-2.96 -2.71,-3.84 -0.98,-0.62 -2.11,-0.94 -3.26,-0.94 -2.12,0 -4.05,1.07 -5.17,2.85 -1.35,2.14 -1.22,4.8 0.14,6.76 -3.65,4.12 -8.71,4.31 -9.94,4.29 -3.69,-1.6 -7.23,-2.16 -10,-2.32 v 4 c 2.44,0.14 5.55,0.69 8.75,2.14 h 0.01 c 3.45,1.57 6.33,3.93 8.61,7.05 -0.14,0.17 -0.26,0.35 -0.38,0.54 -1.8,2.85 -0.94,6.64 1.9,8.44 0.98,0.62 2.11,0.95 3.27,0.95 2.11,0 4.05,-1.07 5.18,-2.85 1.81,-2.85 0.95,-6.64 -1.91,-8.45 -1.38,-0.87 -3.09,-1.11 -4.67,-0.75 -1.54,-2.15 -3.32,-4.02 -5.34,-5.57 2.52,-0.78 5.4,-2.27 7.78,-5.1 0.57,0.17 1.17,0.27 1.77,0.27 2.12,0 4.05,-1.07 5.17,-2.85 0.88,-1.38 1.16,-3.01 0.8,-4.6 z M 94.88,64.36 c 0.17,-0.27 0.39,-0.49 0.67,-0.66 0.33,-0.21 0.72,-0.32 1.12,-0.32 0.4,0 0.79,0.11 1.12,0.32 0.99,0.63 1.28,1.94 0.66,2.92 -0.39,0.62 -1.06,0.99 -1.8,0.99 -0.4,0 -0.79,-0.11 -1.12,-0.33 -0.98,-0.62 -1.28,-1.94 -0.66,-2.92 z m 6.38,-20.19 c -0.6,0.95 -1.94,1.27 -2.91,0.65 l -0.1,-0.06 c -0.91,-0.65 -1.16,-1.9 -0.56,-2.85 0.39,-0.61 1.05,-0.98 1.78,-0.98 0.4,0 0.79,0.11 1.12,0.33 0.48,0.3 0.81,0.78 0.94,1.33 0.12,0.55 0.03,1.11 -0.28,1.58 z"
                 id="path44" />
              <path
                 class="f"
                 d="m 114.15,82.69 c 0.42,1.04 1.14,1.96 2.11,2.65 0.07,0.05 0.15,0.11 0.28,0.19 0.98,0.62 2.11,0.95 3.27,0.95 2.12,0 4.05,-1.07 5.17,-2.85 0.88,-1.38 1.16,-3.01 0.8,-4.6 -0.36,-1.6 -1.32,-2.96 -2.71,-3.84 -0.98,-0.62 -2.11,-0.94 -3.27,-0.94 -0.12,0 -0.25,0 -0.38,0.02 -0.71,-3.16 -0.92,-7.77 0.04,-11.26 0.11,0.01 0.22,0.02 0.34,0.02 2.12,0 4.05,-1.07 5.17,-2.85 0.88,-1.38 1.16,-3.01 0.8,-4.6 -0.36,-1.6 -1.32,-2.96 -2.71,-3.84 -0.98,-0.62 -2.11,-0.94 -3.27,-0.94 -2.11,0 -4.05,1.07 -5.17,2.85 -1.6,2.53 -1.12,5.8 1.02,7.76 0.02,0.02 0.05,0.04 0.07,0.06 -1.35,4.52 -1.15,10.32 -0.04,14.42 -0.14,0.13 -0.29,0.25 -0.43,0.4 -0.23,0.25 -0.45,0.53 -0.63,0.82 -0.32,0.5 -0.55,1.03 -0.71,1.58 -3.37,0.49 -5.2,1.67 -6.82,2.73 -2.04,1.32 -3.96,2.57 -9.64,2.67 -1.96,-0.23 -3.55,-0.18 -5.29,-0.12 -1.43,0.05 -2.91,0.11 -4.85,0 -1.33,-0.07 -2.1,-0.88 -3.46,-2.42 -1.8,-2.05 -4.22,-4.65 -9.37,-5.02 v 4 c 3.29,0.3 4.8,1.89 6.36,3.67 1.49,1.69 3.17,3.62 6.26,3.78 2.12,0.11 3.76,0.05 5.21,0 2.49,-0.09 4.45,-0.16 7.86,0.68 2.61,0.64 12.1,9.67 14.77,14.32 -0.11,0.14 -0.22,0.28 -0.31,0.43 -1.74,2.75 -1.03,6.38 1.62,8.25 0.07,0.05 0.15,0.1 0.28,0.19 0.98,0.62 2.11,0.95 3.27,0.95 2.12,0 4.05,-1.07 5.17,-2.85 0.88,-1.37 1.16,-3.01 0.8,-4.6 -0.36,-1.6 -1.32,-2.96 -2.71,-3.84 -0.98,-0.62 -2.11,-0.94 -3.27,-0.94 -0.53,0 -1.05,0.07 -1.54,0.2 -2.56,-4.19 -8.65,-10.46 -13.19,-13.79 1.81,-0.63 3.05,-1.43 4.21,-2.19 1.43,-0.93 2.61,-1.69 4.86,-2.07 z m 3.88,-26.92 c 0.39,-0.61 1.05,-0.98 1.78,-0.98 0.4,0 0.79,0.11 1.12,0.33 0.48,0.3 0.81,0.78 0.94,1.33 0.12,0.55 0.02,1.11 -0.28,1.58 -0.6,0.95 -1.94,1.27 -2.91,0.65 l -0.09,-0.06 c -0.92,-0.65 -1.16,-1.9 -0.56,-2.85 z m 0,23.46 c 0.39,-0.61 1.05,-0.98 1.78,-0.98 0.4,0 0.79,0.11 1.12,0.33 0.48,0.3 0.81,0.77 0.94,1.33 0.12,0.55 0.02,1.11 -0.28,1.58 -0.6,0.95 -1.94,1.27 -2.91,0.65 l -0.09,-0.06 c -0.92,-0.65 -1.16,-1.9 -0.56,-2.85 z m 0,26.3 c 0.39,-0.61 1.05,-0.98 1.78,-0.98 0.4,0 0.79,0.11 1.12,0.33 0.48,0.3 0.81,0.78 0.94,1.33 0.12,0.55 0.02,1.11 -0.28,1.58 -0.6,0.95 -1.94,1.27 -2.91,0.65 l -0.09,-0.06 c -0.92,-0.65 -1.16,-1.9 -0.56,-2.85 z"
                 id="path46" />
            </g>
            <g
               id="g58">
              <path
                 class="d"
                 d="m 107.68,114.6 c -1.17,-1.36 -2.86,-2.14 -4.65,-2.14 -1.46,0 -2.88,0.53 -3.98,1.48 -1.61,1.38 -2.33,3.43 -2.09,5.4 -1.95,0.7 -4.26,1.37 -5.33,1.33 -0.82,-0.04 -1.3,-0.35 -2.22,-0.97 -1.17,-0.79 -2.42,-1.51 -4.15,-1.85 2.94,-2.76 6.01,-6.83 8.58,-12.83 2.06,-0.08 3.98,-1.19 5.04,-2.97 1.72,-2.9 0.77,-6.66 -2.12,-8.39 -0.95,-0.57 -2.03,-0.86 -3.13,-0.86 -2.15,0 -4.16,1.14 -5.26,2.99 -0.84,1.41 -1.08,3.05 -0.68,4.64 0.35,1.39 1.16,2.59 2.3,3.43 -4.05,9.22 -9.22,13.08 -12.57,14.68 -0.13,0.04 -0.25,0.1 -0.36,0.17 -1.19,0.53 -2.05,0.7 -2.56,0.81 v 4 c 0.28,-0.03 1.88,-0.12 4.25,-1.19 5.35,-1.36 6.84,-0.35 8.41,0.71 1.02,0.69 2.29,1.55 4.26,1.66 0.1,0 0.2,0 0.31,0 2.11,0 5.17,-1.02 7.02,-1.72 1.14,1.12 2.68,1.75 4.29,1.75 v 0 c 1.46,0 2.88,-0.52 3.98,-1.48 1.24,-1.06 1.99,-2.55 2.12,-4.18 0.12,-1.63 -0.39,-3.21 -1.46,-4.45 z M 91.81,97.82 c 0.39,-0.64 1.07,-1.03 1.82,-1.03 0.38,0 0.75,0.1 1.08,0.3 1,0.6 1.33,1.9 0.74,2.9 -0.38,0.65 -1.06,1.03 -1.82,1.03 -0.38,0 -0.75,-0.1 -1.08,-0.3 -0.48,-0.29 -0.83,-0.75 -0.96,-1.29 -0.14,-0.55 -0.06,-1.12 0.23,-1.6 z m 12.6,22.36 c -0.49,0.42 -1.02,0.51 -1.37,0.51 -0.62,0 -1.21,-0.27 -1.61,-0.73 -0.76,-0.88 -0.65,-2.22 0.23,-2.98 0.49,-0.42 1.02,-0.51 1.37,-0.51 0.62,0 1.2,0.27 1.61,0.74 0.37,0.43 0.55,0.98 0.5,1.54 -0.04,0.56 -0.3,1.07 -0.73,1.44 z"
                 id="path50" />
              <path
                 class="d"
                 d="m 83.5,51.71 c 0.07,0.02 0.14,0.03 0.21,0.05 -0.07,-0.01 -0.14,-0.03 -0.21,-0.05 z"
                 id="path52" />
              <path
                 class="d"
                 d="m 105.45,38.7 c -0.36,-1.6 -1.32,-2.96 -2.71,-3.84 -0.98,-0.62 -2.11,-0.94 -3.26,-0.94 -2.12,0 -4.05,1.07 -5.17,2.85 -1.35,2.14 -1.22,4.8 0.14,6.76 -3.65,4.12 -8.71,4.31 -9.94,4.29 -3.69,-1.6 -7.23,-2.16 -10,-2.32 v 4 c 2.44,0.14 5.55,0.69 8.75,2.14 h 0.01 c 3.45,1.57 6.33,3.93 8.61,7.05 -0.14,0.17 -0.26,0.35 -0.38,0.54 -1.8,2.85 -0.94,6.64 1.9,8.44 0.98,0.62 2.11,0.95 3.27,0.95 2.11,0 4.05,-1.07 5.18,-2.85 1.81,-2.85 0.95,-6.64 -1.91,-8.45 -1.38,-0.87 -3.09,-1.11 -4.67,-0.75 -1.54,-2.15 -3.32,-4.02 -5.34,-5.57 2.52,-0.78 5.4,-2.27 7.78,-5.1 0.57,0.17 1.17,0.27 1.77,0.27 2.12,0 4.05,-1.07 5.17,-2.85 0.88,-1.38 1.16,-3.01 0.8,-4.6 z M 94.88,61.35 c 0.17,-0.27 0.39,-0.49 0.67,-0.66 0.33,-0.21 0.72,-0.32 1.12,-0.32 0.4,0 0.79,0.11 1.12,0.32 0.99,0.63 1.28,1.94 0.66,2.92 -0.39,0.62 -1.06,0.99 -1.8,0.99 -0.4,0 -0.79,-0.11 -1.12,-0.33 -0.98,-0.62 -1.28,-1.94 -0.66,-2.92 z m 6.38,-20.19 c -0.6,0.95 -1.94,1.27 -2.91,0.65 l -0.1,-0.06 c -0.91,-0.65 -1.16,-1.9 -0.56,-2.85 0.39,-0.61 1.05,-0.98 1.78,-0.98 0.4,0 0.79,0.11 1.12,0.33 0.48,0.3 0.81,0.78 0.94,1.33 0.12,0.55 0.03,1.11 -0.28,1.58 z"
                 id="path54" />
              <path
                 class="d"
                 d="m 114.15,79.69 c 0.42,1.04 1.14,1.96 2.11,2.65 0.07,0.05 0.15,0.11 0.28,0.19 0.98,0.62 2.11,0.95 3.27,0.95 2.12,0 4.05,-1.07 5.17,-2.85 0.88,-1.38 1.16,-3.01 0.8,-4.6 -0.36,-1.6 -1.32,-2.96 -2.71,-3.84 -0.98,-0.62 -2.11,-0.94 -3.27,-0.94 -0.12,0 -0.25,0 -0.38,0.02 -0.71,-3.16 -0.92,-7.77 0.04,-11.26 0.11,0.01 0.22,0.02 0.34,0.02 2.12,0 4.05,-1.07 5.17,-2.85 0.88,-1.38 1.16,-3.01 0.8,-4.6 -0.36,-1.6 -1.32,-2.96 -2.71,-3.84 -0.98,-0.62 -2.11,-0.94 -3.27,-0.94 -2.11,0 -4.05,1.07 -5.17,2.85 -1.6,2.53 -1.12,5.8 1.02,7.76 0.02,0.02 0.05,0.04 0.07,0.06 -1.35,4.52 -1.15,10.32 -0.04,14.42 -0.14,0.13 -0.29,0.25 -0.43,0.4 -0.23,0.25 -0.45,0.53 -0.63,0.82 -0.32,0.5 -0.55,1.03 -0.71,1.58 -3.37,0.49 -5.2,1.67 -6.82,2.73 -2.04,1.32 -3.96,2.57 -9.64,2.67 -1.96,-0.23 -3.55,-0.18 -5.29,-0.12 -1.43,0.05 -2.91,0.11 -4.85,0 -1.33,-0.07 -2.1,-0.88 -3.46,-2.42 -1.8,-2.05 -4.22,-4.65 -9.37,-5.02 v 4 c 3.29,0.3 4.8,1.89 6.36,3.67 1.49,1.69 3.17,3.62 6.26,3.78 2.12,0.11 3.76,0.05 5.21,0 2.49,-0.09 4.45,-0.16 7.86,0.68 2.61,0.64 12.1,9.67 14.77,14.32 -0.11,0.14 -0.22,0.28 -0.31,0.43 -1.74,2.75 -1.03,6.38 1.62,8.25 0.07,0.05 0.15,0.1 0.28,0.19 0.98,0.62 2.11,0.95 3.27,0.95 2.12,0 4.05,-1.07 5.17,-2.85 0.88,-1.37 1.16,-3.01 0.8,-4.6 -0.36,-1.6 -1.32,-2.96 -2.71,-3.84 -0.98,-0.62 -2.11,-0.94 -3.27,-0.94 -0.53,0 -1.05,0.07 -1.54,0.2 -2.56,-4.19 -8.65,-10.46 -13.19,-13.79 1.81,-0.63 3.05,-1.43 4.21,-2.19 1.43,-0.93 2.61,-1.69 4.86,-2.07 z m 3.88,-26.92 c 0.39,-0.61 1.05,-0.98 1.78,-0.98 0.4,0 0.79,0.11 1.12,0.33 0.48,0.3 0.81,0.78 0.94,1.33 0.12,0.55 0.02,1.11 -0.28,1.58 -0.6,0.95 -1.94,1.27 -2.91,0.65 l -0.09,-0.06 c -0.92,-0.65 -1.16,-1.9 -0.56,-2.85 z m 0,23.46 c 0.39,-0.61 1.05,-0.98 1.78,-0.98 0.4,0 0.79,0.11 1.12,0.33 0.48,0.3 0.81,0.77 0.94,1.33 0.12,0.55 0.02,1.11 -0.28,1.58 -0.6,0.95 -1.94,1.27 -2.91,0.65 l -0.09,-0.06 c -0.92,-0.65 -1.16,-1.9 -0.56,-2.85 z m 0,26.3 c 0.39,-0.61 1.05,-0.98 1.78,-0.98 0.4,0 0.79,0.11 1.12,0.33 0.48,0.3 0.81,0.78 0.94,1.33 0.12,0.55 0.02,1.11 -0.28,1.58 -0.6,0.95 -1.94,1.27 -2.91,0.65 l -0.09,-0.06 c -0.92,-0.65 -1.16,-1.9 -0.56,-2.85 z"
                 id="path56" />
            </g>
          </g>
        </g>
      </g>
    </g>
  </g>
</svg>
